<svg width="47" height="23" viewBox="0 0 47 23" fill="none" xmlns="http://www.w3.org/2000/svg">
<path d="M1.73276 10.2501C0.904387 10.2596 0.240578 10.9389 0.250099 11.7672C0.259621 12.5956 0.938868 13.2594 1.76724 13.2499L1.73276 10.2501ZM46.3228 12.2984C46.9018 11.7059 46.8909 10.7562 46.2984 10.1772L36.6434 0.741624C36.0509 0.162609 35.1012 0.173525 34.5222 0.766006C33.9432 1.35849 33.9541 2.30817 34.5466 2.88719L43.1288 11.2744L34.7416 19.8566C34.1626 20.4491 34.1735 21.3988 34.766 21.9778C35.3585 22.5568 36.3082 22.5459 36.8872 21.9534L46.3228 12.2984ZM1.76724 13.2499L45.2672 12.7499L45.2328 9.7501L1.73276 10.2501L1.76724 13.2499Z" fill="white"/>
</svg>
