<svg width="32" height="32" viewBox="0 0 32 32" fill="none" xmlns="http://www.w3.org/2000/svg">
<path d="M29.508 22.255L27.43 18.515L25.682 19.485L27.76 23.227C27.9195 23.5106 28.0013 23.8313 27.9973 24.1566C27.9932 24.4819 27.9035 24.8004 27.737 25.08C27.397 25.656 26.796 26 26.127 26H18.83L21.41 23.41L20 22L15 27L20 32L21.41 30.59L18.83 28H26.128C26.802 28.0036 27.465 27.8292 28.05 27.4946C28.6351 27.1599 29.1214 26.6768 29.46 26.094C29.8052 25.5147 29.9913 24.8547 29.9998 24.1804C30.0082 23.5062 29.8386 22.8427 29.508 22.255ZM5.87302 26C5.54744 26.0019 5.22712 25.9178 4.94443 25.7563C4.66174 25.5947 4.42669 25.3615 4.26302 25.08C4.09674 24.8003 4.00715 24.4818 4.00328 24.1565C3.99942 23.8311 4.08142 23.5105 4.24102 23.227L8.35102 15.827L9.40002 19.347L11.312 18.78L9.30302 12L2.52302 14.008L3.09002 15.92L6.58302 14.89L2.49302 22.255C2.16232 22.8426 1.99252 23.5071 2.00078 24.1813C2.00903 24.8555 2.19504 25.5157 2.54002 26.095C2.87888 26.6777 3.36548 27.1606 3.95069 27.4951C4.53589 27.8296 5.19899 28.0037 5.87302 28H12V26H5.87302ZM25.51 9.654L24.462 13.173L19.35 3.97C18.664 2.737 17.412 2 16 2C14.588 2 13.335 2.737 12.65 3.971L9.57002 9.515L11.319 10.485L14.399 4.942C14.725 4.352 15.324 4 16 4C16.676 4 17.274 4.352 17.602 4.942L22.694 14.109L19.2 13.079L18.634 14.992L25.414 17L27.422 10.22L25.51 9.654Z" fill="#3A3945"/>
</svg>
