<svg width="17" height="17" viewBox="0 0 17 17" fill="none" xmlns="http://www.w3.org/2000/svg">
<path d="M8.57959 14.7419L7.59953 13.8759C6.46176 12.8656 5.52113 11.9941 4.77763 11.2614C4.03414 10.5286 3.44272 9.87074 3.00339 9.28767C2.56405 8.70503 2.25719 8.16947 2.08281 7.68098C1.90842 7.1925 1.82101 6.69291 1.82056 6.18221C1.82056 5.13863 2.17541 4.26712 2.8851 3.56769C3.5948 2.86827 4.47911 2.51855 5.53802 2.51855C6.12381 2.51855 6.68143 2.64068 7.21089 2.88492C7.74034 3.12916 8.19658 3.47333 8.57959 3.91741C8.9626 3.47333 9.41884 3.12916 9.94829 2.88492C10.4778 2.64068 11.0354 2.51855 11.6212 2.51855C12.6801 2.51855 13.5644 2.86827 14.2741 3.56769C14.9838 4.26712 15.3386 5.13863 15.3386 6.18221C15.3386 6.69291 15.2512 7.1925 15.0764 7.68098C14.9015 8.16947 14.5947 8.70503 14.1558 9.28767C13.7165 9.87074 13.125 10.5286 12.3815 11.2614C11.6381 11.9941 10.6974 12.8656 9.55965 13.8759L8.57959 14.7419ZM8.57959 12.9433C9.66104 11.9886 10.551 11.1697 11.2494 10.4867C11.9478 9.80369 12.4998 9.20995 12.9054 8.70548C13.3109 8.20011 13.5925 7.75026 13.7502 7.35592C13.908 6.96157 13.9868 6.57034 13.9868 6.18221C13.9868 5.51609 13.7615 4.96099 13.3109 4.51691C12.8603 4.07283 12.2971 3.85079 11.6212 3.85079C11.0917 3.85079 10.6017 3.99778 10.1511 4.29177C9.70046 4.58575 9.39067 4.96055 9.2217 5.41618H7.93748C7.76851 4.96099 7.45872 4.58619 7.00811 4.29177C6.55751 3.99734 6.06748 3.85035 5.53802 3.85079C4.86212 3.85079 4.29887 4.07283 3.84827 4.51691C3.39766 4.96099 3.17236 5.51609 3.17236 6.18221C3.17236 6.57078 3.25122 6.96224 3.40893 7.35658C3.56664 7.75093 3.84827 8.20056 4.25381 8.70548C4.65935 9.21039 5.21134 9.80435 5.90977 10.4873C6.60821 11.1703 7.49814 11.989 8.57959 12.9433Z" fill="black"/>
</svg>
