<svg width="25" height="24" viewBox="0 0 25 24" fill="none" xmlns="http://www.w3.org/2000/svg">
<path d="M12.502 20.9994L11.052 19.6994C9.36862 18.1827 7.97695 16.8744 6.87695 15.7744C5.77695 14.6744 4.90195 13.6867 4.25195 12.8114C3.60195 11.9367 3.14795 11.1327 2.88995 10.3994C2.63195 9.66608 2.50262 8.91608 2.50195 8.14941C2.50195 6.58275 3.02695 5.27441 4.07695 4.22441C5.12695 3.17441 6.43529 2.64941 8.00195 2.64941C8.86862 2.64941 9.69362 2.83275 10.477 3.19941C11.2603 3.56608 11.9353 4.08275 12.502 4.74941C13.0686 4.08275 13.7436 3.56608 14.527 3.19941C15.3103 2.83275 16.1353 2.64941 17.002 2.64941C18.5686 2.64941 19.877 3.17441 20.927 4.22441C21.977 5.27441 22.502 6.58275 22.502 8.14941C22.502 8.91608 22.3726 9.66608 22.114 10.3994C21.8553 11.1327 21.4013 11.9367 20.752 12.8114C20.102 13.6867 19.227 14.6744 18.127 15.7744C17.027 16.8744 15.6353 18.1827 13.952 19.6994L12.502 20.9994ZM12.502 18.2994C14.102 16.8661 15.4186 15.6367 16.452 14.6114C17.4853 13.5861 18.302 12.6947 18.902 11.9374C19.502 11.1787 19.9186 10.5034 20.152 9.91141C20.3853 9.31941 20.502 8.73208 20.502 8.14941C20.502 7.14941 20.1686 6.31608 19.502 5.64941C18.8353 4.98275 18.002 4.64941 17.002 4.64941C16.2186 4.64941 15.4936 4.87008 14.827 5.31141C14.1603 5.75275 13.702 6.31541 13.452 6.99941H11.552C11.302 6.31608 10.8436 5.75341 10.177 5.31141C9.51029 4.86941 8.78529 4.64875 8.00195 4.64941C7.00195 4.64941 6.16862 4.98275 5.50195 5.64941C4.83529 6.31608 4.50195 7.14941 4.50195 8.14941C4.50195 8.73275 4.61862 9.32041 4.85195 9.91241C5.08529 10.5044 5.50195 11.1794 6.10195 11.9374C6.70195 12.6954 7.51862 13.5871 8.55195 14.6124C9.58529 15.6377 10.902 16.8667 12.502 18.2994Z" fill="#636363"/>
</svg>
