<svg width="17" height="16" viewBox="0 0 17 16" fill="none" xmlns="http://www.w3.org/2000/svg">
<path d="M8.86027 13.9994L7.8936 13.1328C6.77138 12.1217 5.8436 11.2494 5.11027 10.5161C4.37694 9.78278 3.7936 9.12434 3.36027 8.54078C2.92694 7.95767 2.62427 7.42167 2.45227 6.93278C2.28027 6.44389 2.19405 5.94389 2.1936 5.43278C2.1936 4.38834 2.5436 3.51611 3.2436 2.81611C3.9436 2.11611 4.81583 1.76611 5.86027 1.76611C6.43805 1.76611 6.98805 1.88834 7.51027 2.13278C8.03249 2.37722 8.48249 2.72167 8.86027 3.16611C9.23805 2.72167 9.68805 2.37722 10.2103 2.13278C10.7325 1.88834 11.2825 1.76611 11.8603 1.76611C12.9047 1.76611 13.7769 2.11611 14.4769 2.81611C15.1769 3.51611 15.5269 4.38834 15.5269 5.43278C15.5269 5.94389 15.4407 6.44389 15.2683 6.93278C15.0958 7.42167 14.7932 7.95767 14.3603 8.54078C13.9269 9.12434 13.3436 9.78278 12.6103 10.5161C11.8769 11.2494 10.9492 12.1217 9.82694 13.1328L8.86027 13.9994ZM8.86027 12.1994C9.92694 11.2439 10.8047 10.4243 11.4936 9.74078C12.1825 9.05722 12.7269 8.463 13.1269 7.95811C13.5269 7.45234 13.8047 7.00211 13.9603 6.60745C14.1158 6.21278 14.1936 5.82122 14.1936 5.43278C14.1936 4.76611 13.9714 4.21056 13.5269 3.76611C13.0825 3.32167 12.5269 3.09945 11.8603 3.09945C11.338 3.09945 10.8547 3.24656 10.4103 3.54078C9.96583 3.835 9.66027 4.21011 9.4936 4.66611H8.22694C8.06027 4.21056 7.75471 3.83545 7.31027 3.54078C6.86583 3.24611 6.38249 3.099 5.86027 3.09945C5.1936 3.09945 4.63805 3.32167 4.1936 3.76611C3.74916 4.21056 3.52694 4.76611 3.52694 5.43278C3.52694 5.82167 3.60471 6.21345 3.76027 6.60811C3.91583 7.00278 4.1936 7.45278 4.5936 7.95811C4.9936 8.46345 5.53805 9.05789 6.22694 9.74145C6.91583 10.425 7.7936 11.2443 8.86027 12.1994Z" fill="black"/>
</svg>
