<svg width="25" height="24" viewBox="0 0 25 24" fill="none" xmlns="http://www.w3.org/2000/svg">
<path d="M12.0596 20.9994L10.6096 19.6994C8.92624 18.1827 7.53457 16.8744 6.43457 15.7744C5.33457 14.6744 4.45957 13.6867 3.80957 12.8114C3.15957 11.9367 2.70557 11.1327 2.44757 10.3994C2.18957 9.66608 2.06024 8.91608 2.05957 8.14941C2.05957 6.58275 2.58457 5.27441 3.63457 4.22441C4.68457 3.17441 5.9929 2.64941 7.55957 2.64941C8.42624 2.64941 9.25124 2.83275 10.0346 3.19941C10.8179 3.56608 11.4929 4.08275 12.0596 4.74941C12.6262 4.08275 13.3012 3.56608 14.0846 3.19941C14.8679 2.83275 15.6929 2.64941 16.5596 2.64941C18.1262 2.64941 19.4346 3.17441 20.4846 4.22441C21.5346 5.27441 22.0596 6.58275 22.0596 8.14941C22.0596 8.91608 21.9302 9.66608 21.6716 10.3994C21.4129 11.1327 20.9589 11.9367 20.3096 12.8114C19.6596 13.6867 18.7846 14.6744 17.6846 15.7744C16.5846 16.8744 15.1929 18.1827 13.5096 19.6994L12.0596 20.9994ZM12.0596 18.2994C13.6596 16.8661 14.9762 15.6367 16.0096 14.6114C17.0429 13.5861 17.8596 12.6947 18.4596 11.9374C19.0596 11.1787 19.4762 10.5034 19.7096 9.91141C19.9429 9.31941 20.0596 8.73208 20.0596 8.14941C20.0596 7.14941 19.7262 6.31608 19.0596 5.64941C18.3929 4.98275 17.5596 4.64941 16.5596 4.64941C15.7762 4.64941 15.0512 4.87008 14.3846 5.31141C13.7179 5.75275 13.2596 6.31541 13.0096 6.99941H11.1096C10.8596 6.31608 10.4012 5.75341 9.73457 5.31141C9.0679 4.86941 8.3429 4.64875 7.55957 4.64941C6.55957 4.64941 5.72624 4.98275 5.05957 5.64941C4.3929 6.31608 4.05957 7.14941 4.05957 8.14941C4.05957 8.73275 4.17624 9.32041 4.40957 9.91241C4.6429 10.5044 5.05957 11.1794 5.65957 11.9374C6.25957 12.6954 7.07624 13.5871 8.10957 14.6124C9.1429 15.6377 10.4596 16.8667 12.0596 18.2994Z" fill="#636363"/>
</svg>
