<svg width="25" height="25" viewBox="0 0 25 25" fill="none" xmlns="http://www.w3.org/2000/svg">
<path d="M12.1201 21.7563L10.6701 20.4563C8.98678 18.9396 7.59512 17.6313 6.49512 16.5312C5.39512 15.4312 4.52012 14.4436 3.87012 13.5683C3.22012 12.6936 2.76612 11.8896 2.50812 11.1562C2.25012 10.4229 2.12078 9.67292 2.12012 8.90625C2.12012 7.33958 2.64512 6.03125 3.69512 4.98125C4.74512 3.93125 6.05345 3.40625 7.62012 3.40625C8.48678 3.40625 9.31178 3.58958 10.0951 3.95625C10.8785 4.32292 11.5535 4.83958 12.1201 5.50625C12.6868 4.83958 13.3618 4.32292 14.1451 3.95625C14.9285 3.58958 15.7535 3.40625 16.6201 3.40625C18.1868 3.40625 19.4951 3.93125 20.5451 4.98125C21.5951 6.03125 22.1201 7.33958 22.1201 8.90625C22.1201 9.67292 21.9908 10.4229 21.7321 11.1562C21.4734 11.8896 21.0195 12.6936 20.3701 13.5683C19.7201 14.4436 18.8451 15.4312 17.7451 16.5312C16.6451 17.6313 15.2535 18.9396 13.5701 20.4563L12.1201 21.7563ZM12.1201 19.0562C13.7201 17.6229 15.0368 16.3936 16.0701 15.3682C17.1035 14.3429 17.9201 13.4516 18.5201 12.6943C19.1201 11.9356 19.5368 11.2602 19.7701 10.6682C20.0035 10.0762 20.1201 9.48892 20.1201 8.90625C20.1201 7.90625 19.7868 7.07292 19.1201 6.40625C18.4535 5.73958 17.6201 5.40625 16.6201 5.40625C15.8368 5.40625 15.1118 5.62692 14.4451 6.06825C13.7785 6.50958 13.3201 7.07225 13.0701 7.75625H11.1701C10.9201 7.07292 10.4618 6.51025 9.79512 6.06825C9.12845 5.62625 8.40345 5.40558 7.62012 5.40625C6.62012 5.40625 5.78678 5.73958 5.12012 6.40625C4.45345 7.07292 4.12012 7.90625 4.12012 8.90625C4.12012 9.48958 4.23678 10.0773 4.47012 10.6693C4.70345 11.2613 5.12012 11.9362 5.72012 12.6943C6.32012 13.4523 7.13678 14.3439 8.17012 15.3692C9.20345 16.3946 10.5201 17.6236 12.1201 19.0562Z" fill="#636363"/>
</svg>
