<svg width="17" height="17" viewBox="0 0 17 17" fill="none" xmlns="http://www.w3.org/2000/svg">
<path d="M8.73119 14.7448L7.75156 13.8788C6.61428 12.8685 5.67406 11.997 4.93089 11.2643C4.18772 10.5316 3.59656 9.87367 3.15741 9.2906C2.71827 8.70796 2.41154 8.1724 2.23723 7.68391C2.06293 7.19543 1.97555 6.69584 1.9751 6.18514C1.9751 5.14156 2.32979 4.27005 3.03918 3.57062C3.74857 2.8712 4.6325 2.52148 5.69095 2.52148C6.27648 2.52148 6.83386 2.64361 7.36308 2.88785C7.89231 3.13209 8.34835 3.47626 8.73119 3.92034C9.11404 3.47626 9.57008 3.13209 10.0993 2.88785C10.6285 2.64361 11.1859 2.52148 11.7714 2.52148C12.8299 2.52148 13.7138 2.8712 14.4232 3.57062C15.1326 4.27005 15.4873 5.14156 15.4873 6.18514C15.4873 6.69584 15.3999 7.19543 15.2252 7.68391C15.0504 8.1724 14.7437 8.70796 14.305 9.2906C13.8658 9.87367 13.2747 10.5316 12.5315 11.2643C11.7883 11.997 10.8481 12.8685 9.71083 13.8788L8.73119 14.7448ZM8.73119 12.9463C9.81217 11.9915 10.7017 11.1726 11.3999 10.4896C12.098 9.80662 12.6497 9.21288 13.0551 8.70841C13.4605 8.20304 13.742 7.75319 13.8996 7.35885C14.0572 6.9645 14.1361 6.57327 14.1361 6.18514C14.1361 5.51902 13.9109 4.96392 13.4605 4.51984C13.0101 4.07576 12.447 3.85372 11.7714 3.85372C11.2422 3.85372 10.7524 4.00071 10.302 4.2947C9.85158 4.58868 9.54192 4.96348 9.37302 5.41911H8.08936C7.92046 4.96392 7.61081 4.58912 7.1604 4.2947C6.70999 4.00027 6.22018 3.85328 5.69095 3.85372C5.01534 3.85372 4.45233 4.07576 4.00193 4.51984C3.55152 4.96392 3.32632 5.51902 3.32632 6.18514C3.32632 6.57371 3.40514 6.96517 3.56278 7.35951C3.72042 7.75386 4.00193 8.20349 4.40729 8.70841C4.81266 9.21332 5.36441 9.80728 6.06254 10.4903C6.76067 11.1733 7.65022 11.9919 8.73119 12.9463Z" fill="black"/>
</svg>
