<svg width="25" height="25" viewBox="0 0 25 25" fill="none" xmlns="http://www.w3.org/2000/svg">
<path d="M12.3267 21.7528L10.8767 20.4528C9.19333 18.9362 7.80166 17.6278 6.70166 16.5278C5.60166 15.4278 4.72666 14.4402 4.07666 13.5648C3.42666 12.6902 2.97266 11.8862 2.71466 11.1528C2.45666 10.4195 2.32733 9.6695 2.32666 8.90283C2.32666 7.33616 2.85166 6.02783 3.90166 4.97783C4.95166 3.92783 6.25999 3.40283 7.82666 3.40283C8.69333 3.40283 9.51833 3.58617 10.3017 3.95283C11.085 4.3195 11.76 4.83617 12.3267 5.50283C12.8933 4.83617 13.5683 4.3195 14.3517 3.95283C15.135 3.58617 15.96 3.40283 16.8267 3.40283C18.3933 3.40283 19.7017 3.92783 20.7517 4.97783C21.8017 6.02783 22.3267 7.33616 22.3267 8.90283C22.3267 9.6695 22.1973 10.4195 21.9387 11.1528C21.68 11.8862 21.226 12.6902 20.5767 13.5648C19.9267 14.4402 19.0517 15.4278 17.9517 16.5278C16.8517 17.6278 15.46 18.9362 13.7767 20.4528L12.3267 21.7528ZM12.3267 19.0528C13.9267 17.6195 15.2433 16.3902 16.2767 15.3648C17.31 14.3395 18.1267 13.4482 18.7267 12.6908C19.3267 11.9322 19.7433 11.2568 19.9767 10.6648C20.21 10.0728 20.3267 9.4855 20.3267 8.90283C20.3267 7.90283 19.9933 7.0695 19.3267 6.40283C18.66 5.73617 17.8267 5.40283 16.8267 5.40283C16.0433 5.40283 15.3183 5.6235 14.6517 6.06483C13.985 6.50617 13.5267 7.06883 13.2767 7.75283H11.3767C11.1267 7.0695 10.6683 6.50683 10.0017 6.06483C9.33499 5.62283 8.60999 5.40217 7.82666 5.40283C6.82666 5.40283 5.99333 5.73617 5.32666 6.40283C4.65999 7.0695 4.32666 7.90283 4.32666 8.90283C4.32666 9.48617 4.44333 10.0738 4.67666 10.6658C4.90999 11.2578 5.32666 11.9328 5.92666 12.6908C6.52666 13.4488 7.34333 14.3405 8.37666 15.3658C9.40999 16.3912 10.7267 17.6202 12.3267 19.0528Z" fill="#636363"/>
</svg>
