<svg width="17" height="17" viewBox="0 0 17 17" fill="none" xmlns="http://www.w3.org/2000/svg">
<path d="M8.76538 14.7419L7.78575 13.8759C6.64847 12.8656 5.70824 11.9941 4.96507 11.2614C4.2219 10.5286 3.63074 9.87074 3.1916 9.28767C2.75245 8.70503 2.44572 8.16947 2.27141 7.68098C2.09711 7.1925 2.00973 6.69291 2.00928 6.18221C2.00928 5.13863 2.36397 4.26712 3.07336 3.56769C3.78275 2.86827 4.66668 2.51855 5.72513 2.51855C6.31066 2.51855 6.86804 2.64068 7.39727 2.88492C7.9265 3.12916 8.38253 3.47333 8.76538 3.91741C9.14823 3.47333 9.60426 3.12916 10.1335 2.88492C10.6627 2.64068 11.2201 2.51855 11.8056 2.51855C12.8641 2.51855 13.748 2.86827 14.4574 3.56769C15.1668 4.26712 15.5215 5.13863 15.5215 6.18221C15.5215 6.69291 15.4341 7.1925 15.2593 7.68098C15.0846 8.16947 14.7779 8.70503 14.3392 9.28767C13.9 9.87074 13.3089 10.5286 12.5657 11.2614C11.8225 11.9941 10.8823 12.8656 9.74501 13.8759L8.76538 14.7419ZM8.76538 12.9433C9.84636 11.9886 10.7359 11.1697 11.434 10.4867C12.1322 9.80369 12.6839 9.20995 13.0893 8.70548C13.4947 8.20011 13.7762 7.75026 13.9338 7.35592C14.0914 6.96157 14.1703 6.57034 14.1703 6.18221C14.1703 5.51609 13.9451 4.96099 13.4947 4.51691C13.0442 4.07283 12.4812 3.85079 11.8056 3.85079C11.2764 3.85079 10.7866 3.99778 10.3362 4.29177C9.88577 4.58575 9.57611 4.96055 9.40721 5.41618H8.12355C7.95465 4.96099 7.64499 4.58619 7.19459 4.29177C6.74418 3.99734 6.25436 3.85035 5.72513 3.85079C5.04952 3.85079 4.48651 4.07283 4.03611 4.51691C3.5857 4.96099 3.3605 5.51609 3.3605 6.18221C3.3605 6.57078 3.43932 6.96224 3.59696 7.35658C3.7546 7.75093 4.03611 8.20056 4.44147 8.70548C4.84684 9.21039 5.39859 9.80435 6.09672 10.4873C6.79485 11.1703 7.6844 11.989 8.76538 12.9433Z" fill="black"/>
</svg>
