<svg width="18" height="17" viewBox="0 0 18 17" fill="none" xmlns="http://www.w3.org/2000/svg">
<path d="M9.00073 14.7419L8.0211 13.8759C6.88382 12.8656 5.94359 11.9941 5.20042 11.2614C4.45725 10.5286 3.86609 9.87074 3.42695 9.28767C2.9878 8.70503 2.68107 8.16947 2.50677 7.68098C2.33246 7.1925 2.24508 6.69291 2.24463 6.18221C2.24463 5.13863 2.59932 4.26712 3.30872 3.56769C4.01811 2.86827 4.90203 2.51855 5.96049 2.51855C6.54601 2.51855 7.10339 2.64068 7.63262 2.88492C8.16185 3.12916 8.61789 3.47333 9.00073 3.91741C9.38358 3.47333 9.83961 3.12916 10.3688 2.88492C10.8981 2.64068 11.4554 2.51855 12.041 2.51855C13.0994 2.51855 13.9834 2.86827 14.6927 3.56769C15.4021 4.26712 15.7568 5.13863 15.7568 6.18221C15.7568 6.69291 15.6695 7.1925 15.4947 7.68098C15.3199 8.16947 15.0132 8.70503 14.5745 9.28767C14.1354 9.87074 13.5442 10.5286 12.801 11.2614C12.0579 11.9941 11.1176 12.8656 9.98037 13.8759L9.00073 14.7419ZM9.00073 12.9433C10.0817 11.9886 10.9713 11.1697 11.6694 10.4867C12.3675 9.80369 12.9193 9.20995 13.3246 8.70548C13.73 8.20011 14.0115 7.75026 14.1691 7.35592C14.3268 6.96157 14.4056 6.57034 14.4056 6.18221C14.4056 5.51609 14.1804 4.96099 13.73 4.51691C13.2796 4.07283 12.7166 3.85079 12.041 3.85079C11.5117 3.85079 11.0219 3.99778 10.5715 4.29177C10.1211 4.58575 9.81146 4.96055 9.64256 5.41618H8.3589C8.19 4.96099 7.88034 4.58619 7.42994 4.29177C6.97953 3.99734 6.48971 3.85035 5.96049 3.85079C5.28487 3.85079 4.72187 4.07283 4.27146 4.51691C3.82105 4.96099 3.59585 5.51609 3.59585 6.18221C3.59585 6.57078 3.67467 6.96224 3.83231 7.35658C3.98996 7.75093 4.27146 8.20056 4.67683 8.70548C5.08219 9.21039 5.63394 9.80435 6.33207 10.4873C7.0302 11.1703 7.91975 11.989 9.00073 12.9433Z" fill="black"/>
</svg>
