<svg width="25" height="25" viewBox="0 0 25 25" fill="none" xmlns="http://www.w3.org/2000/svg">
<path d="M12.6235 21.7533L11.1735 20.4533C9.4902 18.9367 8.09854 17.6283 6.99854 16.5283C5.89854 15.4283 5.02354 14.4407 4.37354 13.5653C3.72354 12.6907 3.26954 11.8867 3.01154 11.1533C2.75354 10.42 2.6242 9.66999 2.62354 8.90332C2.62354 7.33665 3.14854 6.02832 4.19854 4.97832C5.24854 3.92832 6.55687 3.40332 8.12354 3.40332C8.9902 3.40332 9.8152 3.58665 10.5985 3.95332C11.3819 4.31999 12.0569 4.83665 12.6235 5.50332C13.1902 4.83665 13.8652 4.31999 14.6485 3.95332C15.4319 3.58665 16.2569 3.40332 17.1235 3.40332C18.6902 3.40332 19.9985 3.92832 21.0485 4.97832C22.0985 6.02832 22.6235 7.33665 22.6235 8.90332C22.6235 9.66999 22.4942 10.42 22.2355 11.1533C21.9769 11.8867 21.5229 12.6907 20.8735 13.5653C20.2235 14.4407 19.3485 15.4283 18.2485 16.5283C17.1485 17.6283 15.7569 18.9367 14.0735 20.4533L12.6235 21.7533ZM12.6235 19.0533C14.2235 17.62 15.5402 16.3907 16.5735 15.3653C17.6069 14.34 18.4235 13.4487 19.0235 12.6913C19.6235 11.9327 20.0402 11.2573 20.2735 10.6653C20.5069 10.0733 20.6235 9.48599 20.6235 8.90332C20.6235 7.90332 20.2902 7.06999 19.6235 6.40332C18.9569 5.73665 18.1235 5.40332 17.1235 5.40332C16.3402 5.40332 15.6152 5.62399 14.9485 6.06532C14.2819 6.50665 13.8235 7.06932 13.5735 7.75332H11.6735C11.4235 7.06999 10.9652 6.50732 10.2985 6.06532C9.63187 5.62332 8.90687 5.40265 8.12354 5.40332C7.12354 5.40332 6.2902 5.73665 5.62354 6.40332C4.95687 7.06999 4.62354 7.90332 4.62354 8.90332C4.62354 9.48665 4.7402 10.0743 4.97354 10.6663C5.20687 11.2583 5.62354 11.9333 6.22354 12.6913C6.82353 13.4493 7.6402 14.341 8.67354 15.3663C9.70687 16.3917 11.0235 17.6207 12.6235 19.0533Z" fill="#636363"/>
</svg>
