<svg width="25" height="24" viewBox="0 0 25 24" fill="none" xmlns="http://www.w3.org/2000/svg">
<path d="M12.0129 20.9994L10.5629 19.6994C8.87961 18.1827 7.48794 16.8744 6.38794 15.7744C5.28794 14.6744 4.41294 13.6867 3.76294 12.8114C3.11294 11.9367 2.65894 11.1327 2.40094 10.3994C2.14294 9.66608 2.01361 8.91608 2.01294 8.14941C2.01294 6.58275 2.53794 5.27441 3.58794 4.22441C4.63794 3.17441 5.94627 2.64941 7.51294 2.64941C8.37961 2.64941 9.20461 2.83275 9.98794 3.19941C10.7713 3.56608 11.4463 4.08275 12.0129 4.74941C12.5796 4.08275 13.2546 3.56608 14.0379 3.19941C14.8213 2.83275 15.6463 2.64941 16.5129 2.64941C18.0796 2.64941 19.3879 3.17441 20.4379 4.22441C21.4879 5.27441 22.0129 6.58275 22.0129 8.14941C22.0129 8.91608 21.8836 9.66608 21.6249 10.3994C21.3663 11.1327 20.9123 11.9367 20.2629 12.8114C19.6129 13.6867 18.7379 14.6744 17.6379 15.7744C16.5379 16.8744 15.1463 18.1827 13.4629 19.6994L12.0129 20.9994ZM12.0129 18.2994C13.6129 16.8661 14.9296 15.6367 15.9629 14.6114C16.9963 13.5861 17.8129 12.6947 18.4129 11.9374C19.0129 11.1787 19.4296 10.5034 19.6629 9.91141C19.8963 9.31941 20.0129 8.73208 20.0129 8.14941C20.0129 7.14941 19.6796 6.31608 19.0129 5.64941C18.3463 4.98275 17.5129 4.64941 16.5129 4.64941C15.7296 4.64941 15.0046 4.87008 14.3379 5.31141C13.6713 5.75275 13.2129 6.31541 12.9629 6.99941H11.0629C10.8129 6.31608 10.3546 5.75341 9.68794 5.31141C9.02127 4.86941 8.29627 4.64875 7.51294 4.64941C6.51294 4.64941 5.67961 4.98275 5.01294 5.64941C4.34627 6.31608 4.01294 7.14941 4.01294 8.14941C4.01294 8.73275 4.12961 9.32041 4.36294 9.91241C4.59627 10.5044 5.01294 11.1794 5.61294 11.9374C6.21294 12.6954 7.02961 13.5871 8.06294 14.6124C9.09627 15.6377 10.4129 16.8667 12.0129 18.2994Z" fill="#636363"/>
</svg>
