<svg width="17" height="16" viewBox="0 0 17 16" fill="none" xmlns="http://www.w3.org/2000/svg">
<path d="M8.7452 13.9994L7.77437 13.1328C6.64731 12.1217 5.71553 11.2494 4.97904 10.5161C4.24255 9.78278 3.6567 9.12434 3.2215 8.54078C2.7863 7.95767 2.48233 7.42167 2.30959 6.93278C2.13684 6.44389 2.05025 5.94389 2.0498 5.43278C2.0498 4.38834 2.40131 3.51611 3.10433 2.81611C3.80735 2.11611 4.68333 1.76611 5.73227 1.76611C6.31254 1.76611 6.86491 1.88834 7.38938 2.13278C7.91386 2.37722 8.3658 2.72167 8.7452 3.16611C9.12461 2.72167 9.57655 2.37722 10.101 2.13278C10.6255 1.88834 11.1779 1.76611 11.7581 1.76611C12.8071 1.76611 13.6831 2.11611 14.3861 2.81611C15.0891 3.51611 15.4406 4.38834 15.4406 5.43278C15.4406 5.94389 15.354 6.44389 15.1808 6.93278C15.0076 7.42167 14.7037 7.95767 14.2689 8.54078C13.8337 9.12434 13.2479 9.78278 12.5114 10.5161C11.7749 11.2494 10.8431 12.1217 9.71603 13.1328L8.7452 13.9994ZM8.7452 12.1994C9.81647 11.2439 10.698 10.4243 11.3899 9.74078C12.0817 9.05722 12.6285 8.463 13.0303 7.95811C13.432 7.45234 13.711 7.00211 13.8672 6.60745C14.0234 6.21278 14.1015 5.82122 14.1015 5.43278C14.1015 4.76611 13.8783 4.21056 13.432 3.76611C12.9856 3.32167 12.4277 3.09945 11.7581 3.09945C11.2337 3.09945 10.7482 3.24656 10.3019 3.54078C9.85552 3.835 9.54865 4.21011 9.38126 4.66611H8.10914C7.94175 4.21056 7.63488 3.83545 7.18852 3.54078C6.74216 3.24611 6.25675 3.099 5.73227 3.09945C5.06273 3.09945 4.50478 3.32167 4.05842 3.76611C3.61206 4.21056 3.38888 4.76611 3.38888 5.43278C3.38888 5.82167 3.467 6.21345 3.62322 6.60811C3.77945 7.00278 4.05842 7.45278 4.46015 7.95811C4.86187 8.46345 5.40866 9.05789 6.10052 9.74145C6.79238 10.425 7.67394 11.2443 8.7452 12.1994Z" fill="black"/>
</svg>
