<svg width="17" height="16" viewBox="0 0 17 16" fill="none" xmlns="http://www.w3.org/2000/svg">
<path d="M8.31556 13.9994L7.34054 13.1328C6.20863 12.1217 5.27284 11.2494 4.53317 10.5161C3.7935 9.78278 3.20513 9.12434 2.76805 8.54078C2.33098 7.95767 2.0257 7.42167 1.85221 6.93278C1.67872 6.44389 1.59176 5.94389 1.59131 5.43278C1.59131 4.38834 1.94433 3.51611 2.65038 2.81611C3.35642 2.11611 4.23618 1.76611 5.28965 1.76611C5.87241 1.76611 6.42717 1.88834 6.9539 2.13278C7.48063 2.37722 7.93452 2.72167 8.31556 3.16611C8.6966 2.72167 9.15049 2.37722 9.67722 2.13278C10.204 1.88834 10.7587 1.76611 11.3415 1.76611C12.3949 1.76611 13.2747 2.11611 13.9807 2.81611C14.6868 3.51611 15.0398 4.38834 15.0398 5.43278C15.0398 5.94389 14.9528 6.44389 14.7789 6.93278C14.605 7.42167 14.2997 7.95767 13.8631 8.54078C13.426 9.12434 12.8376 9.78278 12.0979 10.5161C11.3583 11.2494 10.4225 12.1217 9.29057 13.1328L8.31556 13.9994ZM8.31556 12.1994C9.39144 11.2439 10.2768 10.4243 10.9716 9.74078C11.6665 9.05722 12.2156 8.463 12.6191 7.95811C13.0225 7.45234 13.3027 7.00211 13.4596 6.60745C13.6165 6.21278 13.695 5.82122 13.695 5.43278C13.695 4.76611 13.4708 4.21056 13.0225 3.76611C12.5743 3.32167 12.0139 3.09945 11.3415 3.09945C10.8147 3.09945 10.3272 3.24656 9.87895 3.54078C9.43066 3.835 9.12247 4.21011 8.95436 4.66611H7.67675C7.50865 4.21056 7.20045 3.83545 6.75217 3.54078C6.30389 3.24611 5.81638 3.099 5.28965 3.09945C4.61722 3.09945 4.05687 3.32167 3.60858 3.76611C3.1603 4.21056 2.93616 4.76611 2.93616 5.43278C2.93616 5.82167 3.01461 6.21345 3.17151 6.60811C3.32841 7.00278 3.60858 7.45278 4.01204 7.95811C4.41549 8.46345 4.96464 9.05789 5.65948 9.74145C6.35432 10.425 7.23968 11.2443 8.31556 12.1994Z" fill="black"/>
</svg>
