<svg width="17" height="16" viewBox="0 0 17 16" fill="none" xmlns="http://www.w3.org/2000/svg">
<path d="M8.50877 13.9994L7.5462 13.1328C6.42874 12.1217 5.50489 11.2494 4.77467 10.5161C4.04444 9.78278 3.46358 9.12434 3.03208 8.54078C2.60059 7.95767 2.2992 7.42167 2.12793 6.93278C1.95666 6.44389 1.8708 5.94389 1.87036 5.43278C1.87036 4.38834 2.21888 3.51611 2.91591 2.81611C3.61294 2.11611 4.48147 1.76611 5.52149 1.76611C6.09682 1.76611 6.64449 1.88834 7.1645 2.13278C7.6845 2.37722 8.1326 2.72167 8.50877 3.16611C8.88495 2.72167 9.33304 2.37722 9.85305 2.13278C10.3731 1.88834 10.9207 1.76611 11.4961 1.76611C12.5361 1.76611 13.4046 2.11611 14.1016 2.81611C14.7987 3.51611 15.1472 4.38834 15.1472 5.43278C15.1472 5.94389 15.0613 6.44389 14.8896 6.93278C14.7179 7.42167 14.4165 7.95767 13.9855 8.54078C13.554 9.12434 12.9731 9.78278 12.2429 10.5161C11.5127 11.2494 10.5888 12.1217 9.47134 13.1328L8.50877 13.9994ZM8.50877 12.1994C9.57092 11.2439 10.445 10.4243 11.1309 9.74078C11.8169 9.05722 12.3591 8.463 12.7574 7.95811C13.1557 7.45234 13.4323 7.00211 13.5872 6.60745C13.7421 6.21278 13.8195 5.82122 13.8195 5.43278C13.8195 4.76611 13.5982 4.21056 13.1557 3.76611C12.7131 3.32167 12.1599 3.09945 11.4961 3.09945C10.9761 3.09945 10.4948 3.24656 10.0522 3.54078C9.60964 3.835 9.30538 4.21011 9.13942 4.66611H7.87812C7.71216 4.21056 7.4079 3.83545 6.96534 3.54078C6.52278 3.24611 6.0415 3.099 5.52149 3.09945C4.85765 3.09945 4.30445 3.32167 3.86189 3.76611C3.41932 4.21056 3.19804 4.76611 3.19804 5.43278C3.19804 5.82167 3.27549 6.21345 3.43039 6.60811C3.58528 7.00278 3.86188 7.45278 4.26019 7.95811C4.65849 8.46345 5.20063 9.05789 5.8866 9.74145C6.57257 10.425 7.44663 11.2443 8.50877 12.1994Z" fill="black"/>
</svg>
