<svg width="25" height="25" viewBox="0 0 25 25" fill="none" xmlns="http://www.w3.org/2000/svg">
<path d="M12.2202 21.7528L10.7702 20.4528C9.08688 18.9362 7.69521 17.6278 6.59521 16.5278C5.49521 15.4278 4.62021 14.4402 3.97021 13.5648C3.32021 12.6902 2.86621 11.8862 2.60821 11.1528C2.35021 10.4195 2.22088 9.6695 2.22021 8.90283C2.22021 7.33616 2.74521 6.02783 3.79521 4.97783C4.84521 3.92783 6.15355 3.40283 7.72021 3.40283C8.58688 3.40283 9.41188 3.58617 10.1952 3.95283C10.9785 4.3195 11.6535 4.83617 12.2202 5.50283C12.7869 4.83617 13.4619 4.3195 14.2452 3.95283C15.0285 3.58617 15.8535 3.40283 16.7202 3.40283C18.2869 3.40283 19.5952 3.92783 20.6452 4.97783C21.6952 6.02783 22.2202 7.33616 22.2202 8.90283C22.2202 9.6695 22.0909 10.4195 21.8322 11.1528C21.5735 11.8862 21.1195 12.6902 20.4702 13.5648C19.8202 14.4402 18.9452 15.4278 17.8452 16.5278C16.7452 17.6278 15.3535 18.9362 13.6702 20.4528L12.2202 21.7528ZM12.2202 19.0528C13.8202 17.6195 15.1369 16.3902 16.1702 15.3648C17.2035 14.3395 18.0202 13.4482 18.6202 12.6908C19.2202 11.9322 19.6369 11.2568 19.8702 10.6648C20.1035 10.0728 20.2202 9.4855 20.2202 8.90283C20.2202 7.90283 19.8869 7.0695 19.2202 6.40283C18.5535 5.73617 17.7202 5.40283 16.7202 5.40283C15.9369 5.40283 15.2119 5.6235 14.5452 6.06483C13.8785 6.50617 13.4202 7.06883 13.1702 7.75283H11.2702C11.0202 7.0695 10.5619 6.50683 9.89522 6.06483C9.22855 5.62283 8.50355 5.40217 7.72021 5.40283C6.72021 5.40283 5.88688 5.73617 5.22021 6.40283C4.55355 7.0695 4.22021 7.90283 4.22021 8.90283C4.22021 9.48617 4.33688 10.0738 4.57021 10.6658C4.80355 11.2578 5.22021 11.9328 5.82021 12.6908C6.42021 13.4488 7.23688 14.3405 8.27022 15.3658C9.30355 16.3912 10.6202 17.6202 12.2202 19.0528Z" fill="#636363"/>
</svg>
