<svg width="25" height="24" viewBox="0 0 25 24" fill="none" xmlns="http://www.w3.org/2000/svg">
<path d="M12.0085 20.9994L10.5585 19.6994C8.87521 18.1827 7.48354 16.8744 6.38354 15.7744C5.28355 14.6744 4.40855 13.6867 3.75854 12.8114C3.10854 11.9367 2.65454 11.1327 2.39654 10.3994C2.13854 9.66608 2.00921 8.91608 2.00854 8.14941C2.00854 6.58275 2.53355 5.27441 3.58354 4.22441C4.63354 3.17441 5.94188 2.64941 7.50854 2.64941C8.37521 2.64941 9.20021 2.83275 9.98355 3.19941C10.7669 3.56608 11.4419 4.08275 12.0085 4.74941C12.5752 4.08275 13.2502 3.56608 14.0335 3.19941C14.8169 2.83275 15.6419 2.64941 16.5085 2.64941C18.0752 2.64941 19.3835 3.17441 20.4335 4.22441C21.4835 5.27441 22.0085 6.58275 22.0085 8.14941C22.0085 8.91608 21.8792 9.66608 21.6205 10.3994C21.3619 11.1327 20.9079 11.9367 20.2585 12.8114C19.6085 13.6867 18.7335 14.6744 17.6335 15.7744C16.5335 16.8744 15.1419 18.1827 13.4585 19.6994L12.0085 20.9994ZM12.0085 18.2994C13.6085 16.8661 14.9252 15.6367 15.9585 14.6114C16.9919 13.5861 17.8085 12.6947 18.4085 11.9374C19.0085 11.1787 19.4252 10.5034 19.6585 9.91141C19.8919 9.31941 20.0085 8.73208 20.0085 8.14941C20.0085 7.14941 19.6752 6.31608 19.0085 5.64941C18.3419 4.98275 17.5085 4.64941 16.5085 4.64941C15.7252 4.64941 15.0002 4.87008 14.3335 5.31141C13.6669 5.75275 13.2085 6.31541 12.9585 6.99941H11.0585C10.8085 6.31608 10.3502 5.75341 9.68355 5.31141C9.01688 4.86941 8.29188 4.64875 7.50854 4.64941C6.50854 4.64941 5.67521 4.98275 5.00854 5.64941C4.34188 6.31608 4.00854 7.14941 4.00854 8.14941C4.00854 8.73275 4.12521 9.32041 4.35854 9.91241C4.59188 10.5044 5.00854 11.1794 5.60854 11.9374C6.20854 12.6954 7.02521 13.5871 8.05855 14.6124C9.09188 15.6377 10.4085 16.8667 12.0085 18.2994Z" fill="#636363"/>
</svg>
