<svg width="17" height="17" viewBox="0 0 17 17" fill="none" xmlns="http://www.w3.org/2000/svg">
<path d="M8.27604 14.3797L7.29627 13.5148C6.15884 12.5056 5.2185 11.6351 4.47523 10.9032C3.73196 10.1713 3.14072 9.51419 2.70152 8.93178C2.26231 8.34981 1.95554 7.81487 1.78121 7.32694C1.60688 6.83901 1.51949 6.33999 1.51904 5.82988C1.51904 4.78749 1.87379 3.91698 2.58327 3.21835C3.29275 2.51972 4.17679 2.17041 5.23539 2.17041C5.82099 2.17041 6.37845 2.29239 6.90774 2.53636C7.43704 2.78032 7.89314 3.12409 8.27604 3.56766C8.65893 3.12409 9.11503 2.78032 9.64433 2.53636C10.1736 2.29239 10.7311 2.17041 11.3167 2.17041C12.3753 2.17041 13.2593 2.51972 13.9688 3.21835C14.6783 3.91698 15.033 4.78749 15.033 5.82988C15.033 6.33999 14.9456 6.83901 14.7709 7.32694C14.5961 7.81487 14.2893 8.34981 13.8506 8.93178C13.4113 9.51419 12.8201 10.1713 12.0768 10.9032C11.3336 11.6351 10.3932 12.5056 9.2558 13.5148L8.27604 14.3797ZM8.27604 12.5833C9.35715 11.6296 10.2468 10.8116 10.945 10.1294C11.6433 9.44721 12.1951 8.85416 12.6005 8.35026C13.0059 7.84547 13.2875 7.39613 13.4451 7.00224C13.6028 6.60835 13.6816 6.21756 13.6816 5.82988C13.6816 5.16452 13.4564 4.61006 13.0059 4.16648C12.5555 3.72291 11.9924 3.50113 11.3167 3.50113C10.7874 3.50113 10.2975 3.64795 9.84704 3.94159C9.39657 4.23524 9.08687 4.60961 8.91795 5.06472H7.63412C7.4652 4.61006 7.1555 4.23568 6.70503 3.94159C6.25457 3.64751 5.76469 3.50068 5.23539 3.50113C4.55969 3.50113 3.99661 3.72291 3.54614 4.16648C3.09567 4.61006 2.87044 5.16452 2.87044 5.82988C2.87044 6.21801 2.94927 6.60901 3.10694 7.00291C3.2646 7.3968 3.54614 7.84592 3.95156 8.35026C4.35698 8.8546 4.9088 9.44788 5.60702 10.1301C6.30525 10.8123 7.19492 11.63 8.27604 12.5833Z" fill="black"/>
</svg>
