<svg width="25" height="25" viewBox="0 0 25 25" fill="none" xmlns="http://www.w3.org/2000/svg">
<path d="M12.1526 21.4071L10.7026 20.1071C9.01925 18.5905 7.62759 17.2821 6.52759 16.1821C5.42759 15.0821 4.55259 14.0945 3.90259 13.2191C3.25259 12.3445 2.79859 11.5405 2.54059 10.8071C2.28259 10.0738 2.15325 9.3238 2.15259 8.55713C2.15259 6.99046 2.67759 5.68213 3.72759 4.63213C4.77759 3.58213 6.08592 3.05713 7.65259 3.05713C8.51925 3.05713 9.34425 3.24046 10.1276 3.60713C10.9109 3.9738 11.5859 4.49046 12.1526 5.15713C12.7193 4.49046 13.3943 3.9738 14.1776 3.60713C14.9609 3.24046 15.7859 3.05713 16.6526 3.05713C18.2193 3.05713 19.5276 3.58213 20.5776 4.63213C21.6276 5.68213 22.1526 6.99046 22.1526 8.55713C22.1526 9.3238 22.0233 10.0738 21.7646 10.8071C21.5059 11.5405 21.0519 12.3445 20.4026 13.2191C19.7526 14.0945 18.8776 15.0821 17.7776 16.1821C16.6776 17.2821 15.2859 18.5905 13.6026 20.1071L12.1526 21.4071ZM12.1526 18.7071C13.7526 17.2738 15.0693 16.0445 16.1026 15.0191C17.1359 13.9938 17.9526 13.1025 18.5526 12.3451C19.1526 11.5865 19.5693 10.9111 19.8026 10.3191C20.0359 9.72713 20.1526 9.1398 20.1526 8.55713C20.1526 7.55713 19.8193 6.7238 19.1526 6.05713C18.4859 5.39046 17.6526 5.05713 16.6526 5.05713C15.8693 5.05713 15.1443 5.2778 14.4776 5.71913C13.8109 6.16046 13.3526 6.72313 13.1026 7.40713H11.2026C10.9526 6.7238 10.4943 6.16113 9.82759 5.71913C9.16092 5.27713 8.43592 5.05646 7.65259 5.05713C6.65259 5.05713 5.81925 5.39046 5.15259 6.05713C4.48592 6.7238 4.15259 7.55713 4.15259 8.55713C4.15259 9.14046 4.26925 9.72813 4.50259 10.3201C4.73592 10.9121 5.15259 11.5871 5.75259 12.3451C6.35259 13.1031 7.16925 13.9948 8.20259 15.0201C9.23592 16.0455 10.5526 17.2745 12.1526 18.7071Z" fill="#636363"/>
</svg>
