<svg width="32" height="33" viewBox="0 0 32 33" fill="none" xmlns="http://www.w3.org/2000/svg">
<rect x="31.5" y="31.9111" width="31" height="31" rx="4.5" transform="rotate(-180 31.5 31.9111)" fill="white"/>
<path d="M9.89845 17.1978H19.9341L15.5497 21.0569C15.1993 21.3653 15.1993 21.8715 15.5497 22.1799C15.6328 22.2532 15.7315 22.3113 15.8402 22.351C15.9489 22.3907 16.0654 22.4111 16.1831 22.4111C16.3008 22.4111 16.4173 22.3907 16.526 22.351C16.6346 22.3113 16.7334 22.2532 16.8165 22.1799L22.7373 16.9685C22.8205 16.8953 22.8866 16.8084 22.9317 16.7128C22.9768 16.6171 23 16.5145 23 16.411C23 16.3074 22.9768 16.2048 22.9317 16.1092C22.8866 16.0135 22.8205 15.9266 22.7373 15.8534L16.8165 10.6421C16.7333 10.5688 16.6346 10.5108 16.5259 10.4711C16.4172 10.4315 16.3007 10.4111 16.1831 10.4111C16.0654 10.4111 15.949 10.4315 15.8403 10.4711C15.7316 10.5108 15.6329 10.5688 15.5497 10.6421C15.4665 10.7153 15.4005 10.8022 15.3555 10.8979C15.3105 10.9935 15.2873 11.096 15.2873 11.1996C15.2873 11.3031 15.3105 11.4056 15.3555 11.5013C15.4005 11.597 15.4665 11.6839 15.5497 11.7571L19.9341 15.6162L9.89845 15.6162C9.4043 15.6162 9 15.9721 9 16.407C9 16.842 9.4043 17.1978 9.89845 17.1978Z" fill="black"/>
<rect x="31.5" y="31.9111" width="31" height="31" rx="4.5" transform="rotate(-180 31.5 31.9111)" stroke="black"/>
</svg>
