<svg width="32" height="32" viewBox="0 0 32 32" fill="none" xmlns="http://www.w3.org/2000/svg">
<rect x="0.5" y="0.5" width="31" height="31" rx="4.5" fill="white"/>
<path d="M22.1016 15.2133H12.0659L16.4503 11.3542C16.8007 11.0458 16.8007 10.5397 16.4503 10.2313C16.3672 10.158 16.2685 10.0998 16.1598 10.0601C16.0511 10.0204 15.9346 10 15.8169 10C15.6992 10 15.5827 10.0204 15.474 10.0601C15.3654 10.0998 15.2666 10.158 15.1835 10.2313L9.26275 15.4427C9.17946 15.5158 9.11338 15.6027 9.06829 15.6984C9.02321 15.794 9 15.8966 9 16.0002C9 16.1037 9.02321 16.2063 9.06829 16.302C9.11338 16.3976 9.17946 16.4845 9.26275 16.5577L15.1835 21.7691C15.2667 21.8423 15.3654 21.9004 15.4741 21.94C15.5828 21.9796 15.6993 22 15.8169 22C15.9346 22 16.051 21.9796 16.1597 21.94C16.2684 21.9004 16.3671 21.8423 16.4503 21.7691C16.5335 21.6959 16.5995 21.6089 16.6445 21.5133C16.6895 21.4176 16.7127 21.3151 16.7127 21.2116C16.7127 21.108 16.6895 21.0055 16.6445 20.9098C16.5995 20.8142 16.5335 20.7273 16.4503 20.654L12.0659 16.7949H22.1016C22.5957 16.7949 23 16.4391 23 16.0041C23 15.5692 22.5957 15.2133 22.1016 15.2133Z" fill="black"/>
<rect x="0.5" y="0.5" width="31" height="31" rx="4.5" stroke="#010507"/>
</svg>
