<svg width="200" height="36" viewBox="0 0 200 36" fill="none" xmlns="http://www.w3.org/2000/svg">
<path fill-rule="evenodd" clip-rule="evenodd" d="M34.5957 11.8905C34.4595 11.6923 34.233 11.5906 34.0045 11.5906H20.9968L27.4832 1.22255C27.6502 0.956297 27.6596 0.591871 27.4568 0.299676C27.3193 0.101217 27.0904 0 26.861 0H15.6597C14.5351 0 13.4842 0.603092 12.8543 1.60988L0.124246 21.9588C-0.0422898 22.2253 -0.0492969 22.5898 0.15134 22.8819C0.287278 23.0799 0.51384 23.1814 0.742506 23.1814H13.7437L7.25654 33.552C7.13976 33.739 7.10402 33.9744 7.15727 34.1988C7.23926 34.5464 7.5471 34.7745 7.87901 34.7745H19.0738C20.2068 34.7745 21.2656 34.1668 21.9 33.1525L28.1361 23.1814L34.6223 12.8134C34.7891 12.5471 34.7961 12.1822 34.5957 11.8905Z" fill="#4E48E0"/>
<path fill-rule="evenodd" clip-rule="evenodd" d="M28.1376 23.1792L21.9001 33.1524C21.2658 34.1669 20.2067 34.7744 19.0739 34.7744H7.87915C7.54725 34.7744 7.2394 34.5465 7.15742 34.1989C7.10417 33.9745 7.1399 33.7391 7.25669 33.5521L13.745 23.1792H28.1376Z" fill="#4E48E0"/>
<path fill-rule="evenodd" clip-rule="evenodd" d="M20.9883 11.5903H34.0045C34.2329 11.5903 34.4595 11.692 34.5956 11.89C34.7963 12.182 34.7888 12.5466 34.6225 12.8131L28.1365 23.1811H13.7383L20.9883 11.5903Z" fill="#1C81C1"/>
<path fill-rule="evenodd" clip-rule="evenodd" d="M0.742447 23.1814C0.514016 23.1814 0.287453 23.0799 0.151515 22.8819C-0.0493555 22.5897 -0.0423483 22.2253 0.124421 21.9591L12.8545 1.60988C13.4842 0.603091 14.5352 0 15.6596 0H26.861C27.0903 0 27.3195 0.10145 27.457 0.299676C27.6595 0.591871 27.6502 0.956297 27.4834 1.22278L13.7451 23.1814H0.742447Z" fill="#5CC4CD"/>
<path fill-rule="evenodd" clip-rule="evenodd" d="M111.925 19.1779H112.26H118.91C119.153 19.1779 119.876 19.1814 119.876 19.1814C119.876 19.1814 119.875 19.1344 119.835 18.9443C119.69 18.2639 119.428 17.6411 118.972 17.1105C117.912 15.8782 116.029 15.4579 114.42 16.1068C113.039 16.6633 112.285 17.7398 111.925 19.1779ZM117.593 21.8822C115.797 21.8822 114 21.8862 112.204 21.8775C111.969 21.8761 111.925 21.9252 111.988 22.1557C112.459 23.8745 113.828 25.0536 115.589 25.245C117.57 25.4603 119.385 24.9629 121.082 23.9621L121.386 23.7833L122.818 26.3254C122.818 26.3254 122.777 26.3483 122.626 26.4491C120.492 27.8764 118.142 28.494 115.585 28.3446C114.444 28.278 113.346 28.0328 112.316 27.5316C110.792 26.7908 109.67 25.6433 108.999 24.0893C108.067 21.9285 108.011 19.7211 108.841 17.5217C109.906 14.6967 112.503 12.9382 115.66 12.8412C117.287 12.7912 118.832 13.0932 120.218 13.9829C122.175 15.2393 123.102 17.1075 123.338 19.3686C123.415 20.1077 123.376 20.8441 123.312 21.583C123.289 21.8511 123.282 21.8869 123.282 21.8869C123.282 21.8869 119.38 21.8822 117.593 21.8822Z" fill="#3A3945"/>
<path fill-rule="evenodd" clip-rule="evenodd" d="M153.178 19.1779H153.513H160.164C160.407 19.1779 161.129 19.1814 161.129 19.1814C161.129 19.1814 161.129 19.1344 161.089 18.9443C160.944 18.2639 160.682 17.6411 160.226 17.1105C159.166 15.8782 157.283 15.4579 155.674 16.1068C154.293 16.6633 153.539 17.7398 153.178 19.1779ZM158.847 21.8822C157.05 21.8822 155.254 21.8862 153.458 21.8775C153.223 21.8761 153.179 21.9252 153.242 22.1557C153.713 23.8745 155.081 25.0536 156.843 25.245C158.824 25.4603 160.639 24.9629 162.336 23.9621L162.639 23.7833L164.071 26.3254C164.071 26.3254 164.031 26.3483 163.879 26.4491C161.745 27.8764 159.396 28.494 156.839 28.3446C155.697 28.278 154.6 28.0328 153.569 27.5316C152.046 26.7908 150.924 25.6433 150.253 24.0893C149.32 21.9285 149.265 19.7211 150.094 17.5217C151.16 14.6967 153.757 12.9382 156.913 12.8412C158.541 12.7912 160.085 13.0932 161.471 13.9829C163.428 15.2393 164.356 17.1075 164.592 19.3686C164.669 20.1077 164.629 20.8441 164.565 21.583C164.542 21.8511 164.535 21.8869 164.535 21.8869C164.535 21.8869 160.634 21.8822 158.847 21.8822Z" fill="#3A3945"/>
<path fill-rule="evenodd" clip-rule="evenodd" d="M142.517 12.8389C144.15 12.8702 145.782 13.4427 147.106 14.7882C147.258 14.9424 147.31 14.9953 147.31 14.9953L145.459 17.2515C145.459 17.2515 145.431 17.2244 145.282 17.0834C144.425 16.2746 143.423 15.783 142.228 15.7372C141.853 15.723 141.488 15.773 141.147 15.9364C140.222 16.3784 140.087 17.464 140.872 18.1206C141.132 18.3378 141.438 18.4673 141.749 18.589C142.868 19.0257 144.006 19.4182 145.083 19.9589C145.87 20.3541 146.577 20.8548 147.073 21.6012C147.998 22.9928 147.844 25.0891 146.73 26.425C145.755 27.5929 144.461 28.1473 142.992 28.3248C140.894 28.5782 138.966 28.1387 137.28 26.8107C136.85 26.4711 136.479 26.0711 136.14 25.6396C136.04 25.5117 136.011 25.4708 136.011 25.4708L138.023 23.3039C138.023 23.3039 138.048 23.3336 138.18 23.4925C138.989 24.4652 140.006 25.101 141.26 25.325C141.976 25.4526 142.682 25.4262 143.34 25.0706C144.005 24.7114 144.295 24.0783 144.089 23.4551C143.976 23.1146 143.734 22.8761 143.446 22.6791C143.06 22.4159 142.626 22.2546 142.198 22.0807C141.282 21.7085 140.347 21.3848 139.454 20.9579C138.265 20.3899 137.371 19.5472 137.042 18.2234C136.519 16.1124 137.61 14.0969 139.687 13.2961C140.528 12.9714 141.4 12.8407 142.517 12.8389Z" fill="#3A3945"/>
<path fill-rule="evenodd" clip-rule="evenodd" d="M83.2325 24.9072C80.8692 24.9072 78.9465 22.9831 78.9465 20.6177C78.9465 18.2526 80.8692 16.3285 83.2325 16.3285C85.5957 16.3285 87.5185 18.2526 87.5185 20.6177C87.5185 22.9831 85.5957 24.9072 83.2325 24.9072ZM87.8994 12.8369L87.5488 14.6326C86.4588 13.5052 84.8287 12.8495 83.2325 12.8495C78.9525 12.8495 75.4705 16.3344 75.4705 20.6177C75.4705 24.9013 78.9525 28.3862 83.2325 28.3862C84.8287 28.3862 86.3864 27.7487 87.5488 26.6033L87.8994 28.3932H91.0251V12.8369H87.8994Z" fill="#3A3945"/>
<path fill-rule="evenodd" clip-rule="evenodd" d="M191.814 24.9068C189.45 24.9068 187.528 22.9827 187.528 20.6173C187.528 18.2522 189.45 16.3281 191.814 16.3281C194.177 16.3281 196.1 18.2522 196.1 20.6173C196.1 22.9827 194.177 24.9068 191.814 24.9068ZM196.13 7.64502V14.6322C195.032 13.6229 193.41 12.8491 191.814 12.8491C187.534 12.8491 184.052 16.334 184.052 20.6173C184.052 24.9009 187.534 28.3858 191.814 28.3858C193.41 28.3858 194.937 27.6515 196.13 26.6027L196.48 28.3928H199.606V7.64502H196.13Z" fill="#3A3945"/>
<path fill-rule="evenodd" clip-rule="evenodd" d="M94.835 28.393H98.3112V13.5684H94.835V28.393Z" fill="#3A3945"/>
<path fill-rule="evenodd" clip-rule="evenodd" d="M174.589 12.8486C173.302 12.8486 171.826 13.6655 171.058 14.6553L170.474 12.8359H167.582V19.6544V28.3922H171.058H171.086V19.6544C171.086 17.8201 172.658 16.3276 174.589 16.3276C176.521 16.3276 178.092 17.8201 178.092 19.6544V28.3922H181.596V19.6544C181.596 15.9019 178.453 12.8486 174.589 12.8486Z" fill="#3A3945"/>
<path fill-rule="evenodd" clip-rule="evenodd" d="M101.933 28.393H105.409V7.64551H101.933V28.393Z" fill="#3A3945"/>
<path fill-rule="evenodd" clip-rule="evenodd" d="M98.8429 9.51823C98.8429 8.26389 97.8264 7.24658 96.5731 7.24658C95.3195 7.24658 94.3032 8.26389 94.3032 9.51823C94.3032 10.7728 95.3195 11.7899 96.5731 11.7899C97.8264 11.7899 98.8429 10.7728 98.8429 9.51823Z" fill="#3A3945"/>
<path fill-rule="evenodd" clip-rule="evenodd" d="M132.718 12.8636C131.559 12.9559 130.505 13.6172 129.594 14.2612L129.243 12.8369H126.117V19.9854C126.086 20.2598 126.068 20.5326 126.068 20.8017V28.295H126.117V28.3932H129.594V28.295H129.643V20.8017C129.643 19.1493 131.053 16.5857 133.001 16.4307C133.484 16.3928 133.943 16.452 134.59 16.6357L135.568 13.1941C134.856 12.9914 133.888 12.771 132.718 12.8636Z" fill="#3A3945"/>
<path fill-rule="evenodd" clip-rule="evenodd" d="M65.9906 12.8428C63.9775 12.8428 62.1666 13.7238 60.9205 15.1196C59.6742 13.7238 57.8633 12.8428 55.8502 12.8428C52.1005 12.8428 49.0498 15.8961 49.0498 19.6486V28.3864H52.526V19.6486C52.526 17.8143 54.0171 16.3218 55.8502 16.3218C57.6833 16.3218 59.1744 17.8143 59.1744 19.6486V28.3864H59.1903H60.9205H62.6506H62.6665V19.6486C62.6665 17.8143 64.1576 16.3218 65.9906 16.3218C67.8237 16.3218 69.3148 17.8143 69.3148 19.6486V28.3864H72.791V19.6486C72.791 15.8961 69.7404 12.8428 65.9906 12.8428Z" fill="#3A3945"/>
</svg>
