<svg width="32" height="32" viewBox="0 0 32 32" fill="none" xmlns="http://www.w3.org/2000/svg">
<path d="M7.98756 29.3332H29.3334V27.0936H7.98756C7.27812 27.0936 6.65214 26.8766 6.10963 26.4425C5.56711 26.0085 5.29586 25.4964 5.29586 24.9061C5.29586 24.2811 5.56711 23.7516 6.10963 23.3175C6.65214 22.8835 7.27812 22.6665 7.98756 22.6665H29.3334V2.6665H6.67301C5.50452 2.6665 4.54468 2.98768 3.79351 3.63005C3.04233 4.27241 2.66675 5.06234 2.66675 5.99984V24.9061C2.66675 26.1214 3.1884 27.163 4.23169 28.0311C5.27499 28.8991 6.52695 29.3332 7.98756 29.3332ZM5.29586 5.99984C5.29586 5.27067 5.75491 4.90609 6.67301 4.90609H26.7043V20.4269H7.98756C7.19466 20.4269 6.29742 20.6179 5.29586 20.9998V5.99984ZM6.67301 24.9061C6.67301 25.6353 7.11119 25.9998 7.98756 25.9998H29.3334V23.7603H7.98756C7.11119 23.7603 6.67301 24.1422 6.67301 24.9061ZM24.0126 7.09359H9.30212V13.7603H24.0126V7.09359ZM21.3209 11.5728H11.9938V9.33317H21.3209V11.5728Z" fill="#3A3945"/>
</svg>
