<svg width="32" height="32" viewBox="0 0 32 32" fill="none" xmlns="http://www.w3.org/2000/svg">
<path d="M7.9974 2.6665C9.69847 2.66589 11.3674 3.13025 12.8236 4.00938C14.2799 4.88851 15.4682 6.14897 16.2601 7.6545C17.0602 6.52402 18.12 5.60208 19.3503 4.96613C20.5807 4.33019 21.9457 3.99881 23.3307 3.99984H27.9974V7.33317C27.9974 9.63171 27.0843 11.8361 25.459 13.4614C23.8337 15.0867 21.6293 15.9998 19.3307 15.9998H17.3307V17.3332H23.9974V26.6665C23.9974 27.3737 23.7164 28.052 23.2163 28.5521C22.7163 29.0522 22.038 29.3332 21.3307 29.3332H10.6641C9.95682 29.3332 9.27854 29.0522 8.77844 28.5521C8.27835 28.052 7.9974 27.3737 7.9974 26.6665V17.3332H14.6641V14.6665H11.9974C9.52204 14.6665 7.14807 13.6832 5.39773 11.9328C3.64739 10.1825 2.66406 7.80852 2.66406 5.33317V2.6665H7.9974ZM21.3307 19.9998H10.6641V26.6665H21.3307V19.9998ZM25.3307 6.6665H23.3307C21.7394 6.6665 20.2133 7.29865 19.0881 8.42386C17.9629 9.54908 17.3307 11.0752 17.3307 12.6665V13.3332H19.3307C20.1187 13.3332 20.8989 13.178 21.6268 12.8764C22.3548 12.5749 23.0162 12.133 23.5734 11.5758C24.1305 11.0187 24.5725 10.3572 24.874 9.62927C25.1755 8.90132 25.3307 8.1211 25.3307 7.33317V6.6665ZM7.9974 5.33317H5.33073C5.33073 7.10128 6.03311 8.79697 7.28335 10.0472C8.53359 11.2975 10.2293 11.9998 11.9974 11.9998H14.6641C14.6641 10.2317 13.9617 8.53604 12.7114 7.28579C11.4612 6.03555 9.76551 5.33317 7.9974 5.33317Z" fill="#3A3945"/>
</svg>
