<svg width="85" height="19" viewBox="0 0 85 19" fill="none" xmlns="http://www.w3.org/2000/svg">
<path d="M10.1235 14.5835L6.91998 16.4671C6.77847 16.555 6.63051 16.5927 6.47613 16.5801C6.32175 16.5675 6.18666 16.5173 6.07087 16.4294C5.95508 16.3415 5.86503 16.2315 5.8007 16.0994C5.73637 15.9673 5.72351 15.8199 5.7621 15.6571L6.61122 12.0971L3.77441 9.70489C3.64575 9.59187 3.56547 9.46303 3.53357 9.31837C3.50166 9.17371 3.51118 9.03256 3.56213 8.89493C3.61359 8.7568 3.69078 8.64378 3.7937 8.55588C3.89663 8.46798 4.03815 8.41147 4.21826 8.38635L7.96208 8.06614L9.40943 4.7133C9.47376 4.56261 9.57359 4.44959 9.70893 4.37425C9.84428 4.2989 9.98245 4.26123 10.1235 4.26123C10.265 4.26123 10.4031 4.2989 10.538 4.37425C10.6728 4.44959 10.7726 4.56261 10.8375 4.7133L12.2848 8.06614L16.0286 8.38635C16.2088 8.41147 16.3503 8.46798 16.4532 8.55588C16.5561 8.64378 16.6333 8.7568 16.6848 8.89493C16.7362 9.03306 16.746 9.17446 16.7141 9.31912C16.6822 9.46378 16.6017 9.59237 16.4725 9.70489L13.6357 12.0971L14.4848 15.6571C14.5234 15.8204 14.5105 15.968 14.4462 16.1001C14.3819 16.2323 14.2918 16.342 14.176 16.4294C14.0603 16.5173 13.9252 16.5675 13.7708 16.5801C13.6164 16.5927 13.4684 16.555 13.3269 16.4671L10.1235 14.5835Z" fill="#F9C510"/>
<path d="M26.1029 14.5835L22.8995 16.4671C22.758 16.555 22.61 16.5927 22.4556 16.5801C22.3012 16.5675 22.1662 16.5173 22.0504 16.4294C21.9346 16.3415 21.8445 16.2315 21.7802 16.0994C21.7159 15.9673 21.703 15.8199 21.7416 15.6571L22.5907 12.0971L19.7539 9.70489C19.6252 9.59187 19.545 9.46303 19.5131 9.31837C19.4812 9.17371 19.4907 9.03256 19.5416 8.89493C19.5931 8.7568 19.6703 8.64378 19.7732 8.55588C19.8761 8.46798 20.0176 8.41147 20.1978 8.38635L23.9416 8.06614L25.3889 4.7133C25.4532 4.56261 25.5531 4.44959 25.6884 4.37425C25.8238 4.2989 25.9619 4.26123 26.1029 4.26123C26.2445 4.26123 26.3826 4.2989 26.5175 4.37425C26.6523 4.44959 26.7521 4.56261 26.817 4.7133L28.2643 8.06614L32.0081 8.38635C32.1883 8.41147 32.3298 8.46798 32.4327 8.55588C32.5356 8.64378 32.6128 8.7568 32.6643 8.89493C32.7157 9.03306 32.7255 9.17446 32.6936 9.31912C32.6617 9.46378 32.5812 9.59237 32.452 9.70489L29.6152 12.0971L30.4643 15.6571C30.5029 15.8204 30.49 15.968 30.4257 16.1001C30.3614 16.2323 30.2713 16.342 30.1555 16.4294C30.0397 16.5173 29.9047 16.5675 29.7503 16.5801C29.5959 16.5927 29.4479 16.555 29.3064 16.4671L26.1029 14.5835Z" fill="#F9C510"/>
<path d="M43.1093 14.5835L39.9058 16.4671C39.7643 16.555 39.6164 16.5927 39.462 16.5801C39.3076 16.5675 39.1725 16.5173 39.0567 16.4294C38.9409 16.3415 38.8509 16.2315 38.7865 16.0994C38.7222 15.9673 38.7093 15.8199 38.7479 15.6571L39.5971 12.0971L36.7602 9.70489C36.6316 9.59187 36.5513 9.46303 36.5194 9.31837C36.4875 9.17371 36.497 9.03256 36.548 8.89493C36.5994 8.7568 36.6766 8.64378 36.7795 8.55588C36.8825 8.46798 37.024 8.41147 37.2041 8.38635L40.9479 8.06614L42.3953 4.7133C42.4596 4.56261 42.5594 4.44959 42.6948 4.37425C42.8301 4.2989 42.9683 4.26123 43.1093 4.26123C43.2508 4.26123 43.389 4.2989 43.5238 4.37425C43.6586 4.44959 43.7585 4.56261 43.8233 4.7133L45.2707 8.06614L49.0145 8.38635C49.1946 8.41147 49.3361 8.46798 49.439 8.55588C49.542 8.64378 49.6192 8.7568 49.6706 8.89493C49.7221 9.03306 49.7319 9.17446 49.7 9.31912C49.668 9.46378 49.5875 9.59237 49.4583 9.70489L46.6215 12.0971L47.4706 15.6571C47.5092 15.8204 47.4964 15.968 47.4321 16.1001C47.3677 16.2323 47.2777 16.342 47.1619 16.4294C47.0461 16.5173 46.911 16.5675 46.7566 16.5801C46.6022 16.5927 46.4543 16.555 46.3128 16.4671L43.1093 14.5835Z" fill="#F9C510"/>
<path d="M59.601 14.5835L56.3975 16.4671C56.256 16.555 56.1081 16.5927 55.9537 16.5801C55.7993 16.5675 55.6642 16.5173 55.5484 16.4294C55.4326 16.3415 55.3426 16.2315 55.2782 16.0994C55.2139 15.9673 55.201 15.8199 55.2396 15.6571L56.0888 12.0971L53.2519 9.70489C53.1233 9.59187 53.043 9.46303 53.0111 9.31837C52.9792 9.17371 52.9887 9.03256 53.0397 8.89493C53.0911 8.7568 53.1683 8.64378 53.2712 8.55588C53.3742 8.46798 53.5157 8.41147 53.6958 8.38635L57.4396 8.06614L58.887 4.7133C58.9513 4.56261 59.0511 4.44959 59.1865 4.37425C59.3218 4.2989 59.46 4.26123 59.601 4.26123C59.7425 4.26123 59.8807 4.2989 60.0155 4.37425C60.1503 4.44959 60.2502 4.56261 60.315 4.7133L61.7624 8.06614L65.5062 8.38635C65.6863 8.41147 65.8278 8.46798 65.9307 8.55588C66.0337 8.64378 66.1109 8.7568 66.1623 8.89493C66.2138 9.03306 66.2236 9.17446 66.1917 9.31912C66.1597 9.46378 66.0792 9.59237 65.95 9.70489L63.1132 12.0971L63.9623 15.6571C64.0009 15.8204 63.9881 15.968 63.9238 16.1001C63.8594 16.2323 63.7694 16.342 63.6536 16.4294C63.5378 16.5173 63.4027 16.5675 63.2483 16.5801C63.0939 16.5927 62.946 16.555 62.8045 16.4671L59.601 14.5835Z" fill="#F9C510"/>
<path d="M75.1762 14.5835L71.9727 16.4671C71.8312 16.555 71.6832 16.5927 71.5289 16.5801C71.3745 16.5675 71.2394 16.5173 71.1236 16.4294C71.0078 16.3415 70.9178 16.2315 70.8534 16.0994C70.7891 15.9673 70.7762 15.8199 70.8148 15.6571L71.6639 12.0971L68.8271 9.70489C68.6985 9.59187 68.6182 9.46303 68.5863 9.31837C68.5544 9.17371 68.5639 9.03256 68.6149 8.89493C68.6663 8.7568 68.7435 8.64378 68.8464 8.55588C68.9494 8.46798 69.0909 8.41147 69.271 8.38635L73.0148 8.06614L74.4622 4.7133C74.5265 4.56261 74.6263 4.44959 74.7617 4.37425C74.897 4.2989 75.0352 4.26123 75.1762 4.26123C75.3177 4.26123 75.4559 4.2989 75.5907 4.37425C75.7255 4.44959 75.8254 4.56261 75.8902 4.7133L77.3376 8.06614L81.0814 8.38635C81.2615 8.41147 81.403 8.46798 81.5059 8.55588C81.6089 8.64378 81.6861 8.7568 81.7375 8.89493C81.789 9.03306 81.7988 9.17446 81.7668 9.31912C81.7349 9.46378 81.6544 9.59237 81.5252 9.70489L78.6884 12.0971L79.5375 15.6571C79.5761 15.8204 79.5633 15.968 79.4989 16.1001C79.4346 16.2323 79.3446 16.342 79.2288 16.4294C79.113 16.5173 78.9779 16.5675 78.8235 16.5801C78.6691 16.5927 78.5212 16.555 78.3797 16.4671L75.1762 14.5835Z" fill="#F9C510"/>
</svg>
