<svg width="84" height="19" viewBox="0 0 84 19" fill="none" xmlns="http://www.w3.org/2000/svg">
<path d="M9.58031 14.5835L6.39042 16.4671C6.2495 16.555 6.10217 16.5927 5.94844 16.5801C5.79471 16.5675 5.6602 16.5173 5.5449 16.4294C5.42961 16.3415 5.33993 16.2315 5.27588 16.0994C5.21182 15.9673 5.19901 15.8199 5.23744 15.6571L6.08296 12.0971L3.25817 9.70489C3.13006 9.59187 3.05012 9.46303 3.01835 9.31837C2.98658 9.17371 2.99606 9.03256 3.04679 8.89493C3.09804 8.7568 3.1749 8.64378 3.27739 8.55588C3.37987 8.46798 3.52079 8.41147 3.70014 8.38635L7.42809 8.06614L8.86931 4.7133C8.93337 4.56261 9.03278 4.44959 9.16755 4.37425C9.30232 4.2989 9.43991 4.26123 9.58031 4.26123C9.72123 4.26123 9.85882 4.2989 9.99308 4.37425C10.1273 4.44959 10.2267 4.56261 10.2913 4.7133L11.7325 8.06614L15.4605 8.38635C15.6398 8.41147 15.7808 8.46798 15.8832 8.55588C15.9857 8.64378 16.0626 8.7568 16.1138 8.89493C16.1651 9.03306 16.1748 9.17446 16.143 9.31912C16.1113 9.46378 16.0311 9.59237 15.9025 9.70489L13.0777 12.0971L13.9232 15.6571C13.9616 15.8204 13.9488 15.968 13.8847 16.1001C13.8207 16.2323 13.731 16.342 13.6157 16.4294C13.5004 16.5173 13.3659 16.5675 13.2122 16.5801C13.0585 16.5927 12.9111 16.555 12.7702 16.4671L9.58031 14.5835Z" fill="#F9C510"/>
<path d="M25.4922 14.5835L22.3023 16.4671C22.1614 16.555 22.014 16.5927 21.8603 16.5801C21.7066 16.5675 21.5721 16.5173 21.4568 16.4294C21.3415 16.3415 21.2518 16.2315 21.1877 16.0994C21.1237 15.9673 21.1109 15.8199 21.1493 15.6571L21.9948 12.0971L19.17 9.70489C19.0419 9.59187 18.962 9.46303 18.9302 9.31837C18.8984 9.17371 18.9079 9.03256 18.9587 8.89493C19.0099 8.7568 19.0868 8.64378 19.1893 8.55588C19.2917 8.46798 19.4327 8.41147 19.612 8.38635L23.34 8.06614L24.7812 4.7133C24.8452 4.56261 24.9446 4.44959 25.0794 4.37425C25.2142 4.2989 25.3518 4.26123 25.4922 4.26123C25.6331 4.26123 25.7707 4.2989 25.9049 4.37425C26.0392 4.44959 26.1386 4.56261 26.2032 4.7133L27.6444 8.06614L31.3723 8.38635C31.5517 8.41147 31.6926 8.46798 31.7951 8.55588C31.8976 8.64378 31.9745 8.7568 32.0257 8.89493C32.0769 9.03306 32.0867 9.17446 32.0549 9.31912C32.0231 9.46378 31.9429 9.59237 31.8143 9.70489L28.9895 12.0971L29.835 15.6571C29.8735 15.8204 29.8607 15.968 29.7966 16.1001C29.7326 16.2323 29.6429 16.342 29.5276 16.4294C29.4123 16.5173 29.2778 16.5675 29.124 16.5801C28.9703 16.5927 28.823 16.555 28.6821 16.4671L25.4922 14.5835Z" fill="#F9C510"/>
<path d="M42.4263 14.5835L39.2364 16.4671C39.0954 16.555 38.9481 16.5927 38.7944 16.5801C38.6407 16.5675 38.5061 16.5173 38.3909 16.4294C38.2756 16.3415 38.1859 16.2315 38.1218 16.0994C38.0578 15.9673 38.045 15.8199 38.0834 15.6571L38.9289 12.0971L36.1041 9.70489C35.976 9.59187 35.8961 9.46303 35.8643 9.31837C35.8325 9.17371 35.842 9.03256 35.8927 8.89493C35.944 8.7568 36.0208 8.64378 36.1233 8.55588C36.2258 8.46798 36.3667 8.41147 36.5461 8.38635L40.274 8.06614L41.7153 4.7133C41.7793 4.56261 41.8787 4.44959 42.0135 4.37425C42.1483 4.2989 42.2859 4.26123 42.4263 4.26123C42.5672 4.26123 42.7048 4.2989 42.839 4.37425C42.9733 4.44959 43.0727 4.56261 43.1373 4.7133L44.5785 8.06614L48.3064 8.38635C48.4858 8.41147 48.6267 8.46798 48.7292 8.55588C48.8317 8.64378 48.9085 8.7568 48.9598 8.89493C49.011 9.03306 49.0208 9.17446 48.989 9.31912C48.9572 9.46378 48.877 9.59237 48.7484 9.70489L45.9236 12.0971L46.7691 15.6571C46.8076 15.8204 46.7948 15.968 46.7307 16.1001C46.6666 16.2323 46.577 16.342 46.4617 16.4294C46.3464 16.5173 46.2119 16.5675 46.0581 16.5801C45.9044 16.5927 45.7571 16.555 45.6162 16.4671L42.4263 14.5835Z" fill="#F9C510"/>
<path d="M58.8481 14.5835L55.6582 16.4671C55.5173 16.555 55.37 16.5927 55.2163 16.5801C55.0625 16.5675 54.928 16.5173 54.8127 16.4294C54.6974 16.3415 54.6078 16.2315 54.5437 16.0994C54.4796 15.9673 54.4668 15.8199 54.5053 15.6571L55.3508 12.0971L52.526 9.70489C52.3979 9.59187 52.3179 9.46303 52.2862 9.31837C52.2544 9.17371 52.2639 9.03256 52.3146 8.89493C52.3659 8.7568 52.4427 8.64378 52.5452 8.55588C52.6477 8.46798 52.7886 8.41147 52.968 8.38635L56.6959 8.06614L58.1371 4.7133C58.2012 4.56261 58.3006 4.44959 58.4354 4.37425C58.5701 4.2989 58.7077 4.26123 58.8481 4.26123C58.9891 4.26123 59.1266 4.2989 59.2609 4.37425C59.3952 4.44959 59.4946 4.56261 59.5591 4.7133L61.0004 8.06614L64.7283 8.38635C64.9077 8.41147 65.0486 8.46798 65.1511 8.55588C65.2535 8.64378 65.3304 8.7568 65.3817 8.89493C65.4329 9.03306 65.4426 9.17446 65.4109 9.31912C65.3791 9.46378 65.2989 9.59237 65.1703 9.70489L62.3455 12.0971L63.191 15.6571C63.2294 15.8204 63.2166 15.968 63.1526 16.1001C63.0885 16.2323 62.9988 16.342 62.8835 16.4294C62.7682 16.5173 62.6337 16.5675 62.48 16.5801C62.3263 16.5927 62.1789 16.555 62.038 16.4671L58.8481 14.5835Z" fill="#F9C510"/>
<path d="M74.3574 14.5835L71.1675 16.4671C71.0266 16.555 70.8793 16.5927 70.7255 16.5801C70.5718 16.5675 70.4373 16.5173 70.322 16.4294C70.2067 16.3415 70.117 16.2315 70.053 16.0994C69.9889 15.9673 69.9761 15.8199 70.0145 15.6571L70.8601 12.0971L68.0353 9.70489C67.9072 9.59187 67.8272 9.46303 67.7955 9.31837C67.7637 9.17371 67.7732 9.03256 67.8239 8.89493C67.8751 8.7568 67.952 8.64378 68.0545 8.55588C68.157 8.46798 68.2979 8.41147 68.4772 8.38635L72.2052 8.06614L73.6464 4.7133C73.7105 4.56261 73.8099 4.44959 73.9446 4.37425C74.0794 4.2989 74.217 4.26123 74.3574 4.26123C74.4983 4.26123 74.6359 4.2989 74.7702 4.37425C74.9044 4.44959 75.0038 4.56261 75.0684 4.7133L76.5096 8.06614L80.2376 8.38635C80.4169 8.41147 80.5578 8.46798 80.6603 8.55588C80.7628 8.64378 80.8397 8.7568 80.8909 8.89493C80.9422 9.03306 80.9519 9.17446 80.9201 9.31912C80.8884 9.46378 80.8082 9.59237 80.6796 9.70489L77.8548 12.0971L78.7003 15.6571C78.7387 15.8204 78.7259 15.968 78.6618 16.1001C78.5978 16.2323 78.5081 16.342 78.3928 16.4294C78.2775 16.5173 78.143 16.5675 77.9893 16.5801C77.8356 16.5927 77.6882 16.555 77.5473 16.4671L74.3574 14.5835Z" fill="#F9C510"/>
</svg>
