<svg width="84" height="19" viewBox="0 0 84 19" fill="none" xmlns="http://www.w3.org/2000/svg">
<path d="M9.93106 14.5835L6.73907 16.4671C6.59806 16.555 6.45064 16.5927 6.29681 16.5801C6.14298 16.5675 6.00838 16.5173 5.893 16.4294C5.77763 16.3415 5.6879 16.2315 5.6238 16.0994C5.55971 15.9673 5.54689 15.8199 5.58534 15.6571L6.43141 12.0971L3.60478 9.70489C3.47658 9.59187 3.39659 9.46303 3.3648 9.31837C3.33301 9.17371 3.34249 9.03256 3.39326 8.89493C3.44454 8.7568 3.52145 8.64378 3.624 8.55588C3.72656 8.46798 3.86757 8.41147 4.04704 8.38635L7.77743 8.06614L9.21959 4.7133C9.28369 4.56261 9.38316 4.44959 9.51802 4.37425C9.65288 4.2989 9.79056 4.26123 9.93106 4.26123C10.0721 4.26123 10.2097 4.2989 10.3441 4.37425C10.4784 4.44959 10.5779 4.56261 10.6425 4.7133L12.0847 8.06614L15.8151 8.38635C15.9945 8.41147 16.1356 8.46798 16.2381 8.55588C16.3407 8.64378 16.4176 8.7568 16.4689 8.89493C16.5201 9.03306 16.5299 9.17446 16.4981 9.31912C16.4663 9.46378 16.386 9.59237 16.2573 9.70489L13.4307 12.0971L14.2768 15.6571C14.3152 15.8204 14.3024 15.968 14.2383 16.1001C14.1742 16.2323 14.0845 16.342 13.9691 16.4294C13.8537 16.5173 13.7191 16.5675 13.5653 16.5801C13.4115 16.5927 13.2641 16.555 13.123 16.4671L9.93106 14.5835Z" fill="#F9C510"/>
<path d="M25.8532 14.5835L22.6612 16.4671C22.5202 16.555 22.3728 16.5927 22.2189 16.5801C22.0651 16.5675 21.9305 16.5173 21.8151 16.4294C21.6998 16.3415 21.61 16.2315 21.5459 16.0994C21.4818 15.9673 21.469 15.8199 21.5075 15.6571L22.3535 12.0971L19.5269 9.70489C19.3987 9.59187 19.3187 9.46303 19.2869 9.31837C19.2551 9.17371 19.2646 9.03256 19.3154 8.89493C19.3667 8.7568 19.4436 8.64378 19.5461 8.55588C19.6487 8.46798 19.7897 8.41147 19.9692 8.38635L23.6995 8.06614L25.1417 4.7133C25.2058 4.56261 25.3053 4.44959 25.4401 4.37425C25.575 4.2989 25.7127 4.26123 25.8532 4.26123C25.9942 4.26123 26.1319 4.2989 26.2662 4.37425C26.4006 4.44959 26.5 4.56261 26.5646 4.7133L28.0068 8.06614L31.7372 8.38635C31.9167 8.41147 32.0577 8.46798 32.1602 8.55588C32.2628 8.64378 32.3397 8.7568 32.391 8.89493C32.4423 9.03306 32.452 9.17446 32.4202 9.31912C32.3884 9.46378 32.3082 9.59237 32.1795 9.70489L29.3528 12.0971L30.1989 15.6571C30.2373 15.8204 30.2245 15.968 30.1604 16.1001C30.0963 16.2323 30.0066 16.342 29.8912 16.4294C29.7759 16.5173 29.6413 16.5675 29.4874 16.5801C29.3336 16.5927 29.1862 16.555 29.0452 16.4671L25.8532 14.5835Z" fill="#F9C510"/>
<path d="M42.7987 14.5835L39.6067 16.4671C39.4657 16.555 39.3183 16.5927 39.1645 16.5801C39.0107 16.5675 38.8761 16.5173 38.7607 16.4294C38.6453 16.3415 38.5556 16.2315 38.4915 16.0994C38.4274 15.9673 38.4146 15.8199 38.453 15.6571L39.2991 12.0971L36.4725 9.70489C36.3443 9.59187 36.2643 9.46303 36.2325 9.31837C36.2007 9.17371 36.2102 9.03256 36.2609 8.89493C36.3122 8.7568 36.3891 8.64378 36.4917 8.55588C36.5942 8.46798 36.7352 8.41147 36.9147 8.38635L40.6451 8.06614L42.0873 4.7133C42.1514 4.56261 42.2508 4.44959 42.3857 4.37425C42.5206 4.2989 42.6582 4.26123 42.7987 4.26123C42.9397 4.26123 43.0774 4.2989 43.2118 4.37425C43.3461 4.44959 43.4456 4.56261 43.5102 4.7133L44.9524 8.06614L48.6828 8.38635C48.8622 8.41147 49.0032 8.46798 49.1058 8.55588C49.2083 8.64378 49.2853 8.7568 49.3365 8.89493C49.3878 9.03306 49.3976 9.17446 49.3658 9.31912C49.334 9.46378 49.2537 9.59237 49.125 9.70489L46.2984 12.0971L47.1444 15.6571C47.1829 15.8204 47.1701 15.968 47.106 16.1001C47.0419 16.2323 46.9522 16.342 46.8368 16.4294C46.7214 16.5173 46.5868 16.5675 46.433 16.5801C46.2792 16.5927 46.1317 16.555 45.9907 16.4671L42.7987 14.5835Z" fill="#F9C510"/>
<path d="M59.2311 14.5835L56.0391 16.4671C55.8981 16.555 55.7507 16.5927 55.5969 16.5801C55.443 16.5675 55.3084 16.5173 55.1931 16.4294C55.0777 16.3415 54.9879 16.2315 54.9239 16.0994C54.8598 15.9673 54.8469 15.8199 54.8854 15.6571L55.7315 12.0971L52.9048 9.70489C52.7766 9.59187 52.6966 9.46303 52.6648 9.31837C52.6331 9.17371 52.6425 9.03256 52.6933 8.89493C52.7446 8.7568 52.8215 8.64378 52.9241 8.55588C53.0266 8.46798 53.1676 8.41147 53.3471 8.38635L57.0775 8.06614L58.5196 4.7133C58.5837 4.56261 58.6832 4.44959 58.8181 4.37425C58.9529 4.2989 59.0906 4.26123 59.2311 4.26123C59.3721 4.26123 59.5098 4.2989 59.6441 4.37425C59.7785 4.44959 59.878 4.56261 59.9426 4.7133L61.3847 8.06614L65.1151 8.38635C65.2946 8.41147 65.4356 8.46798 65.5382 8.55588C65.6407 8.64378 65.7176 8.7568 65.7689 8.89493C65.8202 9.03306 65.8299 9.17446 65.7981 9.31912C65.7663 9.46378 65.6861 9.59237 65.5574 9.70489L62.7308 12.0971L63.5768 15.6571C63.6153 15.8204 63.6025 15.968 63.5384 16.1001C63.4743 16.2323 63.3845 16.342 63.2692 16.4294C63.1538 16.5173 63.0192 16.5675 62.8654 16.5801C62.7115 16.5927 62.5641 16.555 62.4231 16.4671L59.2311 14.5835Z" fill="#F9C510"/>
<path d="M74.7506 14.5835L71.5587 16.4671C71.4176 16.555 71.2702 16.5927 71.1164 16.5801C70.9626 16.5675 70.828 16.5173 70.7126 16.4294C70.5972 16.3415 70.5075 16.2315 70.4434 16.0994C70.3793 15.9673 70.3665 15.8199 70.4049 15.6571L71.251 12.0971L68.4244 9.70489C68.2962 9.59187 68.2162 9.46303 68.1844 9.31837C68.1526 9.17371 68.1621 9.03256 68.2128 8.89493C68.2641 8.7568 68.341 8.64378 68.4436 8.55588C68.5461 8.46798 68.6871 8.41147 68.8666 8.38635L72.597 8.06614L74.0392 4.7133C74.1033 4.56261 74.2027 4.44959 74.3376 4.37425C74.4725 4.2989 74.6101 4.26123 74.7506 4.26123C74.8916 4.26123 75.0293 4.2989 75.1637 4.37425C75.298 4.44959 75.3975 4.56261 75.4621 4.7133L76.9043 8.06614L80.6347 8.38635C80.8141 8.41147 80.9551 8.46798 81.0577 8.55588C81.1602 8.64378 81.2372 8.7568 81.2884 8.89493C81.3397 9.03306 81.3495 9.17446 81.3177 9.31912C81.2859 9.46378 81.2056 9.59237 81.0769 9.70489L78.2503 12.0971L79.0964 15.6571C79.1348 15.8204 79.122 15.968 79.0579 16.1001C78.9938 16.2323 78.9041 16.342 78.7887 16.4294C78.6733 16.5173 78.5387 16.5675 78.3849 16.5801C78.2311 16.5927 78.0836 16.555 77.9426 16.4671L74.7506 14.5835Z" fill="#F9C510"/>
</svg>
