<svg width="85" height="19" viewBox="0 0 85 19" fill="none" xmlns="http://www.w3.org/2000/svg">
<path d="M9.92722 14.4822L6.69721 16.3643C6.55452 16.4521 6.40534 16.4898 6.24968 16.4772C6.09402 16.4647 5.95781 16.4145 5.84107 16.3267C5.72432 16.2388 5.63351 16.1289 5.56865 15.9969C5.5038 15.8649 5.49082 15.7176 5.52974 15.555L6.38589 11.9979L3.52558 9.60766C3.39586 9.49473 3.31491 9.366 3.28274 9.22146C3.25057 9.07691 3.26017 8.93588 3.31154 8.79837C3.36343 8.66035 3.44126 8.54742 3.54504 8.45959C3.64881 8.37176 3.7915 8.3153 3.97311 8.2902L7.74794 7.97025L9.20728 4.62016C9.27214 4.46959 9.3728 4.35666 9.50927 4.28138C9.64573 4.2061 9.78505 4.16846 9.92722 4.16846C10.0699 4.16846 10.2092 4.2061 10.3452 4.28138C10.4811 4.35666 10.5818 4.46959 10.6472 4.62016L12.1065 7.97025L15.8813 8.2902C16.0629 8.3153 16.2056 8.37176 16.3094 8.45959C16.4132 8.54742 16.491 8.66035 16.5429 8.79837C16.5948 8.93638 16.6046 9.07767 16.5725 9.22221C16.5403 9.36675 16.4591 9.49524 16.3289 9.60766L13.4686 11.9979L14.3247 15.555C14.3636 15.7181 14.3506 15.8657 14.2858 15.9977C14.2209 16.1297 14.1301 16.2393 14.0134 16.3267C13.8966 16.4145 13.7604 16.4647 13.6048 16.4772C13.4491 16.4898 13.2999 16.4521 13.1572 16.3643L9.92722 14.4822Z" fill="#F9C510"/>
<path d="M26.039 14.4822L22.809 16.3643C22.6663 16.4521 22.5172 16.4898 22.3615 16.4772C22.2058 16.4647 22.0696 16.4145 21.9529 16.3267C21.8361 16.2388 21.7453 16.1289 21.6805 15.9969C21.6156 15.8649 21.6026 15.7176 21.6416 15.555L22.4977 11.9979L19.6374 9.60765C19.5077 9.49472 19.4267 9.36599 19.3946 9.22145C19.3624 9.0769 19.372 8.93587 19.4234 8.79836C19.4752 8.66034 19.5531 8.54741 19.6569 8.45958C19.7606 8.37175 19.9033 8.31529 20.0849 8.2902L23.8598 7.97025L25.3191 4.62015C25.384 4.46959 25.4846 4.35666 25.6211 4.28138C25.7575 4.2061 25.8969 4.16846 26.039 4.16846C26.1817 4.16846 26.321 4.2061 26.457 4.28138C26.5929 4.35666 26.6936 4.46959 26.759 4.62015L28.2183 7.97025L31.9931 8.2902C32.1748 8.31529 32.3174 8.37175 32.4212 8.45958C32.525 8.54741 32.6028 8.66034 32.6547 8.79836C32.7066 8.93638 32.7165 9.07766 32.6843 9.2222C32.6521 9.36674 32.5709 9.49523 32.4407 9.60765L29.5804 11.9979L30.4365 15.555C30.4754 15.7181 30.4625 15.8657 30.3976 15.9977C30.3327 16.1297 30.2419 16.2393 30.1252 16.3267C30.0084 16.4145 29.8722 16.4647 29.7166 16.4772C29.5609 16.4898 29.4117 16.4521 29.269 16.3643L26.039 14.4822Z" fill="#F9C510"/>
<path d="M43.186 14.4822L39.956 16.3643C39.8133 16.4521 39.6641 16.4898 39.5085 16.4772C39.3528 16.4647 39.2166 16.4145 39.0999 16.3267C38.9831 16.2388 38.8923 16.1289 38.8274 15.9969C38.7626 15.8649 38.7496 15.7176 38.7885 15.555L39.6447 11.9979L36.7844 9.60765C36.6546 9.49472 36.5737 9.36599 36.5415 9.22145C36.5094 9.0769 36.519 8.93587 36.5703 8.79836C36.6222 8.66034 36.7 8.54741 36.8038 8.45958C36.9076 8.37175 37.0503 8.31529 37.2319 8.2902L41.0067 7.97025L42.4661 4.62015C42.5309 4.46959 42.6316 4.35666 42.7681 4.28138C42.9045 4.2061 43.0438 4.16846 43.186 4.16846C43.3287 4.16846 43.468 4.2061 43.604 4.28138C43.7399 4.35666 43.8406 4.46959 43.906 4.62015L45.3653 7.97025L49.1401 8.2902C49.3217 8.31529 49.4644 8.37175 49.5682 8.45958C49.672 8.54741 49.7498 8.66034 49.8017 8.79836C49.8536 8.93638 49.8634 9.07766 49.8313 9.2222C49.7991 9.36674 49.7179 9.49523 49.5877 9.60765L46.7273 11.9979L47.5835 15.555C47.6224 15.7181 47.6094 15.8657 47.5446 15.9977C47.4797 16.1297 47.3889 16.2393 47.2722 16.3267C47.1554 16.4145 47.0192 16.4647 46.8635 16.4772C46.7079 16.4898 46.5587 16.4521 46.416 16.3643L43.186 14.4822Z" fill="#F9C510"/>
<path d="M59.8144 14.4822L56.5844 16.3643C56.4417 16.4521 56.2926 16.4898 56.1369 16.4772C55.9812 16.4647 55.845 16.4145 55.7283 16.3267C55.6115 16.2388 55.5207 16.1289 55.4559 15.9969C55.391 15.8649 55.378 15.7176 55.4169 15.555L56.2731 11.9979L53.4128 9.60765C53.2831 9.49472 53.2021 9.36599 53.17 9.22145C53.1378 9.0769 53.1474 8.93587 53.1987 8.79836C53.2506 8.66034 53.3285 8.54741 53.4322 8.45958C53.536 8.37175 53.6787 8.31529 53.8603 8.2902L57.6351 7.97025L59.0945 4.62015C59.1593 4.46959 59.26 4.35666 59.3965 4.28138C59.5329 4.2061 59.6723 4.16846 59.8144 4.16846C59.9571 4.16846 60.0964 4.2061 60.2324 4.28138C60.3683 4.35666 60.469 4.46959 60.5344 4.62015L61.9937 7.97025L65.7685 8.2902C65.9501 8.31529 66.0928 8.37175 66.1966 8.45958C66.3004 8.54741 66.3782 8.66034 66.4301 8.79836C66.482 8.93638 66.4919 9.07766 66.4597 9.2222C66.4275 9.36674 66.3463 9.49523 66.2161 9.60765L63.3558 11.9979L64.2119 15.555C64.2508 15.7181 64.2379 15.8657 64.173 15.9977C64.1081 16.1297 64.0173 16.2393 63.9006 16.3267C63.7838 16.4145 63.6476 16.4647 63.492 16.4772C63.3363 16.4898 63.1871 16.4521 63.0444 16.3643L59.8144 14.4822Z" fill="#F9C510"/>
<path d="M75.5188 14.4822L72.2888 16.3643C72.1461 16.4521 71.9969 16.4898 71.8412 16.4772C71.6856 16.4647 71.5494 16.4145 71.4326 16.3267C71.3159 16.2388 71.2251 16.1289 71.1602 15.9969C71.0953 15.8649 71.0824 15.7176 71.1213 15.555L71.9774 11.9979L69.1171 9.60765C68.9874 9.49472 68.9065 9.36599 68.8743 9.22145C68.8421 9.0769 68.8517 8.93587 68.9031 8.79836C68.955 8.66034 69.0328 8.54741 69.1366 8.45958C69.2404 8.37175 69.3831 8.31529 69.5647 8.2902L73.3395 7.97025L74.7988 4.62015C74.8637 4.46959 74.9644 4.35666 75.1008 4.28138C75.2373 4.2061 75.3766 4.16846 75.5188 4.16846C75.6615 4.16846 75.8008 4.2061 75.9367 4.28138C76.0727 4.35666 76.1733 4.46959 76.2387 4.62015L77.6981 7.97025L81.4729 8.2902C81.6545 8.31529 81.7972 8.37175 81.901 8.45958C82.0047 8.54741 82.0826 8.66034 82.1344 8.79836C82.1863 8.93638 82.1962 9.07766 82.164 9.2222C82.1319 9.36674 82.0507 9.49523 81.9204 9.60765L79.0601 11.9979L79.9163 15.555C79.9552 15.7181 79.9422 15.8657 79.8773 15.9977C79.8125 16.1297 79.7217 16.2393 79.6049 16.3267C79.4882 16.4145 79.352 16.4647 79.1963 16.4772C79.0406 16.4898 78.8915 16.4521 78.7488 16.3643L75.5188 14.4822Z" fill="#F9C510"/>
</svg>
