<svg width="85" height="19" viewBox="0 0 85 19" fill="none" xmlns="http://www.w3.org/2000/svg">
<path d="M9.48292 14.4822L6.25502 16.3643C6.11243 16.4521 5.96335 16.4898 5.80779 16.4772C5.65222 16.4647 5.51611 16.4145 5.39944 16.3267C5.28277 16.2388 5.19202 16.1289 5.12721 15.9969C5.06239 15.8649 5.04942 15.7176 5.08832 15.555L5.9439 11.9979L3.08546 9.60766C2.95583 9.49473 2.87494 9.366 2.84279 9.22146C2.81064 9.07691 2.82023 8.93588 2.87157 8.79837C2.92342 8.66035 3.0012 8.54742 3.10491 8.45959C3.20862 8.37176 3.35122 8.3153 3.5327 8.2902L7.30506 7.97025L8.76345 4.62016C8.82827 4.46959 8.92886 4.35666 9.06524 4.28138C9.20161 4.2061 9.34084 4.16846 9.48292 4.16846C9.62552 4.16846 9.76474 4.2061 9.9006 4.28138C10.0365 4.35666 10.1371 4.46959 10.2024 4.62016L11.6608 7.97025L15.4331 8.2902C15.6146 8.3153 15.7572 8.37176 15.8609 8.45959C15.9646 8.54742 16.0424 8.66035 16.0943 8.79837C16.1461 8.93638 16.156 9.07767 16.1238 9.22221C16.0917 9.36675 16.0105 9.49524 15.8804 9.60766L13.0219 11.9979L13.8775 15.555C13.9164 15.7181 13.9034 15.8657 13.8386 15.9977C13.7738 16.1297 13.6831 16.2393 13.5664 16.3267C13.4497 16.4145 13.3136 16.4647 13.1581 16.4772C13.0025 16.4898 12.8534 16.4521 12.7108 16.3643L9.48292 14.4822Z" fill="#F9C510"/>
<path d="M25.5845 14.4822L22.3566 16.3643C22.214 16.4521 22.0649 16.4898 21.9093 16.4772C21.7538 16.4647 21.6177 16.4145 21.501 16.3267C21.3843 16.2388 21.2936 16.1289 21.2288 15.9969C21.164 15.8649 21.151 15.7176 21.1899 15.555L22.0455 11.9979L19.187 9.60765C19.0574 9.49472 18.9765 9.36599 18.9444 9.22145C18.9122 9.0769 18.9218 8.93587 18.9731 8.79836C19.025 8.66034 19.1028 8.54741 19.2065 8.45958C19.3102 8.37175 19.4528 8.31529 19.6343 8.2902L23.4066 7.97025L24.865 4.62015C24.9298 4.46959 25.0304 4.35666 25.1668 4.28138C25.3032 4.2061 25.4424 4.16846 25.5845 4.16846C25.7271 4.16846 25.8663 4.2061 26.0022 4.28138C26.138 4.35666 26.2386 4.46959 26.304 4.62015L27.7623 7.97025L31.5347 8.2902C31.7162 8.31529 31.8588 8.37175 31.9625 8.45958C32.0662 8.54741 32.144 8.66034 32.1958 8.79836C32.2477 8.93638 32.2575 9.07766 32.2254 9.2222C32.1932 9.36674 32.1121 9.49523 31.9819 9.60765L29.1235 11.9979L29.9791 15.555C30.018 15.7181 30.005 15.8657 29.9402 15.9977C29.8754 16.1297 29.7846 16.2393 29.668 16.3267C29.5513 16.4145 29.4152 16.4647 29.2596 16.4772C29.1041 16.4898 28.955 16.4521 28.8124 16.3643L25.5845 14.4822Z" fill="#F9C510"/>
<path d="M42.7202 14.4822L39.4923 16.3643C39.3497 16.4521 39.2007 16.4898 39.0451 16.4772C38.8895 16.4647 38.7534 16.4145 38.6367 16.3267C38.5201 16.2388 38.4293 16.1289 38.3645 15.9969C38.2997 15.8649 38.2867 15.7176 38.3256 15.555L39.1812 11.9979L36.3228 9.60765C36.1931 9.49472 36.1122 9.36599 36.0801 9.22145C36.0479 9.0769 36.0575 8.93587 36.1089 8.79836C36.1607 8.66034 36.2385 8.54741 36.3422 8.45958C36.4459 8.37175 36.5885 8.31529 36.77 8.2902L40.5424 7.97025L42.0008 4.62015C42.0656 4.46959 42.1662 4.35666 42.3025 4.28138C42.4389 4.2061 42.5781 4.16846 42.7202 4.16846C42.8628 4.16846 43.002 4.2061 43.1379 4.28138C43.2738 4.35666 43.3744 4.46959 43.4397 4.62015L44.8981 7.97025L48.6704 8.2902C48.8519 8.31529 48.9945 8.37175 49.0982 8.45958C49.2019 8.54741 49.2797 8.66034 49.3316 8.79836C49.3834 8.93638 49.3933 9.07766 49.3611 9.2222C49.329 9.36674 49.2478 9.49523 49.1177 9.60765L46.2592 11.9979L47.1148 15.555C47.1537 15.7181 47.1408 15.8657 47.0759 15.9977C47.0111 16.1297 46.9204 16.2393 46.8037 16.3267C46.687 16.4145 46.5509 16.4647 46.3954 16.4772C46.2398 16.4898 46.0907 16.4521 45.9481 16.3643L42.7202 14.4822Z" fill="#F9C510"/>
<path d="M59.3379 14.4822L56.11 16.3643C55.9674 16.4521 55.8183 16.4898 55.6628 16.4772C55.5072 16.4647 55.3711 16.4145 55.2544 16.3267C55.1377 16.2388 55.047 16.1289 54.9822 15.9969C54.9174 15.8649 54.9044 15.7176 54.9433 15.555L55.7989 11.9979L52.9404 9.60765C52.8108 9.49472 52.7299 9.36599 52.6978 9.22145C52.6656 9.0769 52.6752 8.93587 52.7265 8.79836C52.7784 8.66034 52.8562 8.54741 52.9599 8.45958C53.0636 8.37175 53.2062 8.31529 53.3877 8.2902L57.16 7.97025L58.6184 4.62015C58.6832 4.46959 58.7838 4.35666 58.9202 4.28138C59.0566 4.2061 59.1958 4.16846 59.3379 4.16846C59.4805 4.16846 59.6197 4.2061 59.7556 4.28138C59.8914 4.35666 59.992 4.46959 60.0574 4.62015L61.5158 7.97025L65.2881 8.2902C65.4696 8.31529 65.6122 8.37175 65.7159 8.45958C65.8196 8.54741 65.8974 8.66034 65.9493 8.79836C66.0011 8.93638 66.011 9.07766 65.9788 9.2222C65.9467 9.36674 65.8655 9.49523 65.7354 9.60765L62.8769 11.9979L63.7325 15.555C63.7714 15.7181 63.7584 15.8657 63.6936 15.9977C63.6288 16.1297 63.5381 16.2393 63.4214 16.3267C63.3047 16.4145 63.1686 16.4647 63.013 16.4772C62.8575 16.4898 62.7084 16.4521 62.5658 16.3643L59.3379 14.4822Z" fill="#F9C510"/>
<path d="M75.0317 14.4822L71.8039 16.3643C71.6613 16.4521 71.5122 16.4898 71.3566 16.4772C71.2011 16.4647 71.0649 16.4145 70.9483 16.3267C70.8316 16.2388 70.7409 16.1289 70.676 15.9969C70.6112 15.8649 70.5983 15.7176 70.6371 15.555L71.4927 11.9979L68.6343 9.60765C68.5047 9.49472 68.4238 9.36599 68.3916 9.22145C68.3595 9.0769 68.3691 8.93587 68.4204 8.79836C68.4723 8.66034 68.55 8.54741 68.6537 8.45958C68.7574 8.37175 68.9 8.31529 69.0815 8.2902L72.8539 7.97025L74.3123 4.62015C74.3771 4.46959 74.4777 4.35666 74.6141 4.28138C74.7504 4.2061 74.8897 4.16846 75.0317 4.16846C75.1743 4.16846 75.3136 4.2061 75.4494 4.28138C75.5853 4.35666 75.6859 4.46959 75.7512 4.62015L77.2096 7.97025L80.982 8.2902C81.1634 8.31529 81.306 8.37175 81.4098 8.45958C81.5135 8.54741 81.5912 8.66034 81.6431 8.79836C81.6949 8.93638 81.7048 9.07766 81.6727 9.2222C81.6405 9.36674 81.5594 9.49523 81.4292 9.60765L78.5708 11.9979L79.4263 15.555C79.4652 15.7181 79.4523 15.8657 79.3875 15.9977C79.3226 16.1297 79.2319 16.2393 79.1152 16.3267C78.9986 16.4145 78.8624 16.4647 78.7069 16.4772C78.5513 16.4898 78.4022 16.4521 78.2596 16.3643L75.0317 14.4822Z" fill="#F9C510"/>
</svg>
