<svg width="54" height="12" viewBox="0 0 54 12" fill="none" xmlns="http://www.w3.org/2000/svg">
<path d="M6.52329 9.32946L4.54999 10.4753C4.46281 10.5288 4.37168 10.5517 4.27658 10.544C4.18148 10.5364 4.09827 10.5058 4.02694 10.4524C3.95562 10.3989 3.90014 10.332 3.86052 10.2516C3.82089 10.1713 3.81297 10.0816 3.83674 9.98258L4.35979 7.81696L2.61234 6.36175C2.53309 6.293 2.48364 6.21463 2.46399 6.12663C2.44434 6.03863 2.4502 5.95277 2.48158 5.86904C2.51328 5.78502 2.56083 5.71626 2.62423 5.66279C2.68763 5.60932 2.7748 5.57495 2.88575 5.55967L5.19191 5.36488L6.08346 3.32529C6.12309 3.23363 6.18458 3.16488 6.26795 3.11904C6.35132 3.07321 6.43644 3.05029 6.52329 3.05029C6.61047 3.05029 6.69558 3.07321 6.77863 3.11904C6.86169 3.16488 6.92319 3.23363 6.96313 3.32529L7.85468 5.36488L10.1608 5.55967C10.2718 5.57495 10.359 5.60932 10.4224 5.66279C10.4858 5.71626 10.5333 5.78502 10.565 5.86904C10.5967 5.95307 10.6027 6.03908 10.5831 6.12708C10.5634 6.21508 10.5138 6.29331 10.4342 6.36175L8.6868 7.81696L9.20984 9.98258C9.23362 10.0819 9.22569 10.1717 9.18607 10.2521C9.14644 10.3324 9.09097 10.3992 9.01964 10.4524C8.94832 10.5058 8.86511 10.5364 8.77001 10.544C8.67491 10.5517 8.58377 10.5288 8.4966 10.4753L6.52329 9.32946Z" fill="#F9C510"/>
<path d="M16.7945 9.32946L14.8212 10.4753C14.7341 10.5288 14.6429 10.5517 14.5478 10.544C14.4527 10.5364 14.3695 10.5058 14.2982 10.4524C14.2269 10.3989 14.1714 10.332 14.1318 10.2516C14.0921 10.1713 14.0842 10.0816 14.108 9.98258L14.631 7.81696L12.8836 6.36175C12.8043 6.293 12.7549 6.21463 12.7352 6.12663C12.7156 6.03863 12.7214 5.95277 12.7528 5.86904C12.7845 5.78502 12.8321 5.71626 12.8955 5.66279C12.9589 5.60932 13.046 5.57495 13.157 5.55967L15.4631 5.36488L16.3547 3.32529C16.3943 3.23363 16.4558 3.16488 16.5392 3.11904C16.6226 3.07321 16.7077 3.05029 16.7945 3.05029C16.8817 3.05029 16.9668 3.07321 17.0499 3.11904C17.1329 3.16488 17.1944 3.23363 17.2344 3.32529L18.1259 5.36488L20.4321 5.55967C20.543 5.57495 20.6302 5.60932 20.6936 5.66279C20.757 5.71626 20.8045 5.78502 20.8362 5.86904C20.8679 5.95307 20.874 6.03908 20.8543 6.12708C20.8347 6.21508 20.785 6.29331 20.7055 6.36175L18.958 7.81696L19.4811 9.98258C19.5049 10.0819 19.4969 10.1717 19.4573 10.2521C19.4177 10.3324 19.3622 10.3992 19.2909 10.4524C19.2196 10.5058 19.1363 10.5364 19.0412 10.544C18.9462 10.5517 18.855 10.5288 18.7678 10.4753L16.7945 9.32946Z" fill="#F9C510"/>
<path d="M27.0643 9.32946L25.091 10.4753C25.0038 10.5288 24.9127 10.5517 24.8176 10.544C24.7225 10.5364 24.6393 10.5058 24.568 10.4524C24.4966 10.3989 24.4412 10.332 24.4015 10.2516C24.3619 10.1713 24.354 10.0816 24.3778 9.98258L24.9008 7.81696L23.1534 6.36175C23.0741 6.293 23.0247 6.21463 23.005 6.12663C22.9854 6.03863 22.9912 5.95277 23.0226 5.86904C23.0543 5.78502 23.1018 5.71626 23.1652 5.66279C23.2286 5.60932 23.3158 5.57495 23.4268 5.55967L25.7329 5.36488L26.6245 3.32529C26.6641 3.23363 26.7256 3.16488 26.809 3.11904C26.8923 3.07321 26.9775 3.05029 27.0643 3.05029C27.1515 3.05029 27.2366 3.07321 27.3197 3.11904C27.4027 3.16488 27.4642 3.23363 27.5041 3.32529L28.3957 5.36488L30.7018 5.55967C30.8128 5.57495 30.9 5.60932 30.9634 5.66279C31.0268 5.71626 31.0743 5.78502 31.106 5.86904C31.1377 5.95307 31.1437 6.03908 31.1241 6.12708C31.1044 6.21508 31.0548 6.29331 30.9753 6.36175L29.2278 7.81696L29.7509 9.98258C29.7746 10.0819 29.7667 10.1717 29.7271 10.2521C29.6875 10.3324 29.632 10.3992 29.5607 10.4524C29.4893 10.5058 29.4061 10.5364 29.311 10.544C29.2159 10.5517 29.1248 10.5288 29.0376 10.4753L27.0643 9.32946Z" fill="#F9C510"/>
<path d="M37.3351 9.32946L35.3618 10.4753C35.2746 10.5288 35.1834 10.5517 35.0883 10.544C34.9932 10.5364 34.91 10.5058 34.8387 10.4524C34.7674 10.3989 34.7119 10.332 34.6723 10.2516C34.6327 10.1713 34.6247 10.0816 34.6485 9.98258L35.1716 7.81696L33.4241 6.36175C33.3449 6.293 33.2954 6.21463 33.2758 6.12663C33.2561 6.03863 33.262 5.95277 33.2934 5.86904C33.3251 5.78502 33.3726 5.71626 33.436 5.66279C33.4994 5.60932 33.5866 5.57495 33.6975 5.55967L36.0037 5.36488L36.8952 3.32529C36.9349 3.23363 36.9964 3.16488 37.0797 3.11904C37.1631 3.07321 37.2482 3.05029 37.3351 3.05029C37.4222 3.05029 37.5073 3.07321 37.5904 3.11904C37.6735 3.16488 37.735 3.23363 37.7749 3.32529L38.6664 5.36488L40.9726 5.55967C41.0835 5.57495 41.1707 5.60932 41.2341 5.66279C41.2975 5.71626 41.3451 5.78502 41.3768 5.86904C41.4085 5.95307 41.4145 6.03908 41.3948 6.12708C41.3752 6.21508 41.3256 6.29331 41.246 6.36175L39.4986 7.81696L40.0216 9.98258C40.0454 10.0819 40.0375 10.1717 39.9978 10.2521C39.9582 10.3324 39.9027 10.3992 39.8314 10.4524C39.7601 10.5058 39.6769 10.5364 39.5818 10.544C39.4867 10.5517 39.3955 10.5288 39.3084 10.4753L37.3351 9.32946Z" fill="#F9C510"/>
<path d="M47.6058 4.67738V8.25238L49.1036 9.13467L48.7113 7.48467L50.0308 6.38467L48.2953 6.23571L47.6058 4.67738ZM47.6058 9.32946L45.6325 10.4753C45.5453 10.5288 45.4542 10.5517 45.3591 10.544C45.264 10.5364 45.1808 10.5058 45.1095 10.4524C45.0381 10.3989 44.9827 10.332 44.943 10.2516C44.9034 10.1713 44.8955 10.0816 44.9193 9.98258L45.4423 7.81696L43.6949 6.36175C43.6156 6.293 43.5662 6.21463 43.5465 6.12663C43.5269 6.03863 43.5327 5.95277 43.5641 5.86904C43.5958 5.78502 43.6434 5.71626 43.7068 5.66279C43.7702 5.60932 43.8573 5.57495 43.9683 5.55967L46.2744 5.36488L47.166 3.32529C47.2056 3.23363 47.2671 3.16488 47.3505 3.11904C47.4338 3.07321 47.519 3.05029 47.6058 3.05029C47.693 3.05029 47.7781 3.07321 47.8612 3.11904C47.9442 3.16488 48.0057 3.23363 48.0456 3.32529L48.9372 5.36488L51.2434 5.55967C51.3543 5.57495 51.4415 5.60932 51.5049 5.66279C51.5683 5.71626 51.6158 5.78502 51.6475 5.86904C51.6792 5.95307 51.6852 6.03908 51.6656 6.12708C51.6459 6.21508 51.5963 6.29331 51.5168 6.36175L49.7693 7.81696L50.2924 9.98258C50.3161 10.0819 50.3082 10.1717 50.2686 10.2521C50.229 10.3324 50.1735 10.3992 50.1022 10.4524C50.0308 10.5058 49.9476 10.5364 49.8525 10.544C49.7574 10.5517 49.6663 10.5288 49.5791 10.4753L47.6058 9.32946Z" fill="#F9C510"/>
</svg>
