<svg width="54" height="12" viewBox="0 0 54 12" fill="none" xmlns="http://www.w3.org/2000/svg">
<path d="M6.52305 9.32946L4.54974 10.4753C4.46257 10.5288 4.37143 10.5517 4.27633 10.544C4.18123 10.5364 4.09802 10.5058 4.0267 10.4524C3.95537 10.3989 3.8999 10.332 3.86028 10.2516C3.82065 10.1713 3.81273 10.0816 3.8365 9.98258L4.35955 7.81696L2.6121 6.36175C2.53285 6.293 2.4834 6.21463 2.46375 6.12663C2.44409 6.03863 2.44996 5.95277 2.48134 5.86904C2.51304 5.78502 2.56059 5.71626 2.62399 5.66279C2.68739 5.60932 2.77456 5.57495 2.88551 5.55967L5.19166 5.36488L6.08322 3.32529C6.12284 3.23363 6.18434 3.16488 6.26771 3.11904C6.35108 3.07321 6.43619 3.05029 6.52305 3.05029C6.61022 3.05029 6.69534 3.07321 6.77839 3.11904C6.86144 3.16488 6.92294 3.23363 6.96288 3.32529L7.85444 5.36488L10.1606 5.55967C10.2715 5.57495 10.3587 5.60932 10.4221 5.66279C10.4855 5.71626 10.5331 5.78502 10.5648 5.86904C10.5965 5.95307 10.6025 6.03908 10.5828 6.12708C10.5632 6.21508 10.5136 6.29331 10.434 6.36175L8.68655 7.81696L9.2096 9.98258C9.23337 10.0819 9.22545 10.1717 9.18582 10.2521C9.1462 10.3324 9.09072 10.3992 9.0194 10.4524C8.94808 10.5058 8.86486 10.5364 8.76977 10.544C8.67467 10.5517 8.58353 10.5288 8.49636 10.4753L6.52305 9.32946Z" fill="#F9C510"/>
<path d="M16.7943 9.32946L14.821 10.4753C14.7338 10.5288 14.6427 10.5517 14.5476 10.544C14.4525 10.5364 14.3693 10.5058 14.2979 10.4524C14.2266 10.3989 14.1711 10.332 14.1315 10.2516C14.0919 10.1713 14.084 10.0816 14.1077 9.98258L14.6308 7.81696L12.8833 6.36175C12.8041 6.293 12.7546 6.21463 12.735 6.12663C12.7153 6.03863 12.7212 5.95277 12.7526 5.86904C12.7843 5.78502 12.8318 5.71626 12.8952 5.66279C12.9586 5.60932 13.0458 5.57495 13.1567 5.55967L15.4629 5.36488L16.3545 3.32529C16.3941 3.23363 16.4556 3.16488 16.5389 3.11904C16.6223 3.07321 16.7074 3.05029 16.7943 3.05029C16.8815 3.05029 16.9666 3.07321 17.0496 3.11904C17.1327 3.16488 17.1942 3.23363 17.2341 3.32529L18.1257 5.36488L20.4318 5.55967C20.5428 5.57495 20.63 5.60932 20.6934 5.66279C20.7568 5.71626 20.8043 5.78502 20.836 5.86904C20.8677 5.95307 20.8737 6.03908 20.8541 6.12708C20.8344 6.21508 20.7848 6.29331 20.7052 6.36175L18.9578 7.81696L19.4808 9.98258C19.5046 10.0819 19.4967 10.1717 19.4571 10.2521C19.4174 10.3324 19.362 10.3992 19.2906 10.4524C19.2193 10.5058 19.1361 10.5364 19.041 10.544C18.9459 10.5517 18.8548 10.5288 18.7676 10.4753L16.7943 9.32946Z" fill="#F9C510"/>
<path d="M27.0641 9.32946L25.0908 10.4753C25.0036 10.5288 24.9124 10.5517 24.8173 10.544C24.7223 10.5364 24.639 10.5058 24.5677 10.4524C24.4964 10.3989 24.4409 10.332 24.4013 10.2516C24.3617 10.1713 24.3537 10.0816 24.3775 9.98258L24.9006 7.81696L23.1531 6.36175C23.0739 6.293 23.0244 6.21463 23.0048 6.12663C22.9851 6.03863 22.991 5.95277 23.0224 5.86904C23.0541 5.78502 23.1016 5.71626 23.165 5.66279C23.2284 5.60932 23.3156 5.57495 23.4265 5.55967L25.7327 5.36488L26.6242 3.32529C26.6639 3.23363 26.7254 3.16488 26.8087 3.11904C26.8921 3.07321 26.9772 3.05029 27.0641 3.05029C27.1512 3.05029 27.2364 3.07321 27.3194 3.11904C27.4025 3.16488 27.464 3.23363 27.5039 3.32529L28.3955 5.36488L30.7016 5.55967C30.8126 5.57495 30.8997 5.60932 30.9631 5.66279C31.0265 5.71626 31.0741 5.78502 31.1058 5.86904C31.1375 5.95307 31.1435 6.03908 31.1238 6.12708C31.1042 6.21508 31.0546 6.29331 30.975 6.36175L29.2276 7.81696L29.7506 9.98258C29.7744 10.0819 29.7665 10.1717 29.7268 10.2521C29.6872 10.3324 29.6317 10.3992 29.5604 10.4524C29.4891 10.5058 29.4059 10.5364 29.3108 10.544C29.2157 10.5517 29.1245 10.5288 29.0374 10.4753L27.0641 9.32946Z" fill="#F9C510"/>
<path d="M37.3348 9.32946L35.3615 10.4753C35.2743 10.5288 35.1832 10.5517 35.0881 10.544C34.993 10.5364 34.9098 10.5058 34.8385 10.4524C34.7671 10.3989 34.7117 10.332 34.672 10.2516C34.6324 10.1713 34.6245 10.0816 34.6483 9.98258L35.1713 7.81696L33.4239 6.36175C33.3446 6.293 33.2952 6.21463 33.2755 6.12663C33.2559 6.03863 33.2617 5.95277 33.2931 5.86904C33.3248 5.78502 33.3724 5.71626 33.4358 5.66279C33.4992 5.60932 33.5863 5.57495 33.6973 5.55967L36.0034 5.36488L36.895 3.32529C36.9346 3.23363 36.9961 3.16488 37.0795 3.11904C37.1628 3.07321 37.248 3.05029 37.3348 3.05029C37.422 3.05029 37.5071 3.07321 37.5902 3.11904C37.6732 3.16488 37.7347 3.23363 37.7747 3.32529L38.6662 5.36488L40.9724 5.55967C41.0833 5.57495 41.1705 5.60932 41.2339 5.66279C41.2973 5.71626 41.3448 5.78502 41.3765 5.86904C41.4082 5.95307 41.4143 6.03908 41.3946 6.12708C41.3749 6.21508 41.3253 6.29331 41.2458 6.36175L39.4983 7.81696L40.0214 9.98258C40.0451 10.0819 40.0372 10.1717 39.9976 10.2521C39.958 10.3324 39.9025 10.3992 39.8312 10.4524C39.7598 10.5058 39.6766 10.5364 39.5815 10.544C39.4864 10.5517 39.3953 10.5288 39.3081 10.4753L37.3348 9.32946Z" fill="#F9C510"/>
<path d="M47.6056 4.67738V8.25238L49.1034 9.13467L48.7111 7.48467L50.0306 6.38467L48.295 6.23571L47.6056 4.67738ZM47.6056 9.32946L45.6323 10.4753C45.5451 10.5288 45.454 10.5517 45.3589 10.544C45.2638 10.5364 45.1805 10.5058 45.1092 10.4524C45.0379 10.3989 44.9824 10.332 44.9428 10.2516C44.9032 10.1713 44.8952 10.0816 44.919 9.98258L45.4421 7.81696L43.6946 6.36175C43.6154 6.293 43.5659 6.21463 43.5463 6.12663C43.5266 6.03863 43.5325 5.95277 43.5639 5.86904C43.5956 5.78502 43.6431 5.71626 43.7065 5.66279C43.7699 5.60932 43.8571 5.57495 43.968 5.55967L46.2742 5.36488L47.1657 3.32529C47.2054 3.23363 47.2669 3.16488 47.3502 3.11904C47.4336 3.07321 47.5187 3.05029 47.6056 3.05029C47.6927 3.05029 47.7779 3.07321 47.8609 3.11904C47.944 3.16488 48.0055 3.23363 48.0454 3.32529L48.937 5.36488L51.2431 5.55967C51.3541 5.57495 51.4412 5.60932 51.5046 5.66279C51.568 5.71626 51.6156 5.78502 51.6473 5.86904C51.679 5.95307 51.685 6.03908 51.6653 6.12708C51.6457 6.21508 51.5961 6.29331 51.5165 6.36175L49.7691 7.81696L50.2921 9.98258C50.3159 10.0819 50.308 10.1717 50.2683 10.2521C50.2287 10.3324 50.1732 10.3992 50.1019 10.4524C50.0306 10.5058 49.9474 10.5364 49.8523 10.544C49.7572 10.5517 49.666 10.5288 49.5789 10.4753L47.6056 9.32946Z" fill="#F9C510"/>
</svg>
