<svg width="85" height="19" viewBox="0 0 85 19" fill="none" xmlns="http://www.w3.org/2000/svg">
<path d="M9.65145 14.5835L6.4182 16.4671C6.27536 16.555 6.12603 16.5927 5.97021 16.5801C5.81439 16.5675 5.67805 16.5173 5.56119 16.4294C5.44432 16.3415 5.35343 16.2315 5.2885 16.0994C5.22358 15.9673 5.21059 15.8199 5.24955 15.6571L6.10656 12.0971L3.24337 9.70489C3.11352 9.59187 3.03249 9.46303 3.00029 9.31837C2.96809 9.17371 2.9777 9.03256 3.02912 8.89493C3.08106 8.7568 3.15897 8.64378 3.26285 8.55588C3.36673 8.46798 3.50956 8.41147 3.69135 8.38635L7.46998 8.06614L8.93079 4.7133C8.99571 4.56261 9.09648 4.44959 9.23308 4.37425C9.36968 4.2989 9.50914 4.26123 9.65145 4.26123C9.79429 4.26123 9.93375 4.2989 10.0698 4.37425C10.2059 4.44959 10.3067 4.56261 10.3721 4.7133L11.8329 8.06614L15.6116 8.38635C15.7933 8.41147 15.9362 8.46798 16.0401 8.55588C16.1439 8.64378 16.2218 8.7568 16.2738 8.89493C16.3257 9.03306 16.3356 9.17446 16.3034 9.31912C16.2712 9.46378 16.1899 9.59237 16.0595 9.70489L13.1964 12.0971L14.0534 15.6571C14.0923 15.8204 14.0793 15.968 14.0144 16.1001C13.9495 16.2323 13.8586 16.342 13.7417 16.4294C13.6249 16.5173 13.4885 16.5675 13.3327 16.5801C13.1769 16.5927 13.0275 16.555 12.8847 16.4671L9.65145 14.5835Z" fill="#F9C510"/>
<path d="M25.7794 14.5835L22.5461 16.4671C22.4033 16.555 22.254 16.5927 22.0981 16.5801C21.9423 16.5675 21.806 16.5173 21.6891 16.4294C21.5723 16.3415 21.4814 16.2315 21.4164 16.0994C21.3515 15.9673 21.3385 15.8199 21.3775 15.6571L22.2345 12.0971L19.3713 9.70489C19.2414 9.59187 19.1604 9.46303 19.1282 9.31837C19.096 9.17371 19.1056 9.03256 19.157 8.89493C19.209 8.7568 19.2869 8.64378 19.3908 8.55588C19.4947 8.46798 19.6375 8.41147 19.8193 8.38635L23.5979 8.06614L25.0587 4.7133C25.1236 4.56261 25.2244 4.44959 25.361 4.37425C25.4976 4.2989 25.6371 4.26123 25.7794 4.26123C25.9222 4.26123 26.0617 4.2989 26.1978 4.37425C26.3338 4.44959 26.4346 4.56261 26.5 4.7133L27.9609 8.06614L31.7395 8.38635C31.9213 8.41147 32.0641 8.46798 32.168 8.55588C32.2719 8.64378 32.3498 8.7568 32.4017 8.89493C32.4537 9.03306 32.4635 9.17446 32.4313 9.31912C32.3991 9.46378 32.3178 9.59237 32.1875 9.70489L29.3243 12.0971L30.1813 15.6571C30.2202 15.8204 30.2073 15.968 30.1423 16.1001C30.0774 16.2323 29.9865 16.342 29.8696 16.4294C29.7528 16.5173 29.6164 16.5675 29.4606 16.5801C29.3048 16.5927 29.1555 16.555 29.0126 16.4671L25.7794 14.5835Z" fill="#F9C510"/>
<path d="M42.9439 14.5835L39.7107 16.4671C39.5678 16.555 39.4185 16.5927 39.2627 16.5801C39.1069 16.5675 38.9705 16.5173 38.8537 16.4294C38.7368 16.3415 38.6459 16.2315 38.581 16.0994C38.5161 15.9673 38.5031 15.8199 38.542 15.6571L39.399 12.0971L36.5359 9.70489C36.406 9.59187 36.325 9.46303 36.2928 9.31837C36.2606 9.17371 36.2702 9.03256 36.3216 8.89493C36.3735 8.7568 36.4514 8.64378 36.5553 8.55588C36.6592 8.46798 36.802 8.41147 36.9838 8.38635L40.7625 8.06614L42.2233 4.7133C42.2882 4.56261 42.389 4.44959 42.5256 4.37425C42.6622 4.2989 42.8016 4.26123 42.9439 4.26123C43.0868 4.26123 43.2262 4.2989 43.3623 4.37425C43.4984 4.44959 43.5992 4.56261 43.6646 4.7133L45.1254 8.06614L48.904 8.38635C49.0858 8.41147 49.2287 8.46798 49.3325 8.55588C49.4364 8.64378 49.5143 8.7568 49.5663 8.89493C49.6182 9.03306 49.6281 9.17446 49.5959 9.31912C49.5637 9.46378 49.4824 9.59237 49.352 9.70489L46.4888 12.0971L47.3458 15.6571C47.3848 15.8204 47.3718 15.968 47.3069 16.1001C47.242 16.2323 47.1511 16.342 47.0342 16.4294C46.9173 16.5173 46.781 16.5675 46.6252 16.5801C46.4694 16.5927 46.32 16.555 46.1772 16.4671L42.9439 14.5835Z" fill="#F9C510"/>
<path d="M59.589 14.5835L56.3557 16.4671C56.2129 16.555 56.0635 16.5927 55.9077 16.5801C55.7519 16.5675 55.6156 16.5173 55.4987 16.4294C55.3818 16.3415 55.2909 16.2315 55.226 16.0994C55.1611 15.9673 55.1481 15.8199 55.187 15.6571L56.0441 12.0971L53.1809 9.70489C53.051 9.59187 52.97 9.46303 52.9378 9.31837C52.9056 9.17371 52.9152 9.03256 52.9666 8.89493C53.0186 8.7568 53.0965 8.64378 53.2003 8.55588C53.3042 8.46798 53.4471 8.41147 53.6289 8.38635L57.4075 8.06614L58.8683 4.7133C58.9332 4.56261 59.034 4.44959 59.1706 4.37425C59.3072 4.2989 59.4466 4.26123 59.589 4.26123C59.7318 4.26123 59.8712 4.2989 60.0073 4.37425C60.1434 4.44959 60.2442 4.56261 60.3096 4.7133L61.7704 8.06614L65.5491 8.38635C65.7308 8.41147 65.8737 8.46798 65.9776 8.55588C66.0814 8.64378 66.1594 8.7568 66.2113 8.89493C66.2632 9.03306 66.2731 9.17446 66.2409 9.31912C66.2087 9.46378 66.1274 9.59237 65.997 9.70489L63.1339 12.0971L63.9909 15.6571C64.0298 15.8204 64.0168 15.968 63.9519 16.1001C63.887 16.2323 63.7961 16.342 63.6792 16.4294C63.5624 16.5173 63.426 16.5675 63.2702 16.5801C63.1144 16.5927 62.965 16.555 62.8222 16.4671L59.589 14.5835Z" fill="#F9C510"/>
<path d="M75.3092 14.5835L72.0759 16.4671C71.9331 16.555 71.7837 16.5927 71.6279 16.5801C71.4721 16.5675 71.3358 16.5173 71.2189 16.4294C71.102 16.3415 71.0111 16.2315 70.9462 16.0994C70.8813 15.9673 70.8683 15.8199 70.9073 15.6571L71.7643 12.0971L68.9011 9.70489C68.7712 9.59187 68.6902 9.46303 68.658 9.31837C68.6258 9.17371 68.6354 9.03256 68.6868 8.89493C68.7388 8.7568 68.8167 8.64378 68.9206 8.55588C69.0244 8.46798 69.1673 8.41147 69.3491 8.38635L73.1277 8.06614L74.5885 4.7133C74.6534 4.56261 74.7542 4.44959 74.8908 4.37425C75.0274 4.2989 75.1669 4.26123 75.3092 4.26123C75.452 4.26123 75.5915 4.2989 75.7275 4.37425C75.8636 4.44959 75.9644 4.56261 76.0298 4.7133L77.4906 8.06614L81.2693 8.38635C81.4511 8.41147 81.5939 8.46798 81.6978 8.55588C81.8017 8.64378 81.8796 8.7568 81.9315 8.89493C81.9834 9.03306 81.9933 9.17446 81.9611 9.31912C81.9289 9.46378 81.8476 9.59237 81.7172 9.70489L78.8541 12.0971L79.7111 15.6571C79.75 15.8204 79.737 15.968 79.6721 16.1001C79.6072 16.2323 79.5163 16.342 79.3994 16.4294C79.2826 16.5173 79.1462 16.5675 78.9904 16.5801C78.8346 16.5927 78.6853 16.555 78.5424 16.4671L75.3092 14.5835Z" fill="#F9C510"/>
</svg>
