<svg width="86" height="19" viewBox="0 0 86 19" fill="none" xmlns="http://www.w3.org/2000/svg">
<path d="M9.30813 14.5884L6.08875 16.4727C5.94653 16.5607 5.79784 16.5984 5.64269 16.5858C5.48754 16.5732 5.35178 16.523 5.23542 16.4351C5.11906 16.3471 5.02855 16.2371 4.96391 16.1049C4.89926 15.9728 4.88633 15.8253 4.92512 15.6625L5.77845 12.1011L2.92755 9.70796C2.79826 9.5949 2.71758 9.46601 2.68551 9.32129C2.65345 9.17657 2.66302 9.03537 2.71422 8.89769C2.76593 8.7595 2.84351 8.64644 2.94694 8.55851C3.05038 8.47057 3.1926 8.41404 3.37361 8.38892L7.13602 8.06858L8.59056 4.71445C8.65521 4.5637 8.75554 4.45064 8.89155 4.37527C9.02757 4.29989 9.16643 4.26221 9.30813 4.26221C9.45036 4.26221 9.58921 4.29989 9.72471 4.37527C9.86021 4.45064 9.96054 4.5637 10.0257 4.71445L11.4802 8.06858L15.2427 8.38892C15.4237 8.41404 15.5659 8.47057 15.6693 8.55851C15.7728 8.64644 15.8503 8.7595 15.902 8.89769C15.9538 9.03587 15.9636 9.17733 15.9315 9.32204C15.8995 9.46676 15.8185 9.5954 15.6887 9.70796L12.8378 12.1011L13.6911 15.6625C13.7299 15.8258 13.717 15.9735 13.6524 16.1057C13.5877 16.2378 13.4972 16.3476 13.3808 16.4351C13.2645 16.523 13.1287 16.5732 12.9736 16.5858C12.8184 16.5984 12.6697 16.5607 12.5275 16.4727L9.30813 14.5884Z" fill="#F9C510"/>
<path d="M26.064 14.5884L22.8446 16.4727C22.7024 16.5607 22.5537 16.5984 22.3986 16.5858C22.2434 16.5732 22.1076 16.523 21.9913 16.4351C21.8749 16.3471 21.7844 16.2371 21.7198 16.1049C21.6551 15.9728 21.6422 15.8253 21.681 15.6625L22.5343 12.1011L19.6834 9.70796C19.5541 9.5949 19.4734 9.46601 19.4414 9.32129C19.4093 9.17657 19.4189 9.03537 19.4701 8.89769C19.5218 8.7595 19.5994 8.64644 19.7028 8.55851C19.8062 8.47057 19.9485 8.41404 20.1295 8.38892L23.8919 8.06858L25.3464 4.71445C25.4111 4.5637 25.5114 4.45064 25.6474 4.37527C25.7834 4.29989 25.9223 4.26221 26.064 4.26221C26.2062 4.26221 26.3451 4.29989 26.4806 4.37527C26.6161 4.45064 26.7164 4.5637 26.7816 4.71445L28.2361 8.06858L31.9985 8.38892C32.1795 8.41404 32.3217 8.47057 32.4252 8.55851C32.5286 8.64644 32.6062 8.7595 32.6579 8.89769C32.7096 9.03587 32.7195 9.17733 32.6874 9.32204C32.6553 9.46676 32.5744 9.5954 32.4446 9.70796L29.5937 12.1011L30.447 15.6625C30.4858 15.8258 30.4729 15.9735 30.4082 16.1057C30.3436 16.2378 30.2531 16.3476 30.1367 16.4351C30.0203 16.523 29.8846 16.5732 29.7294 16.5858C29.5743 16.5984 29.4256 16.5607 29.2834 16.4727L26.064 14.5884Z" fill="#F9C510"/>
<path d="M42.8203 14.5884L39.601 16.4727C39.4587 16.5607 39.31 16.5984 39.1549 16.5858C38.9997 16.5732 38.864 16.523 38.7476 16.4351C38.6313 16.3471 38.5408 16.2371 38.4761 16.1049C38.4115 15.9728 38.3985 15.8253 38.4373 15.6625L39.2907 12.1011L36.4398 9.70796C36.3105 9.5949 36.2298 9.46601 36.1977 9.32129C36.1657 9.17657 36.1752 9.03537 36.2264 8.89769C36.2781 8.7595 36.3557 8.64644 36.4592 8.55851C36.5626 8.47057 36.7048 8.41404 36.8858 8.38892L40.6482 8.06858L42.1028 4.71445C42.1674 4.5637 42.2677 4.45064 42.4038 4.37527C42.5398 4.29989 42.6786 4.26221 42.8203 4.26221C42.9626 4.26221 43.1014 4.29989 43.2369 4.37527C43.3724 4.45064 43.4728 4.5637 43.5379 4.71445L44.9925 8.06858L48.7549 8.38892C48.9359 8.41404 49.0781 8.47057 49.1815 8.55851C49.285 8.64644 49.3625 8.7595 49.4143 8.89769C49.466 9.03587 49.4758 9.17733 49.4437 9.32204C49.4117 9.46676 49.3307 9.5954 49.2009 9.70796L46.35 12.1011L47.2034 15.6625C47.2421 15.8258 47.2292 15.9735 47.1646 16.1057C47.0999 16.2378 47.0094 16.3476 46.8931 16.4351C46.7767 16.523 46.6409 16.5732 46.4858 16.5858C46.3306 16.5984 46.1819 16.5607 46.0397 16.4727L42.8203 14.5884Z" fill="#F9C510"/>
<path d="M59.5774 14.5884L56.358 16.4727C56.2158 16.5607 56.0671 16.5984 55.912 16.5858C55.7568 16.5732 55.6211 16.523 55.5047 16.4351C55.3883 16.3471 55.2978 16.2371 55.2332 16.1049C55.1685 15.9728 55.1556 15.8253 55.1944 15.6625L56.0477 12.1011L53.1968 9.70796C53.0675 9.5949 52.9869 9.46601 52.9548 9.32129C52.9227 9.17657 52.9323 9.03537 52.9835 8.89769C53.0352 8.7595 53.1128 8.64644 53.2162 8.55851C53.3197 8.47057 53.4619 8.41404 53.6429 8.38892L57.4053 8.06858L58.8598 4.71445C58.9245 4.5637 59.0248 4.45064 59.1608 4.37527C59.2969 4.29989 59.4357 4.26221 59.5774 4.26221C59.7196 4.26221 59.8585 4.29989 59.994 4.37527C60.1295 4.45064 60.2298 4.5637 60.295 4.71445L61.7495 8.06858L65.5119 8.38892C65.693 8.41404 65.8352 8.47057 65.9386 8.55851C66.042 8.64644 66.1196 8.7595 66.1713 8.89769C66.2231 9.03587 66.2329 9.17733 66.2008 9.32204C66.1688 9.46676 66.0878 9.5954 65.958 9.70796L63.1071 12.1011L63.9604 15.6625C63.9992 15.8258 63.9863 15.9735 63.9216 16.1057C63.857 16.2378 63.7665 16.3476 63.6501 16.4351C63.5338 16.523 63.398 16.5732 63.2429 16.5858C63.0877 16.5984 62.939 16.5607 62.7968 16.4727L59.5774 14.5884Z" fill="#F9C510"/>
<path d="M76.3333 6.93797V12.8171L78.7769 14.2681L78.1369 11.5546L80.2896 9.74564L77.4581 9.50068L76.3333 6.93797ZM76.3333 14.5884L73.1139 16.4727C72.9717 16.5607 72.823 16.5984 72.6678 16.5858C72.5127 16.5732 72.3769 16.523 72.2606 16.4351C72.1442 16.3471 72.0537 16.2371 71.9891 16.1049C71.9244 15.9728 71.9115 15.8253 71.9503 15.6625L72.8036 12.1011L69.9527 9.70796C69.8234 9.5949 69.7427 9.46601 69.7107 9.32129C69.6786 9.17657 69.6882 9.03537 69.7394 8.89769C69.7911 8.7595 69.8687 8.64644 69.9721 8.55851C70.0755 8.47057 70.2177 8.41404 70.3988 8.38892L74.1612 8.06858L75.6157 4.71445C75.6804 4.5637 75.7807 4.45064 75.9167 4.37527C76.0527 4.29989 76.1916 4.26221 76.3333 4.26221C76.4755 4.26221 76.6144 4.29989 76.7499 4.37527C76.8854 4.45064 76.9857 4.5637 77.0509 4.71445L78.5054 8.06858L82.2678 8.38892C82.4488 8.41404 82.591 8.47057 82.6945 8.55851C82.7979 8.64644 82.8755 8.7595 82.9272 8.89769C82.9789 9.03587 82.9887 9.17733 82.9567 9.32204C82.9246 9.46676 82.8437 9.5954 82.7139 9.70796L79.863 12.1011L80.7163 15.6625C80.7551 15.8258 80.7422 15.9735 80.6775 16.1057C80.6129 16.2378 80.5224 16.3476 80.406 16.4351C80.2896 16.523 80.1539 16.5732 79.9987 16.5858C79.8436 16.5984 79.6949 16.5607 79.5527 16.4727L76.3333 14.5884Z" fill="#F9C510"/>
</svg>
