<svg width="85" height="19" viewBox="0 0 85 19" fill="none" xmlns="http://www.w3.org/2000/svg">
<path d="M9.64609 14.5835L6.44052 16.4671C6.29891 16.555 6.15086 16.5927 5.99638 16.5801C5.84189 16.5675 5.70672 16.5173 5.59085 16.4294C5.47499 16.3415 5.38487 16.2315 5.32051 16.0994C5.25614 15.9673 5.24326 15.8199 5.28188 15.6571L6.13155 12.0971L3.29289 9.70489C3.16415 9.59187 3.08382 9.46303 3.05189 9.31837C3.01996 9.17371 3.02949 9.03256 3.08047 8.89493C3.13196 8.7568 3.20921 8.64378 3.3122 8.55588C3.41519 8.46798 3.5568 8.41147 3.73703 8.38635L7.4833 8.06614L8.9316 4.7133C8.99597 4.56261 9.09587 4.44959 9.2313 4.37425C9.36673 4.2989 9.505 4.26123 9.64609 4.26123C9.7877 4.26123 9.92597 4.2989 10.0609 4.37425C10.1958 4.44959 10.2957 4.56261 10.3606 4.7133L11.8089 8.06614L15.5552 8.38635C15.7354 8.41147 15.877 8.46798 15.98 8.55588C16.083 8.64378 16.1602 8.7568 16.2117 8.89493C16.2632 9.03306 16.273 9.17446 16.2411 9.31912C16.2091 9.46378 16.1286 9.59237 15.9993 9.70489L13.1606 12.0971L14.0103 15.6571C14.0489 15.8204 14.0361 15.968 13.9717 16.1001C13.9073 16.2323 13.8172 16.342 13.7013 16.4294C13.5855 16.5173 13.4503 16.5675 13.2958 16.5801C13.1413 16.5927 12.9933 16.555 12.8517 16.4671L9.64609 14.5835Z" fill="#F9C510"/>
<path d="M25.6361 14.5835L22.4305 16.4671C22.2889 16.555 22.1409 16.5927 21.9864 16.5801C21.8319 16.5675 21.6967 16.5173 21.5808 16.4294C21.465 16.3415 21.3749 16.2315 21.3105 16.0994C21.2461 15.9673 21.2333 15.8199 21.2719 15.6571L22.1215 12.0971L19.2829 9.70489C19.1541 9.59187 19.0738 9.46303 19.0419 9.31837C19.01 9.17371 19.0195 9.03256 19.0705 8.89493C19.122 8.7568 19.1992 8.64378 19.3022 8.55588C19.4052 8.46798 19.5468 8.41147 19.727 8.38635L23.4733 8.06614L24.9216 4.7133C24.986 4.56261 25.0859 4.44959 25.2213 4.37425C25.3567 4.2989 25.495 4.26123 25.6361 4.26123C25.7777 4.26123 25.916 4.2989 26.0509 4.37425C26.1858 4.44959 26.2857 4.56261 26.3506 4.7133L27.7989 8.06614L31.5451 8.38635C31.7254 8.41147 31.867 8.46798 31.97 8.55588C32.073 8.64378 32.1502 8.7568 32.2017 8.89493C32.2532 9.03306 32.263 9.17446 32.2311 9.31912C32.1991 9.46378 32.1185 9.59237 31.9893 9.70489L29.1506 12.0971L30.0003 15.6571C30.0389 15.8204 30.026 15.968 29.9617 16.1001C29.8973 16.2323 29.8072 16.342 29.6913 16.4294C29.5755 16.5173 29.4403 16.5675 29.2858 16.5801C29.1313 16.5927 28.9833 16.555 28.8417 16.4671L25.6361 14.5835Z" fill="#F9C510"/>
<path d="M42.6537 14.5835L39.4481 16.4671C39.3065 16.555 39.1584 16.5927 39.0039 16.5801C38.8495 16.5675 38.7143 16.5173 38.5984 16.4294C38.4826 16.3415 38.3924 16.2315 38.3281 16.0994C38.2637 15.9673 38.2508 15.8199 38.2895 15.6571L39.1391 12.0971L36.3005 9.70489C36.1717 9.59187 36.0914 9.46303 36.0595 9.31837C36.0275 9.17371 36.0371 9.03256 36.088 8.89493C36.1395 8.7568 36.2168 8.64378 36.3198 8.55588C36.4228 8.46798 36.5644 8.41147 36.7446 8.38635L40.4909 8.06614L41.9392 4.7133C42.0035 4.56261 42.1034 4.44959 42.2389 4.37425C42.3743 4.2989 42.5126 4.26123 42.6537 4.26123C42.7953 4.26123 42.9335 4.2989 43.0685 4.37425C43.2034 4.44959 43.3033 4.56261 43.3682 4.7133L44.8165 8.06614L48.5627 8.38635C48.743 8.41147 48.8846 8.46798 48.9876 8.55588C49.0905 8.64378 49.1678 8.7568 49.2193 8.89493C49.2708 9.03306 49.2806 9.17446 49.2486 9.31912C49.2167 9.46378 49.1361 9.59237 49.0069 9.70489L46.1682 12.0971L47.0179 15.6571C47.0565 15.8204 47.0436 15.968 46.9792 16.1001C46.9149 16.2323 46.8248 16.342 46.7089 16.4294C46.593 16.5173 46.4579 16.5675 46.3034 16.5801C46.1489 16.5927 46.0008 16.555 45.8592 16.4671L42.6537 14.5835Z" fill="#F9C510"/>
<path d="M59.1561 14.5835L55.9505 16.4671C55.8089 16.555 55.6609 16.5927 55.5064 16.5801C55.3519 16.5675 55.2167 16.5173 55.1009 16.4294C54.985 16.3415 54.8949 16.2315 54.8305 16.0994C54.7661 15.9673 54.7533 15.8199 54.7919 15.6571L55.6416 12.0971L52.8029 9.70489C52.6742 9.59187 52.5938 9.46303 52.5619 9.31837C52.53 9.17371 52.5395 9.03256 52.5905 8.89493C52.642 8.7568 52.7192 8.64378 52.8222 8.55588C52.9252 8.46798 53.0668 8.41147 53.247 8.38635L56.9933 8.06614L58.4416 4.7133C58.506 4.56261 58.6059 4.44959 58.7413 4.37425C58.8767 4.2989 59.015 4.26123 59.1561 4.26123C59.2977 4.26123 59.436 4.2989 59.5709 4.37425C59.7058 4.44959 59.8057 4.56261 59.8706 4.7133L61.3189 8.06614L65.0652 8.38635C65.2454 8.41147 65.387 8.46798 65.49 8.55588C65.593 8.64378 65.6702 8.7568 65.7217 8.89493C65.7732 9.03306 65.783 9.17446 65.7511 9.31912C65.7192 9.46378 65.6386 9.59237 65.5093 9.70489L62.6706 12.0971L63.5203 15.6571C63.5589 15.8204 63.5461 15.968 63.4817 16.1001C63.4173 16.2323 63.3272 16.342 63.2113 16.4294C63.0955 16.5173 62.9603 16.5675 62.8058 16.5801C62.6513 16.5927 62.5033 16.555 62.3617 16.4671L59.1561 14.5835Z" fill="#F9C510"/>
<path d="M74.7416 14.5835L71.536 16.4671C71.3944 16.555 71.2463 16.5927 71.0918 16.5801C70.9374 16.5675 70.8022 16.5173 70.6863 16.4294C70.5704 16.3415 70.4803 16.2315 70.416 16.0994C70.3516 15.9673 70.3387 15.8199 70.3773 15.6571L71.227 12.0971L68.3883 9.70489C68.2596 9.59187 68.1793 9.46303 68.1473 9.31837C68.1154 9.17371 68.1249 9.03256 68.1759 8.89493C68.2274 8.7568 68.3047 8.64378 68.4077 8.55588C68.5106 8.46798 68.6523 8.41147 68.8325 8.38635L72.5788 8.06614L74.0271 4.7133C74.0914 4.56261 74.1913 4.44959 74.3268 4.37425C74.4622 4.2989 74.6005 4.26123 74.7416 4.26123C74.8832 4.26123 75.0214 4.2989 75.1563 4.37425C75.2913 4.44959 75.3912 4.56261 75.456 4.7133L76.9043 8.06614L80.6506 8.38635C80.8308 8.41147 80.9725 8.46798 81.0754 8.55588C81.1784 8.64378 81.2557 8.7568 81.3072 8.89493C81.3587 9.03306 81.3685 9.17446 81.3365 9.31912C81.3046 9.46378 81.224 9.59237 81.0948 9.70489L78.2561 12.0971L79.1058 15.6571C79.1444 15.8204 79.1315 15.968 79.0671 16.1001C79.0028 16.2323 78.9127 16.342 78.7968 16.4294C78.6809 16.5173 78.5458 16.5675 78.3913 16.5801C78.2368 16.5927 78.0887 16.555 77.9471 16.4671L74.7416 14.5835Z" fill="#F9C510"/>
</svg>
