<svg width="86" height="19" viewBox="0 0 86 19" fill="none" xmlns="http://www.w3.org/2000/svg">
<path d="M9.30183 14.5884L6.08456 16.4727C5.94243 16.5607 5.79384 16.5984 5.63879 16.5858C5.48374 16.5732 5.34807 16.523 5.23179 16.4351C5.1155 16.3471 5.02505 16.2371 4.96045 16.1049C4.89585 15.9728 4.88292 15.8253 4.92169 15.6625L5.77446 12.1011L2.92543 9.70796C2.79622 9.5949 2.71559 9.46601 2.68355 9.32129C2.65151 9.17657 2.66107 9.03537 2.71223 8.89769C2.76392 8.7595 2.84144 8.64644 2.94481 8.55851C3.04817 8.47057 3.1903 8.41404 3.37119 8.38892L7.13114 8.06858L8.58473 4.71445C8.64933 4.5637 8.7496 4.45064 8.88553 4.37527C9.02145 4.29989 9.16022 4.26221 9.30183 4.26221C9.44396 4.26221 9.58273 4.29989 9.71814 4.37527C9.85355 4.45064 9.95382 4.5637 10.0189 4.71445L11.4725 8.06858L15.2325 8.38892C15.4134 8.41404 15.5555 8.47057 15.6589 8.55851C15.7622 8.64644 15.8398 8.7595 15.8914 8.89769C15.9431 9.03587 15.9529 9.17733 15.9209 9.32204C15.8889 9.46676 15.808 9.5954 15.6782 9.70796L12.8292 12.1011L13.682 15.6625C13.7207 15.8258 13.7078 15.9735 13.6432 16.1057C13.5786 16.2378 13.4882 16.3476 13.3719 16.4351C13.2556 16.523 13.1199 16.5732 12.9649 16.5858C12.8098 16.5984 12.6612 16.5607 12.5191 16.4727L9.30183 14.5884Z" fill="#F9C510"/>
<path d="M26.047 14.5884L22.8297 16.4727C22.6875 16.5607 22.539 16.5984 22.3839 16.5858C22.2289 16.5732 22.0932 16.523 21.9769 16.4351C21.8606 16.3471 21.7702 16.2371 21.7056 16.1049C21.641 15.9728 21.628 15.8253 21.6668 15.6625L22.5196 12.1011L19.6705 9.70796C19.5413 9.5949 19.4607 9.46601 19.4287 9.32129C19.3966 9.17657 19.4062 9.03537 19.4573 8.89769C19.509 8.7595 19.5866 8.64644 19.6899 8.55851C19.7933 8.47057 19.9354 8.41404 20.1163 8.38892L23.8763 8.06858L25.3298 4.71445C25.3945 4.5637 25.4947 4.45064 25.6306 4.37527C25.7666 4.29989 25.9053 4.26221 26.047 4.26221C26.1891 4.26221 26.3278 4.29989 26.4633 4.37527C26.5987 4.45064 26.6989 4.5637 26.7641 4.71445L28.2176 8.06858L31.9776 8.38892C32.1585 8.41404 32.3006 8.47057 32.404 8.55851C32.5073 8.64644 32.5849 8.7595 32.6366 8.89769C32.6882 9.03587 32.6981 9.17733 32.666 9.32204C32.634 9.46676 32.5531 9.5954 32.4234 9.70796L29.5743 12.1011L30.4271 15.6625C30.4659 15.8258 30.4529 15.9735 30.3883 16.1057C30.3237 16.2378 30.2333 16.3476 30.117 16.4351C30.0007 16.523 29.865 16.5732 29.71 16.5858C29.5549 16.5984 29.4064 16.5607 29.2642 16.4727L26.047 14.5884Z" fill="#F9C510"/>
<path d="M42.7923 14.5884L39.575 16.4727C39.4329 16.5607 39.2843 16.5984 39.1293 16.5858C38.9742 16.5732 38.8386 16.523 38.7223 16.4351C38.606 16.3471 38.5155 16.2371 38.4509 16.1049C38.3863 15.9728 38.3734 15.8253 38.4122 15.6625L39.2649 12.1011L36.4159 9.70796C36.2867 9.5949 36.2061 9.46601 36.174 9.32129C36.142 9.17657 36.1515 9.03537 36.2027 8.89769C36.2544 8.7595 36.3319 8.64644 36.4353 8.55851C36.5387 8.47057 36.6808 8.41404 36.8617 8.38892L40.6216 8.06858L42.0752 4.71445C42.1398 4.5637 42.2401 4.45064 42.376 4.37527C42.5119 4.29989 42.6507 4.26221 42.7923 4.26221C42.9344 4.26221 43.0732 4.29989 43.2086 4.37527C43.344 4.45064 43.4443 4.5637 43.5094 4.71445L44.963 8.06858L48.723 8.38892C48.9038 8.41404 49.046 8.47057 49.1493 8.55851C49.2527 8.64644 49.3302 8.7595 49.3819 8.89769C49.4336 9.03587 49.4434 9.17733 49.4114 9.32204C49.3793 9.46676 49.2984 9.5954 49.1687 9.70796L46.3197 12.1011L47.1725 15.6625C47.2112 15.8258 47.1983 15.9735 47.1337 16.1057C47.0691 16.2378 46.9786 16.3476 46.8624 16.4351C46.7461 16.523 46.6104 16.5732 46.4554 16.5858C46.3003 16.5984 46.1517 16.5607 46.0096 16.4727L42.7923 14.5884Z" fill="#F9C510"/>
<path d="M59.5382 14.5884L56.3209 16.4727C56.1788 16.5607 56.0302 16.5984 55.8751 16.5858C55.7201 16.5732 55.5844 16.523 55.4681 16.4351C55.3518 16.3471 55.2614 16.2371 55.1968 16.1049C55.1322 15.9728 55.1193 15.8253 55.158 15.6625L56.0108 12.1011L53.1618 9.70796C53.0325 9.5949 52.9519 9.46601 52.9199 9.32129C52.8878 9.17657 52.8974 9.03537 52.9486 8.89769C53.0002 8.7595 53.0778 8.64644 53.1811 8.55851C53.2845 8.47057 53.4266 8.41404 53.6075 8.38892L57.3675 8.06858L58.8211 4.71445C58.8857 4.5637 58.9859 4.45064 59.1219 4.37527C59.2578 4.29989 59.3966 4.26221 59.5382 4.26221C59.6803 4.26221 59.8191 4.29989 59.9545 4.37527C60.0899 4.45064 60.1901 4.5637 60.2553 4.71445L61.7089 8.06858L65.4688 8.38892C65.6497 8.41404 65.7918 8.47057 65.8952 8.55851C65.9986 8.64644 66.0761 8.7595 66.1278 8.89769C66.1794 9.03587 66.1893 9.17733 66.1572 9.32204C66.1252 9.46676 66.0443 9.5954 65.9146 9.70796L63.0655 12.1011L63.9183 15.6625C63.9571 15.8258 63.9442 15.9735 63.8795 16.1057C63.8149 16.2378 63.7245 16.3476 63.6082 16.4351C63.4919 16.523 63.3563 16.5732 63.2012 16.5858C63.0462 16.5984 62.8976 16.5607 62.7554 16.4727L59.5382 14.5884Z" fill="#F9C510"/>
<path d="M76.2833 6.93797V12.8171L78.7253 14.2681L78.0857 11.5546L80.237 9.74564L77.4074 9.50068L76.2833 6.93797ZM76.2833 14.5884L73.066 16.4727C72.9239 16.5607 72.7753 16.5984 72.6202 16.5858C72.4652 16.5732 72.3295 16.523 72.2132 16.4351C72.0969 16.3471 72.0065 16.2371 71.9419 16.1049C71.8773 15.9728 71.8644 15.8253 71.9031 15.6625L72.7559 12.1011L69.9069 9.70796C69.7777 9.5949 69.697 9.46601 69.665 9.32129C69.633 9.17657 69.6425 9.03537 69.6937 8.89769C69.7454 8.7595 69.8229 8.64644 69.9263 8.55851C70.0296 8.47057 70.1717 8.41404 70.3526 8.38892L74.1126 8.06858L75.5662 4.71445C75.6308 4.5637 75.731 4.45064 75.867 4.37527C76.0029 4.29989 76.1417 4.26221 76.2833 4.26221C76.4254 4.26221 76.5642 4.29989 76.6996 4.37527C76.835 4.45064 76.9353 4.5637 77.0004 4.71445L78.454 8.06858L82.2139 8.38892C82.3948 8.41404 82.5369 8.47057 82.6403 8.55851C82.7437 8.64644 82.8212 8.7595 82.8729 8.89769C82.9246 9.03587 82.9344 9.17733 82.9023 9.32204C82.8703 9.46676 82.7894 9.5954 82.6597 9.70796L79.8107 12.1011L80.6634 15.6625C80.7022 15.8258 80.6893 15.9735 80.6247 16.1057C80.5601 16.2378 80.4696 16.3476 80.3533 16.4351C80.237 16.523 80.1014 16.5732 79.9463 16.5858C79.7913 16.5984 79.6427 16.5607 79.5006 16.4727L76.2833 14.5884Z" fill="#F9C510"/>
</svg>
