<svg width="85" height="20" viewBox="0 0 85 20" fill="none" xmlns="http://www.w3.org/2000/svg">
<path d="M9.82141 14.7082L6.59098 16.5881C6.44827 16.6759 6.29907 16.7135 6.14339 16.7009C5.9877 16.6884 5.85148 16.6383 5.73472 16.5505C5.61795 16.4628 5.52714 16.353 5.46227 16.2212C5.3974 16.0893 5.38443 15.9422 5.42335 15.7798L6.27961 12.2267L3.41892 9.83922C3.28919 9.72643 3.20823 9.59784 3.17606 9.45346C3.14388 9.30908 3.15348 9.16822 3.20486 9.03086C3.25675 8.893 3.33459 8.7802 3.43838 8.69247C3.54217 8.60474 3.68488 8.54834 3.86651 8.52328L7.64184 8.20369L9.10137 4.85743C9.16624 4.70704 9.26692 4.59424 9.4034 4.51905C9.53988 4.44385 9.67922 4.40625 9.82141 4.40625C9.96412 4.40625 10.1035 4.44385 10.2394 4.51905C10.3754 4.59424 10.4761 4.70704 10.5414 4.85743L12.001 8.20369L15.7763 8.52328C15.9579 8.54834 16.1007 8.60474 16.2044 8.69247C16.3082 8.7802 16.3861 8.893 16.438 9.03086C16.4899 9.16872 16.4997 9.30984 16.4675 9.45421C16.4354 9.59859 16.3542 9.72693 16.2239 9.83922L13.3632 12.2267L14.2195 15.7798C14.2584 15.9427 14.2454 16.0901 14.1806 16.2219C14.1157 16.3538 14.0249 16.4633 13.9081 16.5505C13.7913 16.6383 13.6551 16.6884 13.4994 16.7009C13.3438 16.7135 13.1946 16.6759 13.0518 16.5881L9.82141 14.7082Z" fill="#F9C510"/>
<path d="M25.9357 14.7082L22.7052 16.5881C22.5625 16.6759 22.4133 16.7135 22.2576 16.7009C22.102 16.6884 21.9657 16.6383 21.849 16.5505C21.7322 16.4628 21.6414 16.353 21.5765 16.2212C21.5117 16.0893 21.4987 15.9422 21.5376 15.7798L22.3939 12.2267L19.5332 9.83922C19.4034 9.72643 19.3225 9.59784 19.2903 9.45346C19.2581 9.30908 19.2677 9.16822 19.3191 9.03086C19.371 8.893 19.4489 8.7802 19.5526 8.69247C19.6564 8.60474 19.7991 8.54834 19.9808 8.52328L23.7561 8.20369L25.2156 4.85743C25.2805 4.70704 25.3812 4.59424 25.5177 4.51905C25.6541 4.44385 25.7935 4.40625 25.9357 4.40625C26.0784 4.40625 26.2177 4.44385 26.3537 4.51905C26.4896 4.59424 26.5903 4.70704 26.6557 4.85743L28.1152 8.20369L31.8906 8.52328C32.0722 8.54834 32.2149 8.60474 32.3187 8.69247C32.4225 8.7802 32.5003 8.893 32.5522 9.03086C32.6041 9.16872 32.614 9.30984 32.5818 9.45421C32.5496 9.59859 32.4684 9.72693 32.3382 9.83922L29.4775 12.2267L30.3337 15.7798C30.3727 15.9427 30.3597 16.0901 30.2948 16.2219C30.2299 16.3538 30.1391 16.4633 30.0224 16.5505C29.9056 16.6383 29.7694 16.6884 29.6137 16.7009C29.458 16.7135 29.3088 16.6759 29.1661 16.5881L25.9357 14.7082Z" fill="#F9C510"/>
<path d="M43.0851 14.7082L39.8546 16.5881C39.7119 16.6759 39.5627 16.7135 39.4071 16.7009C39.2514 16.6884 39.1152 16.6383 38.9984 16.5505C38.8816 16.4628 38.7908 16.353 38.7259 16.2212C38.6611 16.0893 38.6481 15.9422 38.687 15.7798L39.5433 12.2267L36.6826 9.83922C36.5529 9.72643 36.4719 9.59784 36.4397 9.45346C36.4076 9.30908 36.4172 9.16822 36.4685 9.03086C36.5204 8.893 36.5983 8.7802 36.7021 8.69247C36.8058 8.60474 36.9486 8.54834 37.1302 8.52328L40.9055 8.20369L42.365 4.85743C42.4299 4.70704 42.5306 4.59424 42.6671 4.51905C42.8036 4.44385 42.9429 4.40625 43.0851 4.40625C43.2278 4.40625 43.3671 4.44385 43.5031 4.51905C43.6391 4.59424 43.7397 4.70704 43.8051 4.85743L45.2647 8.20369L49.04 8.52328C49.2216 8.54834 49.3643 8.60474 49.4681 8.69247C49.5719 8.7802 49.6497 8.893 49.7016 9.03086C49.7535 9.16872 49.7634 9.30984 49.7312 9.45421C49.699 9.59859 49.6178 9.72693 49.4876 9.83922L46.6269 12.2267L47.4831 15.7798C47.5221 15.9427 47.5091 16.0901 47.4442 16.2219C47.3794 16.3538 47.2885 16.4633 47.1718 16.5505C47.055 16.6383 46.9188 16.6884 46.7631 16.7009C46.6074 16.7135 46.4582 16.6759 46.3155 16.5881L43.0851 14.7082Z" fill="#F9C510"/>
<path d="M59.7155 14.7082L56.485 16.5881C56.3423 16.6759 56.1931 16.7135 56.0374 16.7009C55.8817 16.6884 55.7455 16.6383 55.6288 16.5505C55.512 16.4628 55.4212 16.353 55.3563 16.2212C55.2914 16.0893 55.2785 15.9422 55.3174 15.7798L56.1737 12.2267L53.313 9.83922C53.1832 9.72643 53.1023 9.59784 53.0701 9.45346C53.0379 9.30908 53.0475 9.16822 53.0989 9.03086C53.1508 8.893 53.2286 8.7802 53.3324 8.69247C53.4362 8.60474 53.5789 8.54834 53.7606 8.52328L57.5359 8.20369L58.9954 4.85743C59.0603 4.70704 59.161 4.59424 59.2974 4.51905C59.4339 4.44385 59.5733 4.40625 59.7155 4.40625C59.8582 4.40625 59.9975 4.44385 60.1335 4.51905C60.2694 4.59424 60.3701 4.70704 60.4355 4.85743L61.895 8.20369L65.6704 8.52328C65.852 8.54834 65.9947 8.60474 66.0985 8.69247C66.2023 8.7802 66.2801 8.893 66.332 9.03086C66.3839 9.16872 66.3938 9.30984 66.3616 9.45421C66.3294 9.59859 66.2482 9.72693 66.1179 9.83922L63.2573 12.2267L64.1135 15.7798C64.1524 15.9427 64.1395 16.0901 64.0746 16.2219C64.0097 16.3538 63.9189 16.4633 63.8021 16.5505C63.6854 16.6383 63.5492 16.6884 63.3935 16.7009C63.2378 16.7135 63.0886 16.6759 62.9459 16.5881L59.7155 14.7082Z" fill="#F9C510"/>
<path d="M75.4218 14.7082L72.1913 16.5881C72.0486 16.6759 71.8994 16.7135 71.7437 16.7009C71.588 16.6884 71.4518 16.6383 71.3351 16.5505C71.2183 16.4628 71.1275 16.353 71.0626 16.2212C70.9977 16.0893 70.9848 15.9422 71.0237 15.7798L71.88 12.2267L69.0193 9.83922C68.8895 9.72643 68.8086 9.59784 68.7764 9.45346C68.7442 9.30908 68.7538 9.16822 68.8052 9.03086C68.8571 8.893 68.9349 8.7802 69.0387 8.69247C69.1425 8.60474 69.2852 8.54834 69.4669 8.52328L73.2422 8.20369L74.7017 4.85743C74.7666 4.70704 74.8673 4.59424 75.0037 4.51905C75.1402 4.44385 75.2796 4.40625 75.4218 4.40625C75.5645 4.40625 75.7038 4.44385 75.8398 4.51905C75.9757 4.59424 76.0764 4.70704 76.1418 4.85743L77.6013 8.20369L81.3767 8.52328C81.5583 8.54834 81.701 8.60474 81.8048 8.69247C81.9086 8.7802 81.9864 8.893 82.0383 9.03086C82.0902 9.16872 82.1001 9.30984 82.0679 9.45421C82.0357 9.59859 81.9545 9.72693 81.8242 9.83922L78.9636 12.2267L79.8198 15.7798C79.8587 15.9427 79.8458 16.0901 79.7809 16.2219C79.716 16.3538 79.6252 16.4633 79.5084 16.5505C79.3917 16.6383 79.2555 16.6884 79.0998 16.7009C78.9441 16.7135 78.7949 16.6759 78.6522 16.5881L75.4218 14.7082Z" fill="#F9C510"/>
</svg>
