<svg width="87" height="19" viewBox="0 0 87 19" fill="none" xmlns="http://www.w3.org/2000/svg">
<path d="M10.1895 14.5884L6.97225 16.4727C6.83012 16.5607 6.68154 16.5984 6.52649 16.5858C6.37144 16.5732 6.23577 16.523 6.11948 16.4351C6.00319 16.3471 5.91275 16.2371 5.84815 16.1049C5.78354 15.9728 5.77062 15.8253 5.80938 15.6625L6.66215 12.1011L3.81312 9.70796C3.68391 9.5949 3.60329 9.46601 3.57124 9.32129C3.5392 9.17657 3.54876 9.03537 3.59993 8.89769C3.65161 8.7595 3.72914 8.64644 3.8325 8.55851C3.93587 8.47057 4.078 8.41404 4.25889 8.38892L8.01884 8.06858L9.47243 4.71445C9.53703 4.5637 9.6373 4.45064 9.77322 4.37527C9.90915 4.29989 10.0479 4.26221 10.1895 4.26221C10.3317 4.26221 10.4704 4.29989 10.6058 4.37527C10.7412 4.45064 10.8415 4.5637 10.9066 4.71445L12.3602 8.06858L16.1202 8.38892C16.3011 8.41404 16.4432 8.47057 16.5466 8.55851C16.6499 8.64644 16.7274 8.7595 16.7791 8.89769C16.8308 9.03587 16.8406 9.17733 16.8086 9.32204C16.7765 9.46676 16.6957 9.5954 16.5659 9.70796L13.7169 12.1011L14.5697 15.6625C14.6084 15.8258 14.5955 15.9735 14.5309 16.1057C14.4663 16.2378 14.3759 16.3476 14.2596 16.4351C14.1433 16.523 14.0076 16.5732 13.8526 16.5858C13.6975 16.5984 13.5489 16.5607 13.4068 16.4727L10.1895 14.5884Z" fill="#F9C510"/>
<path d="M26.9346 14.5884L23.7174 16.4727C23.5752 16.5607 23.4267 16.5984 23.2716 16.5858C23.1166 16.5732 22.9809 16.523 22.8646 16.4351C22.7483 16.3471 22.6579 16.2371 22.5933 16.1049C22.5287 15.9728 22.5157 15.8253 22.5545 15.6625L23.4073 12.1011L20.5582 9.70796C20.429 9.5949 20.3484 9.46601 20.3164 9.32129C20.2843 9.17657 20.2939 9.03537 20.345 8.89769C20.3967 8.7595 20.4743 8.64644 20.5776 8.55851C20.681 8.47057 20.8231 8.41404 21.004 8.38892L24.764 8.06858L26.2175 4.71445C26.2821 4.5637 26.3824 4.45064 26.5183 4.37527C26.6543 4.29989 26.793 4.26221 26.9346 4.26221C27.0768 4.26221 27.2155 4.29989 27.351 4.37527C27.4864 4.45064 27.5866 4.5637 27.6518 4.71445L29.1053 8.06858L32.8653 8.38892C33.0462 8.41404 33.1883 8.47057 33.2917 8.55851C33.395 8.64644 33.4726 8.7595 33.5242 8.89769C33.5759 9.03587 33.5858 9.17733 33.5537 9.32204C33.5217 9.46676 33.4408 9.5954 33.3111 9.70796L30.462 12.1011L31.3148 15.6625C31.3536 15.8258 31.3406 15.9735 31.276 16.1057C31.2114 16.2378 31.121 16.3476 31.0047 16.4351C30.8884 16.523 30.7527 16.5732 30.5977 16.5858C30.4426 16.5984 30.2941 16.5607 30.1519 16.4727L26.9346 14.5884Z" fill="#F9C510"/>
<path d="M43.68 14.5884L40.4627 16.4727C40.3206 16.5607 40.172 16.5984 40.017 16.5858C39.8619 16.5732 39.7262 16.523 39.61 16.4351C39.4937 16.3471 39.4032 16.2371 39.3386 16.1049C39.274 15.9728 39.2611 15.8253 39.2999 15.6625L40.1526 12.1011L37.3036 9.70796C37.1744 9.5949 37.0938 9.46601 37.0617 9.32129C37.0297 9.17657 37.0392 9.03537 37.0904 8.89769C37.1421 8.7595 37.2196 8.64644 37.323 8.55851C37.4263 8.47057 37.5685 8.41404 37.7494 8.38892L41.5093 8.06858L42.9629 4.71445C43.0275 4.5637 43.1278 4.45064 43.2637 4.37527C43.3996 4.29989 43.5384 4.26221 43.68 4.26221C43.8221 4.26221 43.9609 4.29989 44.0963 4.37527C44.2317 4.45064 44.332 4.5637 44.3971 4.71445L45.8507 8.06858L49.6106 8.38892C49.7915 8.41404 49.9337 8.47057 50.037 8.55851C50.1404 8.64644 50.2179 8.7595 50.2696 8.89769C50.3213 9.03587 50.3311 9.17733 50.2991 9.32204C50.267 9.46676 50.1861 9.5954 50.0564 9.70796L47.2074 12.1011L48.0602 15.6625C48.0989 15.8258 48.086 15.9735 48.0214 16.1057C47.9568 16.2378 47.8663 16.3476 47.7501 16.4351C47.6338 16.523 47.4981 16.5732 47.3431 16.5858C47.188 16.5984 47.0394 16.5607 46.8973 16.4727L43.68 14.5884Z" fill="#F9C510"/>
<path d="M60.4259 14.5884L57.2086 16.4727C57.0665 16.5607 56.9179 16.5984 56.7628 16.5858C56.6078 16.5732 56.4721 16.523 56.3558 16.4351C56.2395 16.3471 56.1491 16.2371 56.0845 16.1049C56.0199 15.9728 56.0069 15.8253 56.0457 15.6625L56.8985 12.1011L54.0494 9.70796C53.9202 9.5949 53.8396 9.46601 53.8076 9.32129C53.7755 9.17657 53.7851 9.03537 53.8363 8.89769C53.8879 8.7595 53.9655 8.64644 54.0688 8.55851C54.1722 8.47057 54.3143 8.41404 54.4952 8.38892L58.2552 8.06858L59.7088 4.71445C59.7734 4.5637 59.8736 4.45064 60.0096 4.37527C60.1455 4.29989 60.2842 4.26221 60.4259 4.26221C60.568 4.26221 60.7068 4.29989 60.8422 4.37527C60.9776 4.45064 61.0778 4.5637 61.143 4.71445L62.5965 8.06858L66.3565 8.38892C66.5374 8.41404 66.6795 8.47057 66.7829 8.55851C66.8863 8.64644 66.9638 8.7595 67.0155 8.89769C67.0671 9.03587 67.077 9.17733 67.0449 9.32204C67.0129 9.46676 66.932 9.5954 66.8023 9.70796L63.9532 12.1011L64.806 15.6625C64.8448 15.8258 64.8318 15.9735 64.7672 16.1057C64.7026 16.2378 64.6122 16.3476 64.4959 16.4351C64.3796 16.523 64.244 16.5732 64.0889 16.5858C63.9339 16.5984 63.7853 16.5607 63.6431 16.4727L60.4259 14.5884Z" fill="#F9C510"/>
<path d="M77.171 6.93797V12.8171L79.613 14.2681L78.9734 11.5546L81.1247 9.74564L78.2951 9.50068L77.171 6.93797ZM77.171 14.5884L73.9537 16.4727C73.8116 16.5607 73.663 16.5984 73.5079 16.5858C73.3529 16.5732 73.2172 16.523 73.1009 16.4351C72.9846 16.3471 72.8942 16.2371 72.8296 16.1049C72.765 15.9728 72.7521 15.8253 72.7908 15.6625L73.6436 12.1011L70.7946 9.70796C70.6654 9.5949 70.5847 9.46601 70.5527 9.32129C70.5206 9.17657 70.5302 9.03537 70.5814 8.89769C70.6331 8.7595 70.7106 8.64644 70.8139 8.55851C70.9173 8.47057 71.0594 8.41404 71.2403 8.38892L75.0003 8.06858L76.4539 4.71445C76.5185 4.5637 76.6187 4.45064 76.7547 4.37527C76.8906 4.29989 77.0294 4.26221 77.171 4.26221C77.3131 4.26221 77.4519 4.29989 77.5873 4.37527C77.7227 4.45064 77.823 4.5637 77.8881 4.71445L79.3417 8.06858L83.1016 8.38892C83.2825 8.41404 83.4246 8.47057 83.528 8.55851C83.6314 8.64644 83.7089 8.7595 83.7606 8.89769C83.8123 9.03587 83.8221 9.17733 83.79 9.32204C83.758 9.46676 83.6771 9.5954 83.5474 9.70796L80.6983 12.1011L81.5511 15.6625C81.5899 15.8258 81.577 15.9735 81.5124 16.1057C81.4478 16.2378 81.3573 16.3476 81.241 16.4351C81.1247 16.523 80.9891 16.5732 80.834 16.5858C80.679 16.5984 80.5304 16.5607 80.3883 16.4727L77.171 14.5884Z" fill="#F9C510"/>
</svg>
