<svg width="85" height="19" viewBox="0 0 85 19" fill="none" xmlns="http://www.w3.org/2000/svg">
<path d="M9.71851 14.4822L6.49062 16.3643C6.34802 16.4521 6.19894 16.4898 6.04338 16.4772C5.88782 16.4647 5.7517 16.4145 5.63503 16.3267C5.51836 16.2388 5.42762 16.1289 5.3628 15.9969C5.29798 15.8649 5.28502 15.7176 5.32391 15.555L6.1795 11.9979L3.32106 9.60766C3.19143 9.49473 3.11053 9.366 3.07839 9.22146C3.04624 9.07691 3.05583 8.93588 3.10716 8.79837C3.15902 8.66035 3.2368 8.54742 3.34051 8.45959C3.44421 8.37176 3.58681 8.3153 3.7683 8.2902L7.54066 7.97025L8.99904 4.62016C9.06386 4.46959 9.16446 4.35666 9.30083 4.28138C9.43721 4.2061 9.57644 4.16846 9.71851 4.16846C9.86111 4.16846 10.0003 4.2061 10.1362 4.28138C10.2721 4.35666 10.3726 4.46959 10.438 4.62016L11.8964 7.97025L15.6687 8.2902C15.8502 8.3153 15.9928 8.37176 16.0965 8.45959C16.2002 8.54742 16.278 8.66035 16.3299 8.79837C16.3817 8.93638 16.3916 9.07767 16.3594 9.22221C16.3273 9.36675 16.2461 9.49524 16.116 9.60766L13.2575 11.9979L14.1131 15.555C14.152 15.7181 14.139 15.8657 14.0742 15.9977C14.0094 16.1297 13.9187 16.2393 13.802 16.3267C13.6853 16.4145 13.5492 16.4647 13.3936 16.4772C13.2381 16.4898 13.089 16.4521 12.9464 16.3643L9.71851 14.4822Z" fill="#F9C510"/>
<path d="M25.8198 14.4822L22.5919 16.3643C22.4493 16.4521 22.3003 16.4898 22.1447 16.4772C21.9891 16.4647 21.853 16.4145 21.7364 16.3267C21.6197 16.2388 21.5289 16.1289 21.4641 15.9969C21.3993 15.8649 21.3863 15.7176 21.4252 15.555L22.2808 11.9979L19.4224 9.60765C19.2927 9.49472 19.2119 9.36599 19.1797 9.22145C19.1476 9.0769 19.1571 8.93587 19.2085 8.79836C19.2603 8.66034 19.3381 8.54741 19.4418 8.45958C19.5455 8.37175 19.6881 8.31529 19.8696 8.2902L23.642 7.97025L25.1004 4.62015C25.1652 4.46959 25.2658 4.35666 25.4022 4.28138C25.5385 4.2061 25.6778 4.16846 25.8198 4.16846C25.9624 4.16846 26.1017 4.2061 26.2375 4.28138C26.3734 4.35666 26.474 4.46959 26.5393 4.62015L27.9977 7.97025L31.77 8.2902C31.9515 8.31529 32.0941 8.37175 32.1978 8.45958C32.3015 8.54741 32.3793 8.66034 32.4312 8.79836C32.483 8.93638 32.4929 9.07766 32.4607 9.2222C32.4286 9.36674 32.3474 9.49523 32.2173 9.60765L29.3588 11.9979L30.2144 15.555C30.2533 15.7181 30.2404 15.8657 30.1755 15.9977C30.1107 16.1297 30.02 16.2393 29.9033 16.3267C29.7866 16.4145 29.6505 16.4647 29.495 16.4772C29.3394 16.4898 29.1903 16.4521 29.0477 16.3643L25.8198 14.4822Z" fill="#F9C510"/>
<path d="M42.9558 14.4822L39.7279 16.3643C39.5853 16.4521 39.4362 16.4898 39.2807 16.4772C39.1251 16.4647 38.989 16.4145 38.8723 16.3267C38.7557 16.2388 38.6649 16.1289 38.6001 15.9969C38.5353 15.8649 38.5223 15.7176 38.5612 15.555L39.4168 11.9979L36.5584 9.60765C36.4287 9.49472 36.3478 9.36599 36.3157 9.22145C36.2835 9.0769 36.2931 8.93587 36.3445 8.79836C36.3963 8.66034 36.4741 8.54741 36.5778 8.45958C36.6815 8.37175 36.8241 8.31529 37.0056 8.2902L40.778 7.97025L42.2363 4.62015C42.3012 4.46959 42.4018 4.35666 42.5381 4.28138C42.6745 4.2061 42.8137 4.16846 42.9558 4.16846C43.0984 4.16846 43.2376 4.2061 43.3735 4.28138C43.5094 4.35666 43.61 4.46959 43.6753 4.62015L45.1337 7.97025L48.906 8.2902C49.0875 8.31529 49.2301 8.37175 49.3338 8.45958C49.4375 8.54741 49.5153 8.66034 49.5672 8.79836C49.619 8.93638 49.6289 9.07766 49.5967 9.2222C49.5646 9.36674 49.4834 9.49523 49.3533 9.60765L46.4948 11.9979L47.3504 15.555C47.3893 15.7181 47.3763 15.8657 47.3115 15.9977C47.2467 16.1297 47.156 16.2393 47.0393 16.3267C46.9226 16.4145 46.7865 16.4647 46.631 16.4772C46.4754 16.4898 46.3263 16.4521 46.1837 16.3643L42.9558 14.4822Z" fill="#F9C510"/>
<path d="M59.5733 14.4822L56.3454 16.3643C56.2028 16.4521 56.0537 16.4898 55.8981 16.4772C55.7426 16.4647 55.6064 16.4145 55.4898 16.3267C55.3731 16.2388 55.2824 16.1289 55.2175 15.9969C55.1527 15.8649 55.1398 15.7176 55.1786 15.555L56.0342 11.9979L53.1758 9.60765C53.0462 9.49472 52.9653 9.36599 52.9331 9.22145C52.901 9.0769 52.9106 8.93587 52.9619 8.79836C53.0138 8.66034 53.0915 8.54741 53.1952 8.45958C53.2989 8.37175 53.4415 8.31529 53.623 8.2902L57.3954 7.97025L58.8538 4.62015C58.9186 4.46959 59.0192 4.35666 59.1556 4.28138C59.2919 4.2061 59.4312 4.16846 59.5733 4.16846C59.7158 4.16846 59.8551 4.2061 59.9909 4.28138C60.1268 4.35666 60.2274 4.46959 60.2927 4.62015L61.7511 7.97025L65.5235 8.2902C65.705 8.31529 65.8476 8.37175 65.9513 8.45958C66.055 8.54741 66.1327 8.66034 66.1846 8.79836C66.2365 8.93638 66.2463 9.07766 66.2142 9.2222C66.182 9.36674 66.1009 9.49523 65.9707 9.60765L63.1123 11.9979L63.9679 15.555C64.0067 15.7181 63.9938 15.8657 63.929 15.9977C63.8641 16.1297 63.7734 16.2393 63.6567 16.3267C63.5401 16.4145 63.4039 16.4647 63.2484 16.4772C63.0928 16.4898 62.9437 16.4521 62.8011 16.3643L59.5733 14.4822Z" fill="#F9C510"/>
<path d="M75.2671 14.4822L72.0392 16.3643C71.8966 16.4521 71.7475 16.4898 71.592 16.4772C71.4364 16.4647 71.3003 16.4145 71.1836 16.3267C71.0669 16.2388 70.9762 16.1289 70.9114 15.9969C70.8466 15.8649 70.8336 15.7176 70.8725 15.555L71.7281 11.9979L68.8696 9.60765C68.74 9.49472 68.6591 9.36599 68.627 9.22145C68.5948 9.0769 68.6044 8.93587 68.6557 8.79836C68.7076 8.66034 68.7854 8.54741 68.8891 8.45958C68.9928 8.37175 69.1354 8.31529 69.3169 8.2902L73.0892 7.97025L74.5476 4.62015C74.6124 4.46959 74.713 4.35666 74.8494 4.28138C74.9858 4.2061 75.125 4.16846 75.2671 4.16846C75.4097 4.16846 75.5489 4.2061 75.6848 4.28138C75.8206 4.35666 75.9212 4.46959 75.9866 4.62015L77.445 7.97025L81.2173 8.2902C81.3988 8.31529 81.5414 8.37175 81.6451 8.45958C81.7488 8.54741 81.8266 8.66034 81.8784 8.79836C81.9303 8.93638 81.9402 9.07766 81.908 9.2222C81.8759 9.36674 81.7947 9.49523 81.6645 9.60765L78.8061 11.9979L79.6617 15.555C79.7006 15.7181 79.6876 15.8657 79.6228 15.9977C79.558 16.1297 79.4672 16.2393 79.3506 16.3267C79.2339 16.4145 79.0978 16.4647 78.9422 16.4772C78.7867 16.4898 78.6376 16.4521 78.495 16.3643L75.2671 14.4822Z" fill="#F9C510"/>
</svg>
