<svg width="86" height="19" viewBox="0 0 86 19" fill="none" xmlns="http://www.w3.org/2000/svg">
<path d="M9.36795 14.5884L6.14857 16.4727C6.00634 16.5607 5.85766 16.5984 5.70251 16.5858C5.54735 16.5732 5.4116 16.523 5.29523 16.4351C5.17887 16.3471 5.08837 16.2371 5.02372 16.1049C4.95907 15.9728 4.94614 15.8253 4.98493 15.6625L5.83826 12.1011L2.98736 9.70796C2.85807 9.5949 2.77739 9.46601 2.74533 9.32129C2.71326 9.17657 2.72283 9.03537 2.77403 8.89769C2.82575 8.7595 2.90332 8.64644 3.00676 8.55851C3.11019 8.47057 3.25241 8.41404 3.43342 8.38892L7.19583 8.06858L8.65037 4.71445C8.71502 4.5637 8.81535 4.45064 8.95137 4.37527C9.08738 4.29989 9.22624 4.26221 9.36795 4.26221C9.51017 4.26221 9.64903 4.29989 9.78453 4.37527C9.92003 4.45064 10.0204 4.5637 10.0855 4.71445L11.5401 8.06858L15.3025 8.38892C15.4835 8.41404 15.6257 8.47057 15.7291 8.55851C15.8326 8.64644 15.9101 8.7595 15.9619 8.89769C16.0136 9.03587 16.0234 9.17733 15.9913 9.32204C15.9593 9.46676 15.8783 9.5954 15.7485 9.70796L12.8976 12.1011L13.751 15.6625C13.7898 15.8258 13.7768 15.9735 13.7122 16.1057C13.6475 16.2378 13.557 16.3476 13.4407 16.4351C13.3243 16.523 13.1885 16.5732 13.0334 16.5858C12.8782 16.5984 12.7296 16.5607 12.5873 16.4727L9.36795 14.5884Z" fill="#F9C510"/>
<path d="M26.1238 14.5884L22.9044 16.4727C22.7622 16.5607 22.6135 16.5984 22.4584 16.5858C22.3032 16.5732 22.1675 16.523 22.0511 16.4351C21.9347 16.3471 21.8442 16.2371 21.7796 16.1049C21.7149 15.9728 21.702 15.8253 21.7408 15.6625L22.5941 12.1011L19.7432 9.70796C19.6139 9.5949 19.5333 9.46601 19.5012 9.32129C19.4691 9.17657 19.4787 9.03537 19.5299 8.89769C19.5816 8.7595 19.6592 8.64644 19.7626 8.55851C19.8661 8.47057 20.0083 8.41404 20.1893 8.38892L23.9517 8.06858L25.4062 4.71445C25.4709 4.5637 25.5712 4.45064 25.7072 4.37527C25.8432 4.29989 25.9821 4.26221 26.1238 4.26221C26.266 4.26221 26.4049 4.29989 26.5404 4.37527C26.6759 4.45064 26.7762 4.5637 26.8414 4.71445L28.2959 8.06858L32.0583 8.38892C32.2393 8.41404 32.3816 8.47057 32.485 8.55851C32.5884 8.64644 32.666 8.7595 32.7177 8.89769C32.7694 9.03587 32.7793 9.17733 32.7472 9.32204C32.7151 9.46676 32.6342 9.5954 32.5044 9.70796L29.6535 12.1011L30.5068 15.6625C30.5456 15.8258 30.5327 15.9735 30.468 16.1057C30.4034 16.2378 30.3129 16.3476 30.1965 16.4351C30.0802 16.523 29.9444 16.5732 29.7892 16.5858C29.6341 16.5984 29.4854 16.5607 29.3432 16.4727L26.1238 14.5884Z" fill="#F9C510"/>
<path d="M42.8802 14.5884L39.6608 16.4727C39.5186 16.5607 39.3699 16.5984 39.2147 16.5858C39.0596 16.5732 38.9238 16.523 38.8074 16.4351C38.6911 16.3471 38.6006 16.2371 38.5359 16.1049C38.4713 15.9728 38.4584 15.8253 38.4971 15.6625L39.3505 12.1011L36.4996 9.70796C36.3703 9.5949 36.2896 9.46601 36.2575 9.32129C36.2255 9.17657 36.235 9.03537 36.2862 8.89769C36.338 8.7595 36.4155 8.64644 36.519 8.55851C36.6224 8.47057 36.7646 8.41404 36.9456 8.38892L40.708 8.06858L42.1626 4.71445C42.2272 4.5637 42.3276 4.45064 42.4636 4.37527C42.5996 4.29989 42.7385 4.26221 42.8802 4.26221C43.0224 4.26221 43.1612 4.29989 43.2967 4.37527C43.4322 4.45064 43.5326 4.5637 43.5977 4.71445L45.0523 8.06858L48.8147 8.38892C48.9957 8.41404 49.1379 8.47057 49.2413 8.55851C49.3448 8.64644 49.4224 8.7595 49.4741 8.89769C49.5258 9.03587 49.5356 9.17733 49.5036 9.32204C49.4715 9.46676 49.3905 9.5954 49.2607 9.70796L46.4098 12.1011L47.2632 15.6625C47.302 15.8258 47.289 15.9735 47.2244 16.1057C47.1597 16.2378 47.0692 16.3476 46.9529 16.4351C46.8365 16.523 46.7007 16.5732 46.5456 16.5858C46.3904 16.5984 46.2418 16.5607 46.0995 16.4727L42.8802 14.5884Z" fill="#F9C510"/>
<path d="M59.6372 14.5884L56.4179 16.4727C56.2756 16.5607 56.1269 16.5984 55.9718 16.5858C55.8166 16.5732 55.6809 16.523 55.5645 16.4351C55.4482 16.3471 55.3577 16.2371 55.293 16.1049C55.2284 15.9728 55.2154 15.8253 55.2542 15.6625L56.1076 12.1011L53.2567 9.70796C53.1274 9.5949 53.0467 9.46601 53.0146 9.32129C52.9826 9.17657 52.9921 9.03537 53.0433 8.89769C53.095 8.7595 53.1726 8.64644 53.276 8.55851C53.3795 8.47057 53.5217 8.41404 53.7027 8.38892L57.4651 8.06858L58.9197 4.71445C58.9843 4.5637 59.0846 4.45064 59.2207 4.37527C59.3567 4.29989 59.4955 4.26221 59.6372 4.26221C59.7795 4.26221 59.9183 4.29989 60.0538 4.37527C60.1893 4.45064 60.2896 4.5637 60.3548 4.71445L61.8093 8.06858L65.5718 8.38892C65.7528 8.41404 65.895 8.47057 65.9984 8.55851C66.1019 8.64644 66.1794 8.7595 66.2312 8.89769C66.2829 9.03587 66.2927 9.17733 66.2606 9.32204C66.2286 9.46676 66.1476 9.5954 66.0178 9.70796L63.1669 12.1011L64.0202 15.6625C64.059 15.8258 64.0461 15.9735 63.9815 16.1057C63.9168 16.2378 63.8263 16.3476 63.7099 16.4351C63.5936 16.523 63.4578 16.5732 63.3027 16.5858C63.1475 16.5984 62.9988 16.5607 62.8566 16.4727L59.6372 14.5884Z" fill="#F9C510"/>
<path d="M76.3931 6.93797V12.8171L78.8367 14.2681L78.1967 11.5546L80.3494 9.74564L77.5179 9.50068L76.3931 6.93797ZM76.3931 14.5884L73.1737 16.4727C73.0315 16.5607 72.8828 16.5984 72.7277 16.5858C72.5725 16.5732 72.4367 16.523 72.3204 16.4351C72.204 16.3471 72.1135 16.2371 72.0489 16.1049C71.9842 15.9728 71.9713 15.8253 72.0101 15.6625L72.8634 12.1011L70.0125 9.70796C69.8832 9.5949 69.8025 9.46601 69.7705 9.32129C69.7384 9.17657 69.748 9.03537 69.7992 8.89769C69.8509 8.7595 69.9285 8.64644 70.0319 8.55851C70.1353 8.47057 70.2776 8.41404 70.4586 8.38892L74.221 8.06858L75.6755 4.71445C75.7402 4.5637 75.8405 4.45064 75.9765 4.37527C76.1125 4.29989 76.2514 4.26221 76.3931 4.26221C76.5353 4.26221 76.6742 4.29989 76.8097 4.37527C76.9452 4.45064 77.0455 4.5637 77.1107 4.71445L78.5652 8.06858L82.3276 8.38892C82.5086 8.41404 82.6509 8.47057 82.7543 8.55851C82.8577 8.64644 82.9353 8.7595 82.987 8.89769C83.0387 9.03587 83.0486 9.17733 83.0165 9.32204C82.9844 9.46676 82.9035 9.5954 82.7737 9.70796L79.9228 12.1011L80.7761 15.6625C80.8149 15.8258 80.802 15.9735 80.7373 16.1057C80.6727 16.2378 80.5822 16.3476 80.4658 16.4351C80.3494 16.523 80.2137 16.5732 80.0585 16.5858C79.9034 16.5984 79.7547 16.5607 79.6125 16.4727L76.3931 14.5884Z" fill="#F9C510"/>
</svg>
