<svg width="85" height="19" viewBox="0 0 85 19" fill="none" xmlns="http://www.w3.org/2000/svg">
<path d="M10.0337 14.4822L6.80366 16.3643C6.66097 16.4521 6.51179 16.4898 6.35613 16.4772C6.20046 16.4647 6.06426 16.4145 5.94751 16.3267C5.83076 16.2388 5.73996 16.1289 5.6751 15.9969C5.61024 15.8649 5.59727 15.7176 5.63618 15.555L6.49233 11.9979L3.63202 9.60766C3.5023 9.49473 3.42136 9.366 3.38919 9.22146C3.35702 9.07691 3.36662 8.93588 3.41799 8.79837C3.46987 8.66035 3.54771 8.54742 3.65148 8.45959C3.75526 8.37176 3.89795 8.3153 4.07955 8.2902L7.85438 7.97025L9.31372 4.62016C9.37858 4.46959 9.47925 4.35666 9.61571 4.28138C9.75218 4.2061 9.89149 4.16846 10.0337 4.16846C10.1764 4.16846 10.3157 4.2061 10.4516 4.28138C10.5876 4.35666 10.6882 4.46959 10.7536 4.62016L12.2129 7.97025L15.9878 8.2902C16.1694 8.3153 16.3121 8.37176 16.4159 8.45959C16.5196 8.54742 16.5975 8.66035 16.6493 8.79837C16.7012 8.93638 16.7111 9.07767 16.6789 9.22221C16.6468 9.36675 16.5655 9.49524 16.4353 9.60766L13.575 11.9979L14.4311 15.555C14.4701 15.7181 14.4571 15.8657 14.3922 15.9977C14.3274 16.1297 14.2366 16.2393 14.1198 16.3267C14.0031 16.4145 13.8669 16.4647 13.7112 16.4772C13.5555 16.4898 13.4064 16.4521 13.2637 16.3643L10.0337 14.4822Z" fill="#F9C510"/>
<path d="M26.1455 14.4822L22.9155 16.3643C22.7728 16.4521 22.6236 16.4898 22.4679 16.4772C22.3123 16.4647 22.1761 16.4145 22.0593 16.3267C21.9426 16.2388 21.8518 16.1289 21.7869 15.9969C21.7221 15.8649 21.7091 15.7176 21.748 15.555L22.6041 11.9979L19.7438 9.60765C19.6141 9.49472 19.5332 9.36599 19.501 9.22145C19.4688 9.0769 19.4784 8.93587 19.5298 8.79836C19.5817 8.66034 19.6595 8.54741 19.7633 8.45958C19.8671 8.37175 20.0098 8.31529 20.1914 8.2902L23.9662 7.97025L25.4255 4.62015C25.4904 4.46959 25.5911 4.35666 25.7275 4.28138C25.864 4.2061 26.0033 4.16846 26.1455 4.16846C26.2882 4.16846 26.4275 4.2061 26.5634 4.28138C26.6994 4.35666 26.8 4.46959 26.8654 4.62015L28.3248 7.97025L32.0996 8.2902C32.2812 8.31529 32.4239 8.37175 32.5277 8.45958C32.6314 8.54741 32.7093 8.66034 32.7612 8.79836C32.813 8.93638 32.8229 9.07766 32.7907 9.2222C32.7586 9.36674 32.6774 9.49523 32.5471 9.60765L29.6868 11.9979L30.543 15.555C30.5819 15.7181 30.5689 15.8657 30.504 15.9977C30.4392 16.1297 30.3484 16.2393 30.2316 16.3267C30.1149 16.4145 29.9787 16.4647 29.823 16.4772C29.6674 16.4898 29.5182 16.4521 29.3755 16.3643L26.1455 14.4822Z" fill="#F9C510"/>
<path d="M43.2929 14.4822L40.0629 16.3643C39.9202 16.4521 39.7711 16.4898 39.6154 16.4772C39.4597 16.4647 39.3235 16.4145 39.2068 16.3267C39.09 16.2388 38.9992 16.1289 38.9344 15.9969C38.8695 15.8649 38.8565 15.7176 38.8955 15.555L39.7516 11.9979L36.8913 9.60765C36.7616 9.49472 36.6806 9.36599 36.6485 9.22145C36.6163 9.0769 36.6259 8.93587 36.6773 8.79836C36.7292 8.66034 36.807 8.54741 36.9108 8.45958C37.0145 8.37175 37.1572 8.31529 37.3388 8.2902L41.1137 7.97025L42.573 4.62015C42.6379 4.46959 42.7385 4.35666 42.875 4.28138C43.0115 4.2061 43.1508 4.16846 43.2929 4.16846C43.4356 4.16846 43.575 4.2061 43.7109 4.28138C43.8468 4.35666 43.9475 4.46959 44.0129 4.62015L45.4722 7.97025L49.2471 8.2902C49.4287 8.31529 49.5714 8.37175 49.6751 8.45958C49.7789 8.54741 49.8567 8.66034 49.9086 8.79836C49.9605 8.93638 49.9704 9.07766 49.9382 9.2222C49.906 9.36674 49.8248 9.49523 49.6946 9.60765L46.8343 11.9979L47.6904 15.555C47.7293 15.7181 47.7164 15.8657 47.6515 15.9977C47.5866 16.1297 47.4958 16.2393 47.3791 16.3267C47.2623 16.4145 47.1261 16.4647 46.9705 16.4772C46.8148 16.4898 46.6656 16.4521 46.5229 16.3643L43.2929 14.4822Z" fill="#F9C510"/>
<path d="M59.9209 14.4822L56.6909 16.3643C56.5482 16.4521 56.399 16.4898 56.2433 16.4772C56.0877 16.4647 55.9515 16.4145 55.8347 16.3267C55.718 16.2388 55.6272 16.1289 55.5623 15.9969C55.4974 15.8649 55.4845 15.7176 55.5234 15.555L56.3795 11.9979L53.5192 9.60765C53.3895 9.49472 53.3086 9.36599 53.2764 9.22145C53.2442 9.0769 53.2538 8.93587 53.3052 8.79836C53.3571 8.66034 53.4349 8.54741 53.5387 8.45958C53.6425 8.37175 53.7852 8.31529 53.9668 8.2902L57.7416 7.97025L59.2009 4.62015C59.2658 4.46959 59.3665 4.35666 59.5029 4.28138C59.6394 4.2061 59.7787 4.16846 59.9209 4.16846C60.0636 4.16846 60.2029 4.2061 60.3388 4.28138C60.4748 4.35666 60.5754 4.46959 60.6408 4.62015L62.1002 7.97025L65.875 8.2902C66.0566 8.31529 66.1993 8.37175 66.3031 8.45958C66.4068 8.54741 66.4847 8.66034 66.5366 8.79836C66.5884 8.93638 66.5983 9.07766 66.5661 9.2222C66.534 9.36674 66.4528 9.49523 66.3225 9.60765L63.4622 11.9979L64.3184 15.555C64.3573 15.7181 64.3443 15.8657 64.2794 15.9977C64.2146 16.1297 64.1238 16.2393 64.007 16.3267C63.8903 16.4145 63.7541 16.4647 63.5984 16.4772C63.4427 16.4898 63.2936 16.4521 63.1509 16.3643L59.9209 14.4822Z" fill="#F9C510"/>
<path d="M75.6255 14.4822L72.3955 16.3643C72.2528 16.4521 72.1036 16.4898 71.9479 16.4772C71.7923 16.4647 71.6561 16.4145 71.5393 16.3267C71.4226 16.2388 71.3318 16.1289 71.2669 15.9969C71.202 15.8649 71.1891 15.7176 71.228 15.555L72.0841 11.9979L69.2238 9.60765C69.0941 9.49472 69.0132 9.36599 68.981 9.22145C68.9488 9.0769 68.9584 8.93587 69.0098 8.79836C69.0617 8.66034 69.1395 8.54741 69.2433 8.45958C69.3471 8.37175 69.4897 8.31529 69.6714 8.2902L73.4462 7.97025L74.9055 4.62015C74.9704 4.46959 75.071 4.35666 75.2075 4.28138C75.344 4.2061 75.4833 4.16846 75.6255 4.16846C75.7682 4.16846 75.9075 4.2061 76.0434 4.28138C76.1794 4.35666 76.28 4.46959 76.3454 4.62015L77.8047 7.97025L81.5796 8.2902C81.7612 8.31529 81.9039 8.37175 82.0076 8.45958C82.1114 8.54741 82.1893 8.66034 82.2411 8.79836C82.293 8.93638 82.3029 9.07766 82.2707 9.2222C82.2385 9.36674 82.1573 9.49523 82.0271 9.60765L79.1668 11.9979L80.0229 15.555C80.0619 15.7181 80.0489 15.8657 79.984 15.9977C79.9192 16.1297 79.8284 16.2393 79.7116 16.3267C79.5949 16.4145 79.4587 16.4647 79.303 16.4772C79.1473 16.4898 78.9982 16.4521 78.8555 16.3643L75.6255 14.4822Z" fill="#F9C510"/>
</svg>
