<svg width="86" height="19" viewBox="0 0 86 19" fill="none" xmlns="http://www.w3.org/2000/svg">
<path d="M10.2155 14.4822L6.98625 16.3643C6.84359 16.4521 6.69444 16.4898 6.53882 16.4772C6.38319 16.4647 6.24701 16.4145 6.13029 16.3267C6.01357 16.2388 5.92279 16.1289 5.85794 15.9969C5.7931 15.8649 5.78013 15.7176 5.81903 15.555L6.67499 11.9979L3.81531 9.60766C3.68562 9.49473 3.6047 9.366 3.57253 9.22146C3.54037 9.07691 3.54997 8.93588 3.60133 8.79837C3.6532 8.66035 3.73102 8.54742 3.83477 8.45959C3.93852 8.37176 4.08118 8.3153 4.26275 8.2902L8.03674 7.97025L9.49576 4.62016C9.56061 4.46959 9.66125 4.35666 9.79768 4.28138C9.93412 4.2061 10.0734 4.16846 10.2155 4.16846C10.3582 4.16846 10.4975 4.2061 10.6334 4.28138C10.7693 4.35666 10.87 4.46959 10.9353 4.62016L12.3943 7.97025L16.1683 8.2902C16.3499 8.3153 16.4926 8.37176 16.5963 8.45959C16.7001 8.54742 16.7779 8.66035 16.8298 8.79837C16.8816 8.93638 16.8915 9.07767 16.8593 9.22221C16.8272 9.36675 16.746 9.49524 16.6158 9.60766L13.7561 11.9979L14.6121 15.555C14.651 15.7181 14.638 15.8657 14.5731 15.9977C14.5083 16.1297 14.4175 16.2393 14.3008 16.3267C14.1841 16.4145 14.0479 16.4647 13.8923 16.4772C13.7366 16.4898 13.5875 16.4521 13.4448 16.3643L10.2155 14.4822Z" fill="#F9C510"/>
<path d="M26.3242 14.4822L23.0949 16.3643C22.9522 16.4521 22.8031 16.4898 22.6475 16.4772C22.4918 16.4647 22.3557 16.4145 22.2389 16.3267C22.1222 16.2388 22.0314 16.1289 21.9666 15.9969C21.9017 15.8649 21.8888 15.7176 21.9277 15.555L22.7836 11.9979L19.924 9.60765C19.7943 9.49472 19.7133 9.36599 19.6812 9.22145C19.649 9.0769 19.6586 8.93587 19.71 8.79836C19.7618 8.66034 19.8397 8.54741 19.9434 8.45958C20.0472 8.37175 20.1898 8.31529 20.3714 8.2902L24.1454 7.97025L25.6044 4.62015C25.6692 4.46959 25.7699 4.35666 25.9063 4.28138C26.0428 4.2061 26.182 4.16846 26.3242 4.16846C26.4668 4.16846 26.6061 4.2061 26.742 4.28138C26.878 4.35666 26.9786 4.46959 27.044 4.62015L28.503 7.97025L32.277 8.2902C32.4585 8.31529 32.6012 8.37175 32.705 8.45958C32.8087 8.54741 32.8865 8.66034 32.9384 8.79836C32.9903 8.93638 33.0001 9.07766 32.968 9.2222C32.9358 9.36674 32.8546 9.49523 32.7244 9.60765L29.8647 11.9979L30.7207 15.555C30.7596 15.7181 30.7466 15.8657 30.6818 15.9977C30.6169 16.1297 30.5262 16.2393 30.4094 16.3267C30.2927 16.4145 30.1565 16.4647 30.0009 16.4772C29.8453 16.4898 29.6961 16.4521 29.5535 16.3643L26.3242 14.4822Z" fill="#F9C510"/>
<path d="M43.4675 14.4822L40.2382 16.3643C40.0955 16.4521 39.9464 16.4898 39.7908 16.4772C39.6351 16.4647 39.499 16.4145 39.3822 16.3267C39.2655 16.2388 39.1747 16.1289 39.1099 15.9969C39.045 15.8649 39.0321 15.7176 39.071 15.555L39.9269 11.9979L37.0673 9.60765C36.9376 9.49472 36.8567 9.36599 36.8245 9.22145C36.7923 9.0769 36.8019 8.93587 36.8533 8.79836C36.9052 8.66034 36.983 8.54741 37.0867 8.45958C37.1905 8.37175 37.3331 8.31529 37.5147 8.2902L41.2887 7.97025L42.7477 4.62015C42.8126 4.46959 42.9132 4.35666 43.0496 4.28138C43.1861 4.2061 43.3254 4.16846 43.4675 4.16846C43.6102 4.16846 43.7494 4.2061 43.8854 4.28138C44.0213 4.35666 44.1219 4.46959 44.1873 4.62015L45.6463 7.97025L49.4203 8.2902C49.6019 8.31529 49.7445 8.37175 49.8483 8.45958C49.952 8.54741 50.0298 8.66034 50.0817 8.79836C50.1336 8.93638 50.1434 9.07766 50.1113 9.2222C50.0791 9.36674 49.9979 9.49523 49.8677 9.60765L47.008 11.9979L47.864 15.555C47.9029 15.7181 47.8899 15.8657 47.8251 15.9977C47.7603 16.1297 47.6695 16.2393 47.5527 16.3267C47.436 16.4145 47.2999 16.4647 47.1442 16.4772C46.9886 16.4898 46.8394 16.4521 46.6968 16.3643L43.4675 14.4822Z" fill="#F9C510"/>
<path d="M60.092 14.4822L56.8627 16.3643C56.7201 16.4521 56.5709 16.4898 56.4153 16.4772C56.2597 16.4647 56.1235 16.4145 56.0068 16.3267C55.89 16.2388 55.7993 16.1289 55.7344 15.9969C55.6696 15.8649 55.6566 15.7176 55.6955 15.555L56.5515 11.9979L53.6918 9.60765C53.5621 9.49472 53.4812 9.36599 53.449 9.22145C53.4168 9.0769 53.4264 8.93587 53.4778 8.79836C53.5297 8.66034 53.6075 8.54741 53.7112 8.45958C53.815 8.37175 53.9576 8.31529 54.1392 8.2902L57.9132 7.97025L59.3722 4.62015C59.4371 4.46959 59.5377 4.35666 59.6741 4.28138C59.8106 4.2061 59.9499 4.16846 60.092 4.16846C60.2347 4.16846 60.374 4.2061 60.5099 4.28138C60.6458 4.35666 60.7464 4.46959 60.8118 4.62015L62.2708 7.97025L66.0448 8.2902C66.2264 8.31529 66.369 8.37175 66.4728 8.45958C66.5765 8.54741 66.6544 8.66034 66.7062 8.79836C66.7581 8.93638 66.768 9.07766 66.7358 9.2222C66.7036 9.36674 66.6224 9.49523 66.4922 9.60765L63.6326 11.9979L64.4885 15.555C64.5274 15.7181 64.5145 15.8657 64.4496 15.9977C64.3848 16.1297 64.294 16.2393 64.1773 16.3267C64.0605 16.4145 63.9244 16.4647 63.7687 16.4772C63.6131 16.4898 63.464 16.4521 63.3213 16.3643L60.092 14.4822Z" fill="#F9C510"/>
<path d="M75.7927 14.4822L72.5634 16.3643C72.4207 16.4521 72.2716 16.4898 72.116 16.4772C71.9603 16.4647 71.8242 16.4145 71.7074 16.3267C71.5907 16.2388 71.4999 16.1289 71.4351 15.9969C71.3702 15.8649 71.3573 15.7176 71.3962 15.555L72.2521 11.9979L69.3925 9.60765C69.2628 9.49472 69.1818 9.36599 69.1497 9.22145C69.1175 9.0769 69.1271 8.93587 69.1785 8.79836C69.2303 8.66034 69.3082 8.54741 69.4119 8.45958C69.5157 8.37175 69.6583 8.31529 69.8399 8.2902L73.6139 7.97025L75.0729 4.62015C75.1378 4.46959 75.2384 4.35666 75.3748 4.28138C75.5113 4.2061 75.6505 4.16846 75.7927 4.16846C75.9353 4.16846 76.0746 4.2061 76.2106 4.28138C76.3465 4.35666 76.4471 4.46959 76.5125 4.62015L77.9715 7.97025L81.7455 8.2902C81.9271 8.31529 82.0697 8.37175 82.1735 8.45958C82.2772 8.54741 82.355 8.66034 82.4069 8.79836C82.4588 8.93638 82.4686 9.07766 82.4365 9.2222C82.4043 9.36674 82.3231 9.49523 82.1929 9.60765L79.3332 11.9979L80.1892 15.555C80.2281 15.7181 80.2151 15.8657 80.1503 15.9977C80.0854 16.1297 79.9947 16.2393 79.8779 16.3267C79.7612 16.4145 79.625 16.4647 79.4694 16.4772C79.3138 16.4898 79.1646 16.4521 79.022 16.3643L75.7927 14.4822Z" fill="#F9C510"/>
</svg>
