<svg width="85" height="19" viewBox="0 0 85 19" fill="none" xmlns="http://www.w3.org/2000/svg">
<path d="M9.9569 14.5835L6.72576 16.4671C6.58302 16.555 6.43379 16.5927 6.27807 16.5801C6.12235 16.5675 5.9861 16.5173 5.86931 16.4294C5.75253 16.3415 5.66169 16.2315 5.59681 16.0994C5.53193 15.9673 5.51895 15.8199 5.55788 15.6571L6.41433 12.0971L3.55301 9.70489C3.42325 9.59187 3.34227 9.46303 3.31009 9.31837C3.27791 9.17371 3.28751 9.03256 3.3389 8.89493C3.39081 8.7568 3.46867 8.64378 3.57248 8.55588C3.67629 8.46798 3.81903 8.41147 4.0007 8.38635L7.77686 8.06614L9.23671 4.7133C9.30159 4.56261 9.40229 4.44959 9.5388 4.37425C9.67531 4.2989 9.81468 4.26123 9.9569 4.26123C10.0996 4.26123 10.239 4.2989 10.375 4.37425C10.511 4.44959 10.6117 4.56261 10.6771 4.7133L12.137 8.06614L15.9131 8.38635C16.0948 8.41147 16.2375 8.46798 16.3413 8.55588C16.4451 8.64378 16.523 8.7568 16.5749 8.89493C16.6268 9.03306 16.6367 9.17446 16.6045 9.31912C16.5723 9.46378 16.4911 9.59237 16.3608 9.70489L13.4995 12.0971L14.3559 15.6571C14.3949 15.8204 14.3819 15.968 14.317 16.1001C14.2521 16.2323 14.1613 16.342 14.0445 16.4294C13.9277 16.5173 13.7915 16.5675 13.6357 16.5801C13.48 16.5927 13.3308 16.555 13.188 16.4671L9.9569 14.5835Z" fill="#F9C510"/>
<path d="M26.0743 14.5835L22.8432 16.4671C22.7005 16.555 22.5512 16.5927 22.3955 16.5801C22.2398 16.5675 22.1035 16.5173 21.9867 16.4294C21.87 16.3415 21.7791 16.2315 21.7142 16.0994C21.6494 15.9673 21.6364 15.8199 21.6753 15.6571L22.5318 12.0971L19.6704 9.70489C19.5407 9.59187 19.4597 9.46303 19.4275 9.31837C19.3953 9.17371 19.4049 9.03256 19.4563 8.89493C19.5082 8.7568 19.5861 8.64378 19.6899 8.55588C19.7937 8.46798 19.9365 8.41147 20.1181 8.38635L23.8943 8.06614L25.3541 4.7133C25.419 4.56261 25.5197 4.44959 25.6562 4.37425C25.7927 4.2989 25.9321 4.26123 26.0743 4.26123C26.2171 4.26123 26.3564 4.2989 26.4924 4.37425C26.6284 4.44959 26.7291 4.56261 26.7945 4.7133L28.2544 8.06614L32.0305 8.38635C32.2122 8.41147 32.3549 8.46798 32.4588 8.55588C32.5626 8.64378 32.6404 8.7568 32.6923 8.89493C32.7442 9.03306 32.7541 9.17446 32.7219 9.31912C32.6897 9.46378 32.6085 9.59237 32.4782 9.70489L29.6169 12.0971L30.4734 15.6571C30.5123 15.8204 30.4993 15.968 30.4344 16.1001C30.3695 16.2323 30.2787 16.342 30.1619 16.4294C30.0451 16.5173 29.9089 16.5675 29.7532 16.5801C29.5974 16.5927 29.4482 16.555 29.3055 16.4671L26.0743 14.5835Z" fill="#F9C510"/>
<path d="M43.2277 14.5835L39.9965 16.4671C39.8538 16.555 39.7045 16.5927 39.5488 16.5801C39.3931 16.5675 39.2569 16.5173 39.1401 16.4294C39.0233 16.3415 38.9324 16.2315 38.8676 16.0994C38.8027 15.9673 38.7897 15.8199 38.8286 15.6571L39.6851 12.0971L36.8238 9.70489C36.694 9.59187 36.613 9.46303 36.5808 9.31837C36.5487 9.17371 36.5583 9.03256 36.6097 8.89493C36.6616 8.7568 36.7394 8.64378 36.8432 8.55588C36.947 8.46798 37.0898 8.41147 37.2715 8.38635L41.0476 8.06614L42.5075 4.7133C42.5723 4.56261 42.673 4.44959 42.8096 4.37425C42.9461 4.2989 43.0854 4.26123 43.2277 4.26123C43.3704 4.26123 43.5098 4.2989 43.6458 4.37425C43.7817 4.44959 43.8824 4.56261 43.9478 4.7133L45.4077 8.06614L49.1839 8.38635C49.3655 8.41147 49.5083 8.46798 49.6121 8.55588C49.7159 8.64378 49.7937 8.7568 49.8457 8.89493C49.8976 9.03306 49.9074 9.17446 49.8752 9.31912C49.8431 9.46378 49.7618 9.59237 49.6315 9.70489L46.7702 12.0971L47.6267 15.6571C47.6656 15.8204 47.6526 15.968 47.5878 16.1001C47.5229 16.2323 47.432 16.342 47.3152 16.4294C47.1985 16.5173 47.0622 16.5675 46.9065 16.5801C46.7508 16.5927 46.6015 16.555 46.4588 16.4671L43.2277 14.5835Z" fill="#F9C510"/>
<path d="M59.8619 14.5835L56.6308 16.4671C56.488 16.555 56.3388 16.5927 56.1831 16.5801C56.0274 16.5675 55.8911 16.5173 55.7743 16.4294C55.6576 16.3415 55.5667 16.2315 55.5018 16.0994C55.437 15.9673 55.424 15.8199 55.4629 15.6571L56.3194 12.0971L53.458 9.70489C53.3283 9.59187 53.2473 9.46303 53.2151 9.31837C53.1829 9.17371 53.1925 9.03256 53.2439 8.89493C53.2958 8.7568 53.3737 8.64378 53.4775 8.55588C53.5813 8.46798 53.7241 8.41147 53.9057 8.38635L57.6819 8.06614L59.1417 4.7133C59.2066 4.56261 59.3073 4.44959 59.4438 4.37425C59.5803 4.2989 59.7197 4.26123 59.8619 4.26123C60.0047 4.26123 60.144 4.2989 60.28 4.37425C60.416 4.44959 60.5167 4.56261 60.5821 4.7133L62.042 8.06614L65.8181 8.38635C65.9998 8.41147 66.1425 8.46798 66.2464 8.55588C66.3502 8.64378 66.428 8.7568 66.4799 8.89493C66.5318 9.03306 66.5417 9.17446 66.5095 9.31912C66.4773 9.46378 66.3961 9.59237 66.2658 9.70489L63.4045 12.0971L64.261 15.6571C64.2999 15.8204 64.2869 15.968 64.222 16.1001C64.1571 16.2323 64.0663 16.342 63.9495 16.4294C63.8327 16.5173 63.6965 16.5675 63.5408 16.5801C63.385 16.5927 63.2358 16.555 63.0931 16.4671L59.8619 14.5835Z" fill="#F9C510"/>
<path d="M75.5716 14.5835L72.3405 16.4671C72.1978 16.555 72.0485 16.5927 71.8928 16.5801C71.7371 16.5675 71.6008 16.5173 71.4841 16.4294C71.3673 16.3415 71.2764 16.2315 71.2116 16.0994C71.1467 15.9673 71.1337 15.8199 71.1726 15.6571L72.0291 12.0971L69.1678 9.70489C69.038 9.59187 68.957 9.46303 68.9248 9.31837C68.8927 9.17371 68.9023 9.03256 68.9536 8.89493C69.0056 8.7568 69.0834 8.64378 69.1872 8.55588C69.291 8.46798 69.4338 8.41147 69.6154 8.38635L73.3916 8.06614L74.8515 4.7133C74.9163 4.56261 75.017 4.44959 75.1535 4.37425C75.2901 4.2989 75.4294 4.26123 75.5716 4.26123C75.7144 4.26123 75.8538 4.2989 75.9897 4.37425C76.1257 4.44959 76.2264 4.56261 76.2918 4.7133L77.7517 8.06614L81.5278 8.38635C81.7095 8.41147 81.8523 8.46798 81.9561 8.55588C82.0599 8.64378 82.1377 8.7568 82.1896 8.89493C82.2416 9.03306 82.2514 9.17446 82.2192 9.31912C82.1871 9.46378 82.1058 9.59237 81.9755 9.70489L79.1142 12.0971L79.9707 15.6571C80.0096 15.8204 79.9966 15.968 79.9317 16.1001C79.8669 16.2323 79.776 16.342 79.6592 16.4294C79.5424 16.5173 79.4062 16.5675 79.2505 16.5801C79.0948 16.5927 78.9455 16.555 78.8028 16.4671L75.5716 14.5835Z" fill="#F9C510"/>
</svg>
