<svg width="54" height="11" viewBox="0 0 54 11" fill="none" xmlns="http://www.w3.org/2000/svg">
<path d="M6.52305 8.37585L4.54974 9.52168C4.46257 9.57515 4.37143 9.59807 4.27633 9.59043C4.18123 9.58279 4.09802 9.55224 4.0267 9.49876C3.95537 9.44529 3.8999 9.37837 3.86028 9.29801C3.82065 9.21765 3.81273 9.12797 3.8365 9.02897L4.35955 6.86335L2.6121 5.40814C2.53285 5.33939 2.4834 5.26101 2.46375 5.17301C2.44409 5.08501 2.44996 4.99915 2.48134 4.91543C2.51304 4.8314 2.56059 4.76265 2.62399 4.70918C2.68739 4.65571 2.77456 4.62133 2.88551 4.60605L5.19166 4.41126L6.08322 2.37168C6.12284 2.28001 6.18434 2.21126 6.26771 2.16543C6.35108 2.1196 6.43619 2.09668 6.52305 2.09668C6.61022 2.09668 6.69534 2.1196 6.77839 2.16543C6.86144 2.21126 6.92294 2.28001 6.96288 2.37168L7.85444 4.41126L10.1606 4.60605C10.2715 4.62133 10.3587 4.65571 10.4221 4.70918C10.4855 4.76265 10.5331 4.8314 10.5648 4.91543C10.5965 4.99946 10.6025 5.08547 10.5828 5.17347C10.5632 5.26147 10.5136 5.33969 10.434 5.40814L8.68655 6.86335L9.2096 9.02897C9.23337 9.12828 9.22545 9.21811 9.18582 9.29847C9.1462 9.37883 9.09072 9.4456 9.0194 9.49876C8.94808 9.55224 8.86486 9.58279 8.76977 9.59043C8.67467 9.59807 8.58353 9.57515 8.49636 9.52168L6.52305 8.37585Z" fill="#F9C510"/>
<path d="M16.7943 8.37585L14.821 9.52168C14.7338 9.57515 14.6427 9.59807 14.5476 9.59043C14.4525 9.58279 14.3693 9.55224 14.2979 9.49876C14.2266 9.44529 14.1711 9.37837 14.1315 9.29801C14.0919 9.21765 14.084 9.12797 14.1077 9.02897L14.6308 6.86335L12.8833 5.40814C12.8041 5.33939 12.7546 5.26101 12.735 5.17301C12.7153 5.08501 12.7212 4.99915 12.7526 4.91543C12.7843 4.8314 12.8318 4.76265 12.8952 4.70918C12.9586 4.65571 13.0458 4.62133 13.1567 4.60605L15.4629 4.41126L16.3545 2.37168C16.3941 2.28001 16.4556 2.21126 16.5389 2.16543C16.6223 2.1196 16.7074 2.09668 16.7943 2.09668C16.8815 2.09668 16.9666 2.1196 17.0496 2.16543C17.1327 2.21126 17.1942 2.28001 17.2341 2.37168L18.1257 4.41126L20.4318 4.60605C20.5428 4.62133 20.63 4.65571 20.6934 4.70918C20.7568 4.76265 20.8043 4.8314 20.836 4.91543C20.8677 4.99946 20.8737 5.08547 20.8541 5.17347C20.8344 5.26147 20.7848 5.33969 20.7052 5.40814L18.9578 6.86335L19.4808 9.02897C19.5046 9.12828 19.4967 9.21811 19.4571 9.29847C19.4174 9.37883 19.362 9.4456 19.2906 9.49876C19.2193 9.55224 19.1361 9.58279 19.041 9.59043C18.9459 9.59807 18.8548 9.57515 18.7676 9.52168L16.7943 8.37585Z" fill="#F9C510"/>
<path d="M27.0641 8.37585L25.0908 9.52168C25.0036 9.57515 24.9124 9.59807 24.8173 9.59043C24.7223 9.58279 24.639 9.55224 24.5677 9.49876C24.4964 9.44529 24.4409 9.37837 24.4013 9.29801C24.3617 9.21765 24.3537 9.12797 24.3775 9.02897L24.9006 6.86335L23.1531 5.40814C23.0739 5.33939 23.0244 5.26101 23.0048 5.17301C22.9851 5.08501 22.991 4.99915 23.0224 4.91543C23.0541 4.8314 23.1016 4.76265 23.165 4.70918C23.2284 4.65571 23.3156 4.62133 23.4265 4.60605L25.7327 4.41126L26.6242 2.37168C26.6639 2.28001 26.7254 2.21126 26.8087 2.16543C26.8921 2.1196 26.9772 2.09668 27.0641 2.09668C27.1512 2.09668 27.2364 2.1196 27.3194 2.16543C27.4025 2.21126 27.464 2.28001 27.5039 2.37168L28.3955 4.41126L30.7016 4.60605C30.8126 4.62133 30.8997 4.65571 30.9631 4.70918C31.0265 4.76265 31.0741 4.8314 31.1058 4.91543C31.1375 4.99946 31.1435 5.08547 31.1238 5.17347C31.1042 5.26147 31.0546 5.33969 30.975 5.40814L29.2276 6.86335L29.7506 9.02897C29.7744 9.12828 29.7665 9.21811 29.7268 9.29847C29.6872 9.37883 29.6317 9.4456 29.5604 9.49876C29.4891 9.55224 29.4059 9.58279 29.3108 9.59043C29.2157 9.59807 29.1245 9.57515 29.0374 9.52168L27.0641 8.37585Z" fill="#F9C510"/>
<path d="M37.3348 8.37585L35.3615 9.52168C35.2743 9.57515 35.1832 9.59807 35.0881 9.59043C34.993 9.58279 34.9098 9.55224 34.8385 9.49876C34.7671 9.44529 34.7117 9.37837 34.672 9.29801C34.6324 9.21765 34.6245 9.12797 34.6483 9.02897L35.1713 6.86335L33.4239 5.40814C33.3446 5.33939 33.2952 5.26101 33.2755 5.17301C33.2559 5.08501 33.2617 4.99915 33.2931 4.91543C33.3248 4.8314 33.3724 4.76265 33.4358 4.70918C33.4992 4.65571 33.5863 4.62133 33.6973 4.60605L36.0034 4.41126L36.895 2.37168C36.9346 2.28001 36.9961 2.21126 37.0795 2.16543C37.1628 2.1196 37.248 2.09668 37.3348 2.09668C37.422 2.09668 37.5071 2.1196 37.5902 2.16543C37.6732 2.21126 37.7347 2.28001 37.7747 2.37168L38.6662 4.41126L40.9724 4.60605C41.0833 4.62133 41.1705 4.65571 41.2339 4.70918C41.2973 4.76265 41.3448 4.8314 41.3765 4.91543C41.4082 4.99946 41.4143 5.08547 41.3946 5.17347C41.3749 5.26147 41.3253 5.33969 41.2458 5.40814L39.4983 6.86335L40.0214 9.02897C40.0451 9.12828 40.0372 9.21811 39.9976 9.29847C39.958 9.37883 39.9025 9.4456 39.8312 9.49876C39.7598 9.55224 39.6766 9.58279 39.5815 9.59043C39.4864 9.59807 39.3953 9.57515 39.3081 9.52168L37.3348 8.37585Z" fill="#F9C510"/>
<path d="M47.6056 3.72376V7.29876L49.1034 8.18105L48.7111 6.53105L50.0306 5.43105L48.295 5.2821L47.6056 3.72376ZM47.6056 8.37585L45.6323 9.52168C45.5451 9.57515 45.454 9.59807 45.3589 9.59043C45.2638 9.58279 45.1805 9.55224 45.1092 9.49876C45.0379 9.44529 44.9824 9.37837 44.9428 9.29801C44.9032 9.21765 44.8952 9.12797 44.919 9.02897L45.4421 6.86335L43.6946 5.40814C43.6154 5.33939 43.5659 5.26101 43.5463 5.17301C43.5266 5.08501 43.5325 4.99915 43.5639 4.91543C43.5956 4.8314 43.6431 4.76265 43.7065 4.70918C43.7699 4.65571 43.8571 4.62133 43.968 4.60605L46.2742 4.41126L47.1657 2.37168C47.2054 2.28001 47.2669 2.21126 47.3502 2.16543C47.4336 2.1196 47.5187 2.09668 47.6056 2.09668C47.6927 2.09668 47.7779 2.1196 47.8609 2.16543C47.944 2.21126 48.0055 2.28001 48.0454 2.37168L48.937 4.41126L51.2431 4.60605C51.3541 4.62133 51.4412 4.65571 51.5046 4.70918C51.568 4.76265 51.6156 4.8314 51.6473 4.91543C51.679 4.99946 51.685 5.08547 51.6653 5.17347C51.6457 5.26147 51.5961 5.33969 51.5165 5.40814L49.7691 6.86335L50.2921 9.02897C50.3159 9.12828 50.308 9.21811 50.2683 9.29847C50.2287 9.37883 50.1732 9.4456 50.1019 9.49876C50.0306 9.55224 49.9474 9.58279 49.8523 9.59043C49.7572 9.59807 49.666 9.57515 49.5789 9.52168L47.6056 8.37585Z" fill="#F9C510"/>
</svg>
