<svg width="86" height="19" viewBox="0 0 86 19" fill="none" xmlns="http://www.w3.org/2000/svg">
<path d="M10.2524 14.4822L7.02097 16.3643C6.87821 16.4521 6.72897 16.4898 6.57324 16.4772C6.41751 16.4647 6.28125 16.4145 6.16445 16.3267C6.04765 16.2388 5.95681 16.1289 5.89192 15.9969C5.82703 15.8649 5.81405 15.7176 5.85299 15.555L6.70951 11.9979L3.84796 9.60766C3.71818 9.49473 3.6372 9.366 3.60502 9.22146C3.57283 9.07691 3.58244 8.93588 3.63383 8.79837C3.68574 8.66035 3.7636 8.54742 3.86742 8.45959C3.97124 8.37176 4.114 8.3153 4.29568 8.2902L8.07215 7.97025L9.53212 4.62016C9.59701 4.46959 9.69772 4.35666 9.83424 4.28138C9.97076 4.2061 10.1101 4.16846 10.2524 4.16846C10.3951 4.16846 10.5345 4.2061 10.6705 4.28138C10.8065 4.35666 10.9072 4.46959 10.9726 4.62016L12.4326 7.97025L16.2091 8.2902C16.3908 8.3153 16.5335 8.37176 16.6373 8.45959C16.7412 8.54742 16.819 8.66035 16.8709 8.79837C16.9228 8.93638 16.9327 9.07767 16.9005 9.22221C16.8683 9.36675 16.7871 9.49524 16.6568 9.60766L13.7952 11.9979L14.6518 15.555C14.6907 15.7181 14.6777 15.8657 14.6128 15.9977C14.5479 16.1297 14.4571 16.2393 14.3403 16.3267C14.2235 16.4145 14.0872 16.4647 13.9315 16.4772C13.7758 16.4898 13.6265 16.4521 13.4838 16.3643L10.2524 14.4822Z" fill="#F9C510"/>
<path d="M26.3713 14.4822L23.1399 16.3643C22.9971 16.4521 22.8479 16.4898 22.6921 16.4772C22.5364 16.4647 22.4001 16.4145 22.2833 16.3267C22.1665 16.2388 22.0757 16.1289 22.0108 15.9969C21.9459 15.8649 21.933 15.7176 21.9719 15.555L22.8284 11.9979L19.9669 9.60765C19.8371 9.49472 19.7561 9.36599 19.7239 9.22145C19.6917 9.0769 19.7013 8.93587 19.7527 8.79836C19.8046 8.66034 19.8825 8.54741 19.9863 8.45958C20.0901 8.37175 20.2329 8.31529 20.4146 8.2902L24.191 7.97025L25.651 4.62015C25.7159 4.46959 25.8166 4.35666 25.9531 4.28138C26.0897 4.2061 26.229 4.16846 26.3713 4.16846C26.514 4.16846 26.6534 4.2061 26.7894 4.28138C26.9254 4.35666 27.0261 4.46959 27.0915 4.62015L28.5515 7.97025L32.328 8.2902C32.5097 8.31529 32.6524 8.37175 32.7562 8.45958C32.86 8.54741 32.9379 8.66034 32.9898 8.79836C33.0417 8.93638 33.0516 9.07766 33.0194 9.2222C32.9872 9.36674 32.906 9.49523 32.7757 9.60765L29.9141 11.9979L30.7707 15.555C30.8096 15.7181 30.7966 15.8657 30.7317 15.9977C30.6668 16.1297 30.576 16.2393 30.4592 16.3267C30.3424 16.4145 30.2061 16.4647 30.0504 16.4772C29.8947 16.4898 29.7454 16.4521 29.6027 16.3643L26.3713 14.4822Z" fill="#F9C510"/>
<path d="M43.5258 14.4822L40.2944 16.3643C40.1517 16.4521 40.0024 16.4898 39.8467 16.4772C39.6909 16.4647 39.5547 16.4145 39.4379 16.3267C39.3211 16.2388 39.2302 16.1289 39.1654 15.9969C39.1005 15.8649 39.0875 15.7176 39.1264 15.555L39.9829 11.9979L37.1214 9.60765C36.9916 9.49472 36.9106 9.36599 36.8785 9.22145C36.8463 9.0769 36.8559 8.93587 36.9073 8.79836C36.9592 8.66034 37.037 8.54741 37.1409 8.45958C37.2447 8.37175 37.3874 8.31529 37.5691 8.2902L41.3456 7.97025L42.8056 4.62015C42.8704 4.46959 42.9712 4.35666 43.1077 4.28138C43.2442 4.2061 43.3836 4.16846 43.5258 4.16846C43.6686 4.16846 43.8079 4.2061 43.9439 4.28138C44.08 4.35666 44.1807 4.46959 44.2461 4.62015L45.706 7.97025L49.4825 8.2902C49.6642 8.31529 49.8069 8.37175 49.9108 8.45958C50.0146 8.54741 50.0925 8.66034 50.1444 8.79836C50.1963 8.93638 50.2061 9.07766 50.174 9.2222C50.1418 9.36674 50.0605 9.49523 49.9302 9.60765L47.0687 11.9979L47.9252 15.555C47.9641 15.7181 47.9512 15.8657 47.8863 15.9977C47.8214 16.1297 47.7305 16.2393 47.6137 16.3267C47.4969 16.4145 47.3607 16.4647 47.2049 16.4772C47.0492 16.4898 46.9 16.4521 46.7572 16.3643L43.5258 14.4822Z" fill="#F9C510"/>
<path d="M60.1613 14.4822L56.9299 16.3643C56.7872 16.4521 56.6379 16.4898 56.4822 16.4772C56.3264 16.4647 56.1902 16.4145 56.0734 16.3267C55.9566 16.2388 55.8657 16.1289 55.8009 15.9969C55.736 15.8649 55.723 15.7176 55.7619 15.555L56.6184 11.9979L53.7569 9.60765C53.6271 9.49472 53.5461 9.36599 53.514 9.22145C53.4818 9.0769 53.4914 8.93587 53.5428 8.79836C53.5947 8.66034 53.6725 8.54741 53.7764 8.45958C53.8802 8.37175 54.0229 8.31529 54.2046 8.2902L57.9811 7.97025L59.4411 4.62015C59.5059 4.46959 59.6067 4.35666 59.7432 4.28138C59.8797 4.2061 60.0191 4.16846 60.1613 4.16846C60.3041 4.16846 60.4434 4.2061 60.5794 4.28138C60.7155 4.35666 60.8162 4.46959 60.8816 4.62015L62.3415 7.97025L66.118 8.2902C66.2997 8.31529 66.4424 8.37175 66.5463 8.45958C66.6501 8.54741 66.728 8.66034 66.7799 8.79836C66.8318 8.93638 66.8416 9.07766 66.8095 9.2222C66.7773 9.36674 66.696 9.49523 66.5657 9.60765L63.7042 11.9979L64.5607 15.555C64.5996 15.7181 64.5867 15.8657 64.5218 15.9977C64.4569 16.1297 64.366 16.2393 64.2492 16.3267C64.1324 16.4145 63.9962 16.4647 63.8404 16.4772C63.6847 16.4898 63.5355 16.4521 63.3927 16.3643L60.1613 14.4822Z" fill="#F9C510"/>
<path d="M75.8722 14.4822L72.6408 16.3643C72.4981 16.4521 72.3488 16.4898 72.1931 16.4772C72.0374 16.4647 71.9011 16.4145 71.7843 16.3267C71.6675 16.2388 71.5767 16.1289 71.5118 15.9969C71.4469 15.8649 71.4339 15.7176 71.4729 15.555L72.3294 11.9979L69.4678 9.60765C69.3381 9.49472 69.2571 9.36599 69.2249 9.22145C69.1927 9.0769 69.2023 8.93587 69.2537 8.79836C69.3056 8.66034 69.3835 8.54741 69.4873 8.45958C69.5911 8.37175 69.7339 8.31529 69.9156 8.2902L73.692 7.97025L75.152 4.62015C75.2169 4.46959 75.3176 4.35666 75.4541 4.28138C75.5906 4.2061 75.73 4.16846 75.8722 4.16846C76.015 4.16846 76.1544 4.2061 76.2904 4.28138C76.4264 4.35666 76.5271 4.46959 76.5925 4.62015L78.0525 7.97025L81.8289 8.2902C82.0106 8.31529 82.1534 8.37175 82.2572 8.45958C82.361 8.54741 82.4389 8.66034 82.4908 8.79836C82.5427 8.93638 82.5526 9.07766 82.5204 9.2222C82.4882 9.36674 82.407 9.49523 82.2767 9.60765L79.4151 11.9979L80.2716 15.555C80.3106 15.7181 80.2976 15.8657 80.2327 15.9977C80.1678 16.1297 80.077 16.2393 79.9602 16.3267C79.8434 16.4145 79.7071 16.4647 79.5514 16.4772C79.3957 16.4898 79.2464 16.4521 79.1037 16.3643L75.8722 14.4822Z" fill="#F9C510"/>
</svg>
