<svg width="85" height="19" viewBox="0 0 85 19" fill="none" xmlns="http://www.w3.org/2000/svg">
<path d="M9.47559 14.4822L6.2477 16.3643C6.1051 16.4521 5.95602 16.4898 5.80046 16.4772C5.6449 16.4647 5.50878 16.4145 5.39211 16.3267C5.27544 16.2388 5.1847 16.1289 5.11988 15.9969C5.05506 15.8649 5.0421 15.7176 5.08099 15.555L5.93658 11.9979L3.07814 9.60766C2.94851 9.49473 2.86761 9.366 2.83547 9.22146C2.80332 9.07691 2.81291 8.93588 2.86424 8.79837C2.9161 8.66035 2.99388 8.54742 3.09759 8.45959C3.20129 8.37176 3.34389 8.3153 3.52538 8.2902L7.29774 7.97025L8.75612 4.62016C8.82094 4.46959 8.92154 4.35666 9.05791 4.28138C9.19429 4.2061 9.33352 4.16846 9.47559 4.16846C9.61819 4.16846 9.75742 4.2061 9.89328 4.28138C10.0291 4.35666 10.1297 4.46959 10.1951 4.62016L11.6535 7.97025L15.4258 8.2902C15.6073 8.3153 15.7499 8.37176 15.8536 8.45959C15.9573 8.54742 16.0351 8.66035 16.0869 8.79837C16.1388 8.93638 16.1487 9.07767 16.1165 9.22221C16.0844 9.36675 16.0032 9.49524 15.873 9.60766L13.0146 11.9979L13.8702 15.555C13.9091 15.7181 13.8961 15.8657 13.8313 15.9977C13.7665 16.1297 13.6757 16.2393 13.5591 16.3267C13.4424 16.4145 13.3063 16.4647 13.1507 16.4772C12.9952 16.4898 12.8461 16.4521 12.7035 16.3643L9.47559 14.4822Z" fill="#F9C510"/>
<path d="M25.5772 14.4822L22.3493 16.3643C22.2067 16.4521 22.0576 16.4898 21.902 16.4772C21.7465 16.4647 21.6103 16.4145 21.4937 16.3267C21.377 16.2388 21.2863 16.1289 21.2214 15.9969C21.1566 15.8649 21.1437 15.7176 21.1826 15.555L22.0381 11.9979L19.1797 9.60765C19.0501 9.49472 18.9692 9.36599 18.937 9.22145C18.9049 9.0769 18.9145 8.93587 18.9658 8.79836C19.0177 8.66034 19.0954 8.54741 19.1991 8.45958C19.3029 8.37175 19.4455 8.31529 19.6269 8.2902L23.3993 7.97025L24.8577 4.62015C24.9225 4.46959 25.0231 4.35666 25.1595 4.28138C25.2959 4.2061 25.4351 4.16846 25.5772 4.16846C25.7198 4.16846 25.859 4.2061 25.9948 4.28138C26.1307 4.35666 26.2313 4.46959 26.2966 4.62015L27.755 7.97025L31.5274 8.2902C31.7089 8.31529 31.8515 8.37175 31.9552 8.45958C32.0589 8.54741 32.1367 8.66034 32.1885 8.79836C32.2404 8.93638 32.2502 9.07766 32.2181 9.2222C32.1859 9.36674 32.1048 9.49523 31.9746 9.60765L29.1162 11.9979L29.9718 15.555C30.0106 15.7181 29.9977 15.8657 29.9329 15.9977C29.8681 16.1297 29.7773 16.2393 29.6606 16.3267C29.544 16.4145 29.4079 16.4647 29.2523 16.4772C29.0967 16.4898 28.9476 16.4521 28.8051 16.3643L25.5772 14.4822Z" fill="#F9C510"/>
<path d="M42.7134 14.4822L39.4855 16.3643C39.3429 16.4521 39.1938 16.4898 39.0383 16.4772C38.8827 16.4647 38.7466 16.4145 38.6299 16.3267C38.5132 16.2388 38.4225 16.1289 38.3577 15.9969C38.2929 15.8649 38.2799 15.7176 38.3188 15.555L39.1744 11.9979L36.3159 9.60765C36.1863 9.49472 36.1054 9.36599 36.0733 9.22145C36.0411 9.0769 36.0507 8.93587 36.102 8.79836C36.1539 8.66034 36.2317 8.54741 36.3354 8.45958C36.4391 8.37175 36.5817 8.31529 36.7632 8.2902L40.5355 7.97025L41.9939 4.62015C42.0587 4.46959 42.1593 4.35666 42.2957 4.28138C42.4321 4.2061 42.5713 4.16846 42.7134 4.16846C42.856 4.16846 42.9952 4.2061 43.1311 4.28138C43.2669 4.35666 43.3675 4.46959 43.4329 4.62015L44.8912 7.97025L48.6636 8.2902C48.8451 8.31529 48.9877 8.37175 49.0914 8.45958C49.1951 8.54741 49.2729 8.66034 49.3247 8.79836C49.3766 8.93638 49.3864 9.07766 49.3543 9.2222C49.3221 9.36674 49.241 9.49523 49.1108 9.60765L46.2524 11.9979L47.108 15.555C47.1469 15.7181 47.1339 15.8657 47.0691 15.9977C47.0043 16.1297 46.9135 16.2393 46.7969 16.3267C46.6802 16.4145 46.5441 16.4647 46.3885 16.4772C46.233 16.4898 46.0839 16.4521 45.9413 16.3643L42.7134 14.4822Z" fill="#F9C510"/>
<path d="M59.3306 14.4822L56.1027 16.3643C55.9601 16.4521 55.811 16.4898 55.6554 16.4772C55.4999 16.4647 55.3638 16.4145 55.2471 16.3267C55.1304 16.2388 55.0397 16.1289 54.9749 15.9969C54.91 15.8649 54.8971 15.7176 54.936 15.555L55.7916 11.9979L52.9331 9.60765C52.8035 9.49472 52.7226 9.36599 52.6904 9.22145C52.6583 9.0769 52.6679 8.93587 52.7192 8.79836C52.7711 8.66034 52.8489 8.54741 52.9526 8.45958C53.0563 8.37175 53.1989 8.31529 53.3804 8.2902L57.1527 7.97025L58.6111 4.62015C58.6759 4.46959 58.7765 4.35666 58.9129 4.28138C59.0493 4.2061 59.1885 4.16846 59.3306 4.16846C59.4732 4.16846 59.6124 4.2061 59.7483 4.28138C59.8841 4.35666 59.9847 4.46959 60.05 4.62015L61.5084 7.97025L65.2808 8.2902C65.4623 8.31529 65.6049 8.37175 65.7086 8.45958C65.8123 8.54741 65.8901 8.66034 65.9419 8.79836C65.9938 8.93638 66.0036 9.07766 65.9715 9.2222C65.9393 9.36674 65.8582 9.49523 65.728 9.60765L62.8696 11.9979L63.7252 15.555C63.7641 15.7181 63.7511 15.8657 63.6863 15.9977C63.6215 16.1297 63.5307 16.2393 63.4141 16.3267C63.2974 16.4145 63.1613 16.4647 63.0057 16.4772C62.8501 16.4898 62.7011 16.4521 62.5585 16.3643L59.3306 14.4822Z" fill="#F9C510"/>
<path d="M75.0244 14.4822L71.7965 16.3643C71.6539 16.4521 71.5049 16.4898 71.3493 16.4772C71.1937 16.4647 71.0576 16.4145 70.9409 16.3267C70.8243 16.2388 70.7335 16.1289 70.6687 15.9969C70.6039 15.8649 70.5909 15.7176 70.6298 15.555L71.4854 11.9979L68.627 9.60765C68.4973 9.49472 68.4164 9.36599 68.3843 9.22145C68.3521 9.0769 68.3617 8.93587 68.4131 8.79836C68.4649 8.66034 68.5427 8.54741 68.6464 8.45958C68.7501 8.37175 68.8927 8.31529 69.0742 8.2902L72.8466 7.97025L74.305 4.62015C74.3698 4.46959 74.4704 4.35666 74.6067 4.28138C74.7431 4.2061 74.8823 4.16846 75.0244 4.16846C75.167 4.16846 75.3062 4.2061 75.4421 4.28138C75.578 4.35666 75.6786 4.46959 75.7439 4.62015L77.2023 7.97025L80.9746 8.2902C81.1561 8.31529 81.2987 8.37175 81.4024 8.45958C81.5061 8.54741 81.5839 8.66034 81.6358 8.79836C81.6876 8.93638 81.6975 9.07766 81.6653 9.2222C81.6332 9.36674 81.552 9.49523 81.4219 9.60765L78.5634 11.9979L79.419 15.555C79.4579 15.7181 79.445 15.8657 79.3801 15.9977C79.3153 16.1297 79.2246 16.2393 79.1079 16.3267C78.9912 16.4145 78.8551 16.4647 78.6996 16.4772C78.544 16.4898 78.3949 16.4521 78.2523 16.3643L75.0244 14.4822Z" fill="#F9C510"/>
</svg>
