<svg width="85" height="20" viewBox="0 0 85 20" fill="none" xmlns="http://www.w3.org/2000/svg">
<path d="M9.95548 14.7082L6.72716 16.5881C6.58454 16.6759 6.43544 16.7135 6.27986 16.7009C6.12428 16.6884 5.98814 16.6383 5.87146 16.5505C5.75477 16.4628 5.66402 16.353 5.59919 16.2212C5.53436 16.0893 5.5214 15.9422 5.56029 15.7798L6.41599 12.2267L3.55718 9.83922C3.42753 9.72643 3.34663 9.59784 3.31447 9.45346C3.28232 9.30908 3.29191 9.16822 3.34325 9.03086C3.39511 8.893 3.47291 8.7802 3.57663 8.69247C3.68035 8.60474 3.82296 8.54834 4.00448 8.52328L7.77733 8.20369L9.23591 4.85743C9.30074 4.70704 9.40135 4.59424 9.53774 4.51905C9.67414 4.44385 9.81338 4.40625 9.95548 4.40625C10.0981 4.40625 10.2373 4.44385 10.3732 4.51905C10.5091 4.59424 10.6097 4.70704 10.675 4.85743L12.1336 8.20369L15.9065 8.52328C16.088 8.54834 16.2306 8.60474 16.3343 8.69247C16.4381 8.7802 16.5158 8.893 16.5677 9.03086C16.6196 9.16872 16.6294 9.30984 16.5973 9.45421C16.5651 9.59859 16.4839 9.72693 16.3538 9.83922L13.495 12.2267L14.3507 15.7798C14.3896 15.9427 14.3766 16.0901 14.3118 16.2219C14.2469 16.3538 14.1562 16.4633 14.0395 16.5505C13.9228 16.6383 13.7867 16.6884 13.6311 16.7009C13.4755 16.7135 13.3264 16.6759 13.1838 16.5881L9.95548 14.7082Z" fill="#F9C510"/>
<path d="M26.059 14.7082L22.8307 16.5881C22.6881 16.6759 22.539 16.7135 22.3834 16.7009C22.2278 16.6884 22.0917 16.6383 21.975 16.5505C21.8583 16.4628 21.7675 16.353 21.7027 16.2212C21.6379 16.0893 21.6249 15.9422 21.6638 15.7798L22.5195 12.2267L19.6607 9.83922C19.531 9.72643 19.4501 9.59784 19.418 9.45346C19.3858 9.30908 19.3954 9.16822 19.4468 9.03086C19.4986 8.893 19.5764 8.7802 19.6801 8.69247C19.7839 8.60474 19.9265 8.54834 20.108 8.52328L23.8808 8.20369L25.3394 4.85743C25.4043 4.70704 25.5049 4.59424 25.6413 4.51905C25.7777 4.44385 25.9169 4.40625 26.059 4.40625C26.2016 4.40625 26.3409 4.44385 26.4767 4.51905C26.6126 4.59424 26.7132 4.70704 26.7786 4.85743L28.2371 8.20369L32.01 8.52328C32.1915 8.54834 32.3341 8.60474 32.4378 8.69247C32.5416 8.7802 32.6194 8.893 32.6712 9.03086C32.7231 9.16872 32.7329 9.30984 32.7008 9.45421C32.6686 9.59859 32.5875 9.72693 32.4573 9.83922L29.5985 12.2267L30.4542 15.7798C30.4931 15.9427 30.4801 16.0901 30.4153 16.2219C30.3505 16.3538 30.2597 16.4633 30.143 16.5505C30.0263 16.6383 29.8902 16.6884 29.7346 16.7009C29.579 16.7135 29.4299 16.6759 29.2873 16.5881L26.059 14.7082Z" fill="#F9C510"/>
<path d="M43.1972 14.7082L39.9689 16.5881C39.8262 16.6759 39.6771 16.7135 39.5216 16.7009C39.366 16.6884 39.2298 16.6383 39.1132 16.5505C38.9965 16.4628 38.9057 16.353 38.8409 16.2212C38.7761 16.0893 38.7631 15.9422 38.802 15.7798L39.6577 12.2267L36.7989 9.83922C36.6692 9.72643 36.5883 9.59784 36.5562 9.45346C36.524 9.30908 36.5336 9.16822 36.585 9.03086C36.6368 8.893 36.7146 8.7802 36.8183 8.69247C36.922 8.60474 37.0647 8.54834 37.2462 8.52328L41.019 8.20369L42.4776 4.85743C42.5424 4.70704 42.643 4.59424 42.7794 4.51905C42.9158 4.44385 43.0551 4.40625 43.1972 4.40625C43.3398 4.40625 43.479 4.44385 43.6149 4.51905C43.7508 4.59424 43.8514 4.70704 43.9167 4.85743L45.3753 8.20369L49.1482 8.52328C49.3297 8.54834 49.4723 8.60474 49.576 8.69247C49.6797 8.7802 49.7575 8.893 49.8094 9.03086C49.8613 9.16872 49.8711 9.30984 49.839 9.45421C49.8068 9.59859 49.7256 9.72693 49.5955 9.83922L46.7367 12.2267L47.5924 15.7798C47.6313 15.9427 47.6183 16.0901 47.5535 16.2219C47.4886 16.3538 47.3979 16.4633 47.2812 16.5505C47.1645 16.6383 47.0284 16.6884 46.8728 16.7009C46.7172 16.7135 46.5681 16.6759 46.4255 16.5881L43.1972 14.7082Z" fill="#F9C510"/>
<path d="M59.8171 14.7082L56.5887 16.5881C56.4461 16.6759 56.297 16.7135 56.1414 16.7009C55.9859 16.6884 55.8497 16.6383 55.733 16.5505C55.6163 16.4628 55.5256 16.353 55.4608 16.2212C55.3959 16.0893 55.383 15.9422 55.4219 15.7798L56.2776 12.2267L53.4188 9.83922C53.2891 9.72643 53.2082 9.59784 53.176 9.45346C53.1439 9.30908 53.1535 9.16822 53.2048 9.03086C53.2567 8.893 53.3345 8.7802 53.4382 8.69247C53.5419 8.60474 53.6845 8.54834 53.866 8.52328L57.6389 8.20369L59.0975 4.85743C59.1623 4.70704 59.2629 4.59424 59.3993 4.51905C59.5357 4.44385 59.675 4.40625 59.8171 4.40625C59.9597 4.40625 60.0989 4.44385 60.2348 4.51905C60.3707 4.59424 60.4713 4.70704 60.5366 4.85743L61.9952 8.20369L65.7681 8.52328C65.9496 8.54834 66.0922 8.60474 66.1959 8.69247C66.2996 8.7802 66.3774 8.893 66.4293 9.03086C66.4811 9.16872 66.491 9.30984 66.4588 9.45421C66.4267 9.59859 66.3455 9.72693 66.2153 9.83922L63.3565 12.2267L64.2122 15.7798C64.2511 15.9427 64.2382 16.0901 64.1733 16.2219C64.1085 16.3538 64.0178 16.4633 63.9011 16.5505C63.7844 16.6383 63.6483 16.6884 63.4927 16.7009C63.3371 16.7135 63.188 16.6759 63.0454 16.5881L59.8171 14.7082Z" fill="#F9C510"/>
<path d="M75.5126 14.7082L72.2843 16.5881C72.1417 16.6759 71.9926 16.7135 71.837 16.7009C71.6814 16.6884 71.5453 16.6383 71.4286 16.5505C71.3119 16.4628 71.2211 16.353 71.1563 16.2212C71.0915 16.0893 71.0785 15.9422 71.1174 15.7798L71.9731 12.2267L69.1143 9.83922C68.9847 9.72643 68.9038 9.59784 68.8716 9.45346C68.8394 9.30908 68.849 9.16822 68.9004 9.03086C68.9522 8.893 69.03 8.7802 69.1338 8.69247C69.2375 8.60474 69.3801 8.54834 69.5616 8.52328L73.3345 8.20369L74.793 4.85743C74.8579 4.70704 74.9585 4.59424 75.0949 4.51905C75.2313 4.44385 75.3705 4.40625 75.5126 4.40625C75.6552 4.40625 75.7945 4.44385 75.9303 4.51905C76.0662 4.59424 76.1668 4.70704 76.2322 4.85743L77.6908 8.20369L81.4636 8.52328C81.6451 8.54834 81.7877 8.60474 81.8915 8.69247C81.9952 8.7802 82.073 8.893 82.1248 9.03086C82.1767 9.16872 82.1865 9.30984 82.1544 9.45421C82.1222 9.59859 82.0411 9.72693 81.9109 9.83922L79.0521 12.2267L79.9078 15.7798C79.9467 15.9427 79.9337 16.0901 79.8689 16.2219C79.8041 16.3538 79.7133 16.4633 79.5966 16.5505C79.4799 16.6383 79.3438 16.6884 79.1882 16.7009C79.0326 16.7135 78.8835 16.6759 78.7409 16.5881L75.5126 14.7082Z" fill="#F9C510"/>
</svg>
