<svg width="53" height="11" viewBox="0 0 53 11" fill="none" xmlns="http://www.w3.org/2000/svg">
<path d="M6.11533 8.37585L4.14203 9.52168C4.05485 9.57515 3.96372 9.59807 3.86862 9.59043C3.77352 9.58279 3.69031 9.55224 3.61898 9.49876C3.54766 9.44529 3.49219 9.37837 3.45256 9.29801C3.41294 9.21765 3.40501 9.12797 3.42879 9.02897L3.95183 6.86335L2.20439 5.40814C2.12514 5.33939 2.07568 5.26101 2.05603 5.17301C2.03638 5.08501 2.04224 4.99915 2.07362 4.91543C2.10532 4.8314 2.15287 4.76265 2.21627 4.70918C2.27967 4.65571 2.36685 4.62133 2.47779 4.60605L4.78395 4.41126L5.6755 2.37168C5.71513 2.28001 5.77662 2.21126 5.85999 2.16543C5.94336 2.1196 6.02848 2.09668 6.11533 2.09668C6.20251 2.09668 6.28762 2.1196 6.37068 2.16543C6.45373 2.21126 6.51523 2.28001 6.55517 2.37168L7.44672 4.41126L9.75287 4.60605C9.86382 4.62133 9.951 4.65571 10.0144 4.70918C10.0778 4.76265 10.1253 4.8314 10.157 4.91543C10.1887 4.99946 10.1948 5.08547 10.1751 5.17347C10.1555 5.26147 10.1059 5.33969 10.0263 5.40814L8.27884 6.86335L8.80188 9.02897C8.82566 9.12828 8.81773 9.21811 8.77811 9.29847C8.73848 9.37883 8.68301 9.4456 8.61169 9.49876C8.54036 9.55224 8.45715 9.58279 8.36205 9.59043C8.26695 9.59807 8.17581 9.57515 8.08864 9.52168L6.11533 8.37585Z" fill="#F9C510"/>
<path d="M16.3866 8.37585L14.4133 9.52168C14.3261 9.57515 14.235 9.59807 14.1399 9.59043C14.0448 9.58279 13.9615 9.55224 13.8902 9.49876C13.8189 9.44529 13.7634 9.37837 13.7238 9.29801C13.6842 9.21765 13.6763 9.12797 13.7 9.02897L14.2231 6.86335L12.4756 5.40814C12.3964 5.33939 12.3469 5.26101 12.3273 5.17301C12.3076 5.08501 12.3135 4.99915 12.3449 4.91543C12.3766 4.8314 12.4241 4.76265 12.4875 4.70918C12.5509 4.65571 12.6381 4.62133 12.749 4.60605L15.0552 4.41126L15.9467 2.37168C15.9864 2.28001 16.0479 2.21126 16.1312 2.16543C16.2146 2.1196 16.2997 2.09668 16.3866 2.09668C16.4737 2.09668 16.5589 2.1196 16.6419 2.16543C16.725 2.21126 16.7865 2.28001 16.8264 2.37168L17.718 4.41126L20.0241 4.60605C20.1351 4.62133 20.2222 4.65571 20.2856 4.70918C20.349 4.76265 20.3966 4.8314 20.4283 4.91543C20.46 4.99946 20.466 5.08547 20.4464 5.17347C20.4267 5.26147 20.3771 5.33969 20.2975 5.40814L18.5501 6.86335L19.0731 9.02897C19.0969 9.12828 19.089 9.21811 19.0493 9.29847C19.0097 9.37883 18.9543 9.4456 18.8829 9.49876C18.8116 9.55224 18.7284 9.58279 18.6333 9.59043C18.5382 9.59807 18.4471 9.57515 18.3599 9.52168L16.3866 8.37585Z" fill="#F9C510"/>
<path d="M26.6564 8.37585L24.683 9.52168C24.5959 9.57515 24.5047 9.59807 24.4096 9.59043C24.3145 9.58279 24.2313 9.55224 24.16 9.49876C24.0887 9.44529 24.0332 9.37837 23.9936 9.29801C23.954 9.21765 23.946 9.12797 23.9698 9.02897L24.4928 6.86335L22.7454 5.40814C22.6662 5.33939 22.6167 5.26101 22.597 5.17301C22.5774 5.08501 22.5833 4.99915 22.6146 4.91543C22.6463 4.8314 22.6939 4.76265 22.7573 4.70918C22.8207 4.65571 22.9079 4.62133 23.0188 4.60605L25.325 4.41126L26.2165 2.37168C26.2561 2.28001 26.3176 2.21126 26.401 2.16543C26.4844 2.1196 26.5695 2.09668 26.6564 2.09668C26.7435 2.09668 26.8286 2.1196 26.9117 2.16543C26.9947 2.21126 27.0562 2.28001 27.0962 2.37168L27.9877 4.41126L30.2939 4.60605C30.4048 4.62133 30.492 4.65571 30.5554 4.70918C30.6188 4.76265 30.6664 4.8314 30.6981 4.91543C30.7298 4.99946 30.7358 5.08547 30.7161 5.17347C30.6965 5.26147 30.6469 5.33969 30.5673 5.40814L28.8199 6.86335L29.3429 9.02897C29.3667 9.12828 29.3587 9.21811 29.3191 9.29847C29.2795 9.37883 29.224 9.4456 29.1527 9.49876C29.0814 9.55224 28.9982 9.58279 28.9031 9.59043C28.808 9.59807 28.7168 9.57515 28.6297 9.52168L26.6564 8.37585Z" fill="#F9C510"/>
<path d="M36.9271 8.37585L34.9538 9.52168C34.8666 9.57515 34.7755 9.59807 34.6804 9.59043C34.5853 9.58279 34.5021 9.55224 34.4308 9.49876C34.3594 9.44529 34.304 9.37837 34.2643 9.29801C34.2247 9.21765 34.2168 9.12797 34.2406 9.02897L34.7636 6.86335L33.0162 5.40814C32.9369 5.33939 32.8875 5.26101 32.8678 5.17301C32.8481 5.08501 32.854 4.99915 32.8854 4.91543C32.9171 4.8314 32.9646 4.76265 33.028 4.70918C33.0914 4.65571 33.1786 4.62133 33.2896 4.60605L35.5957 4.41126L36.4873 2.37168C36.5269 2.28001 36.5884 2.21126 36.6718 2.16543C36.7551 2.1196 36.8402 2.09668 36.9271 2.09668C37.0143 2.09668 37.0994 2.1196 37.1824 2.16543C37.2655 2.21126 37.327 2.28001 37.3669 2.37168L38.2585 4.41126L40.5646 4.60605C40.6756 4.62133 40.7628 4.65571 40.8262 4.70918C40.8896 4.76265 40.9371 4.8314 40.9688 4.91543C41.0005 4.99946 41.0065 5.08547 40.9869 5.17347C40.9672 5.26147 40.9176 5.33969 40.8381 5.40814L39.0906 6.86335L39.6137 9.02897C39.6374 9.12828 39.6295 9.21811 39.5899 9.29847C39.5503 9.37883 39.4948 9.4456 39.4235 9.49876C39.3521 9.55224 39.2689 9.58279 39.1738 9.59043C39.0787 9.59807 38.9876 9.57515 38.9004 9.52168L36.9271 8.37585Z" fill="#F9C510"/>
<path d="M47.1979 3.72376V7.29876L48.6957 8.18105L48.3034 6.53105L49.6229 5.43105L47.8873 5.2821L47.1979 3.72376ZM47.1979 8.37585L45.2245 9.52168C45.1374 9.57515 45.0462 9.59807 44.9511 9.59043C44.856 9.58279 44.7728 9.55224 44.7015 9.49876C44.6302 9.44529 44.5747 9.37837 44.5351 9.29801C44.4955 9.21765 44.4875 9.12797 44.5113 9.02897L45.0344 6.86335L43.2869 5.40814C43.2077 5.33939 43.1582 5.26101 43.1386 5.17301C43.1189 5.08501 43.1248 4.99915 43.1561 4.91543C43.1878 4.8314 43.2354 4.76265 43.2988 4.70918C43.3622 4.65571 43.4494 4.62133 43.5603 4.60605L45.8665 4.41126L46.758 2.37168C46.7976 2.28001 46.8591 2.21126 46.9425 2.16543C47.0259 2.1196 47.111 2.09668 47.1979 2.09668C47.285 2.09668 47.3701 2.1196 47.4532 2.16543C47.5362 2.21126 47.5977 2.28001 47.6377 2.37168L48.5292 4.41126L50.8354 4.60605C50.9463 4.62133 51.0335 4.65571 51.0969 4.70918C51.1603 4.76265 51.2079 4.8314 51.2396 4.91543C51.2713 4.99946 51.2773 5.08547 51.2576 5.17347C51.238 5.26147 51.1884 5.33969 51.1088 5.40814L49.3614 6.86335L49.8844 9.02897C49.9082 9.12828 49.9003 9.21811 49.8606 9.29847C49.821 9.37883 49.7655 9.4456 49.6942 9.49876C49.6229 9.55224 49.5397 9.58279 49.4446 9.59043C49.3495 9.59807 49.2583 9.57515 49.1712 9.52168L47.1979 8.37585Z" fill="#F9C510"/>
</svg>
