<svg width="85" height="19" viewBox="0 0 85 19" fill="none" xmlns="http://www.w3.org/2000/svg">
<path d="M9.85544 14.4822L6.62543 16.3643C6.48274 16.4521 6.33357 16.4898 6.1779 16.4772C6.02224 16.4647 5.88604 16.4145 5.76929 16.3267C5.65254 16.2388 5.56174 16.1289 5.49688 15.9969C5.43202 15.8649 5.41905 15.7176 5.45796 15.555L6.31411 11.9979L3.4538 9.60766C3.32408 9.49473 3.24314 9.366 3.21097 9.22146C3.1788 9.07691 3.18839 8.93588 3.23976 8.79837C3.29165 8.66035 3.36948 8.54742 3.47326 8.45959C3.57703 8.37176 3.71972 8.3153 3.90133 8.2902L7.67616 7.97025L9.1355 4.62016C9.20036 4.46959 9.30102 4.35666 9.43749 4.28138C9.57395 4.2061 9.71327 4.16846 9.85544 4.16846C9.99813 4.16846 10.1375 4.2061 10.2734 4.28138C10.4093 4.35666 10.51 4.46959 10.5754 4.62016L12.0347 7.97025L15.8096 8.2902C15.9912 8.3153 16.1339 8.37176 16.2376 8.45959C16.3414 8.54742 16.4192 8.66035 16.4711 8.79837C16.523 8.93638 16.5329 9.07767 16.5007 9.22221C16.4685 9.36675 16.3873 9.49524 16.2571 9.60766L13.3968 11.9979L14.2529 15.555C14.2918 15.7181 14.2789 15.8657 14.214 15.9977C14.1491 16.1297 14.0583 16.2393 13.9416 16.3267C13.8249 16.4145 13.6886 16.4647 13.533 16.4772C13.3773 16.4898 13.2281 16.4521 13.0855 16.3643L9.85544 14.4822Z" fill="#F9C510"/>
<path d="M25.9673 14.4822L22.7373 16.3643C22.5946 16.4521 22.4454 16.4898 22.2897 16.4772C22.1341 16.4647 21.9979 16.4145 21.8811 16.3267C21.7644 16.2388 21.6736 16.1289 21.6087 15.9969C21.5438 15.8649 21.5309 15.7176 21.5698 15.555L22.4259 11.9979L19.5656 9.60765C19.4359 9.49472 19.355 9.36599 19.3228 9.22145C19.2906 9.0769 19.3002 8.93587 19.3516 8.79836C19.4035 8.66034 19.4813 8.54741 19.5851 8.45958C19.6888 8.37175 19.8315 8.31529 20.0131 8.2902L23.788 7.97025L25.2473 4.62015C25.3122 4.46959 25.4128 4.35666 25.5493 4.28138C25.6858 4.2061 25.8251 4.16846 25.9673 4.16846C26.11 4.16846 26.2493 4.2061 26.3852 4.28138C26.5212 4.35666 26.6218 4.46959 26.6872 4.62015L28.1465 7.97025L31.9214 8.2902C32.103 8.31529 32.2457 8.37175 32.3494 8.45958C32.4532 8.54741 32.531 8.66034 32.5829 8.79836C32.6348 8.93638 32.6447 9.07766 32.6125 9.2222C32.5803 9.36674 32.4991 9.49523 32.3689 9.60765L29.5086 11.9979L30.3647 15.555C30.4037 15.7181 30.3907 15.8657 30.3258 15.9977C30.261 16.1297 30.1702 16.2393 30.0534 16.3267C29.9367 16.4145 29.8005 16.4647 29.6448 16.4772C29.4891 16.4898 29.34 16.4521 29.1973 16.3643L25.9673 14.4822Z" fill="#F9C510"/>
<path d="M43.1152 14.4822L39.8852 16.3643C39.7425 16.4521 39.5933 16.4898 39.4377 16.4772C39.282 16.4647 39.1458 16.4145 39.0291 16.3267C38.9123 16.2388 38.8215 16.1289 38.7566 15.9969C38.6918 15.8649 38.6788 15.7176 38.7177 15.555L39.5739 11.9979L36.7136 9.60765C36.5838 9.49472 36.5029 9.36599 36.4707 9.22145C36.4386 9.0769 36.4482 8.93587 36.4995 8.79836C36.5514 8.66034 36.6292 8.54741 36.733 8.45958C36.8368 8.37175 36.9795 8.31529 37.1611 8.2902L40.9359 7.97025L42.3953 4.62015C42.4601 4.46959 42.5608 4.35666 42.6973 4.28138C42.8337 4.2061 42.973 4.16846 43.1152 4.16846C43.2579 4.16846 43.3972 4.2061 43.5332 4.28138C43.6691 4.35666 43.7698 4.46959 43.8351 4.62015L45.2945 7.97025L49.0693 8.2902C49.2509 8.31529 49.3936 8.37175 49.4974 8.45958C49.6012 8.54741 49.679 8.66034 49.7309 8.79836C49.7828 8.93638 49.7926 9.07766 49.7605 9.2222C49.7283 9.36674 49.6471 9.49523 49.5168 9.60765L46.6565 11.9979L47.5127 15.555C47.5516 15.7181 47.5386 15.8657 47.4738 15.9977C47.4089 16.1297 47.3181 16.2393 47.2014 16.3267C47.0846 16.4145 46.9484 16.4647 46.7927 16.4772C46.6371 16.4898 46.4879 16.4521 46.3452 16.3643L43.1152 14.4822Z" fill="#F9C510"/>
<path d="M59.7427 14.4822L56.5126 16.3643C56.37 16.4521 56.2208 16.4898 56.0651 16.4772C55.9094 16.4647 55.7732 16.4145 55.6565 16.3267C55.5397 16.2388 55.4489 16.1289 55.3841 15.9969C55.3192 15.8649 55.3063 15.7176 55.3452 15.555L56.2013 11.9979L53.341 9.60765C53.2113 9.49472 53.1303 9.36599 53.0982 9.22145C53.066 9.0769 53.0756 8.93587 53.127 8.79836C53.1789 8.66034 53.2567 8.54741 53.3605 8.45958C53.4642 8.37175 53.6069 8.31529 53.7885 8.2902L57.5634 7.97025L59.0227 4.62015C59.0876 4.46959 59.1882 4.35666 59.3247 4.28138C59.4612 4.2061 59.6005 4.16846 59.7427 4.16846C59.8853 4.16846 60.0247 4.2061 60.1606 4.28138C60.2966 4.35666 60.3972 4.46959 60.4626 4.62015L61.9219 7.97025L65.6968 8.2902C65.8784 8.31529 66.0211 8.37175 66.1248 8.45958C66.2286 8.54741 66.3064 8.66034 66.3583 8.79836C66.4102 8.93638 66.4201 9.07766 66.3879 9.2222C66.3557 9.36674 66.2745 9.49523 66.1443 9.60765L63.284 11.9979L64.1401 15.555C64.179 15.7181 64.1661 15.8657 64.1012 15.9977C64.0364 16.1297 63.9456 16.2393 63.8288 16.3267C63.7121 16.4145 63.5759 16.4647 63.4202 16.4772C63.2645 16.4898 63.1153 16.4521 62.9727 16.3643L59.7427 14.4822Z" fill="#F9C510"/>
<path d="M75.4472 14.4822L72.2172 16.3643C72.0745 16.4521 71.9254 16.4898 71.7697 16.4772C71.614 16.4647 71.4778 16.4145 71.3611 16.3267C71.2443 16.2388 71.1535 16.1289 71.0887 15.9969C71.0238 15.8649 71.0108 15.7176 71.0498 15.555L71.9059 11.9979L69.0456 9.60765C68.9159 9.49472 68.8349 9.36599 68.8028 9.22145C68.7706 9.0769 68.7802 8.93587 68.8316 8.79836C68.8834 8.66034 68.9613 8.54741 69.0651 8.45958C69.1688 8.37175 69.3115 8.31529 69.4931 8.2902L73.268 7.97025L74.7273 4.62015C74.7922 4.46959 74.8928 4.35666 75.0293 4.28138C75.1657 4.2061 75.3051 4.16846 75.4472 4.16846C75.5899 4.16846 75.7292 4.2061 75.8652 4.28138C76.0011 4.35666 76.1018 4.46959 76.1672 4.62015L77.6265 7.97025L81.4013 8.2902C81.583 8.31529 81.7256 8.37175 81.8294 8.45958C81.9332 8.54741 82.011 8.66034 82.0629 8.79836C82.1148 8.93638 82.1247 9.07766 82.0925 9.2222C82.0603 9.36674 81.9791 9.49523 81.8489 9.60765L78.9886 11.9979L79.8447 15.555C79.8836 15.7181 79.8707 15.8657 79.8058 15.9977C79.7409 16.1297 79.6501 16.2393 79.5334 16.3267C79.4166 16.4145 79.2804 16.4647 79.1248 16.4772C78.9691 16.4898 78.8199 16.4521 78.6772 16.3643L75.4472 14.4822Z" fill="#F9C510"/>
</svg>
