<svg width="30" height="30" viewBox="0 0 30 30" fill="none" xmlns="http://www.w3.org/2000/svg">
<path d="M19.1836 12.2266C19.594 13.3653 19.6808 14.5956 19.4342 15.7807C19.1877 16.9658 18.6175 18.0594 17.787 18.94" stroke="#D9D9D9" stroke-width="1.71429" stroke-linecap="round" stroke-linejoin="round"/>
<path d="M18.2727 13.4904C18.7362 13.5868 19.1901 13.2892 19.2865 12.8258C19.3829 12.3623 19.0854 11.9084 18.6219 11.812C18.1584 11.7156 17.7046 12.0132 17.6081 12.4766C17.5117 12.9401 17.8093 13.394 18.2727 13.4904Z" stroke="#D9D9D9" stroke-width="1.71429" stroke-linecap="round" stroke-linejoin="round"/>
<path d="M24.2354 13.2776C24.6458 14.4164 24.7325 15.6466 24.486 16.8317C24.2394 18.0168 23.6693 19.1104 22.8387 19.991" stroke="#D9D9D9" stroke-width="1.71429" stroke-linecap="round" stroke-linejoin="round"/>
<path d="M23.3245 14.5414C23.788 14.6378 24.2418 14.3403 24.3382 13.8768C24.4347 13.4133 24.1371 12.9595 23.6736 12.8631C23.2102 12.7666 22.7563 13.0642 22.6599 13.5277C22.5635 13.9911 22.861 14.445 23.3245 14.5414Z" stroke="#D9D9D9" stroke-width="1.71429" stroke-linecap="round" stroke-linejoin="round"/>
</svg>
