<svg width="30" height="29" viewBox="0 0 30 29" fill="none" xmlns="http://www.w3.org/2000/svg">
<path d="M19.1836 11.2729C19.594 12.4117 19.6808 13.642 19.4342 14.8271C19.1877 16.0122 18.6175 17.1057 17.787 17.9864" stroke="#D9D9D9" stroke-width="1.71429" stroke-linecap="round" stroke-linejoin="round"/>
<path d="M18.2727 12.5368C18.7362 12.6332 19.1901 12.3356 19.2865 11.8722C19.3829 11.4087 19.0854 10.9548 18.6219 10.8584C18.1584 10.762 17.7046 11.0595 17.6081 11.523C17.5117 11.9865 17.8093 12.4404 18.2727 12.5368Z" stroke="#D9D9D9" stroke-width="1.71429" stroke-linecap="round" stroke-linejoin="round"/>
<path d="M24.2354 12.324C24.6458 13.4627 24.7325 14.693 24.486 15.8781C24.2394 17.0632 23.6693 18.1568 22.8387 19.0374" stroke="#D9D9D9" stroke-width="1.71429" stroke-linecap="round" stroke-linejoin="round"/>
<path d="M23.3245 13.5878C23.788 13.6842 24.2418 13.3867 24.3382 12.9232C24.4347 12.4597 24.1371 12.0059 23.6736 11.9094C23.2102 11.813 22.7563 12.1106 22.6599 12.574C22.5635 13.0375 22.861 13.4914 23.3245 13.5878Z" stroke="#D9D9D9" stroke-width="1.71429" stroke-linecap="round" stroke-linejoin="round"/>
</svg>
