<svg width="30" height="30" viewBox="0 0 30 30" fill="none" xmlns="http://www.w3.org/2000/svg">
<path d="M19.052 12.123C19.4382 13.2703 19.4989 14.5021 19.2272 15.6817C18.9556 16.8613 18.3624 17.9425 17.5134 18.8053" stroke="#D9D9D9" stroke-width="1.71429" stroke-linecap="round" stroke-linejoin="round"/>
<path d="M18.1147 13.3673C18.576 13.4735 19.0361 13.1856 19.1423 12.7243C19.2485 12.263 18.9607 11.8029 18.4993 11.6967C18.038 11.5905 17.578 11.8784 17.4717 12.3397C17.3655 12.801 17.6534 13.2611 18.1147 13.3673Z" stroke="#D9D9D9" stroke-width="1.71429" stroke-linecap="round" stroke-linejoin="round"/>
<path d="M24.0806 13.2808C24.4668 14.428 24.5274 15.6598 24.2558 16.8394C23.9842 18.019 23.391 19.1002 22.542 19.9631" stroke="#D9D9D9" stroke-width="1.71429" stroke-linecap="round" stroke-linejoin="round"/>
<path d="M23.143 14.525C23.6043 14.6312 24.0644 14.3434 24.1706 13.882C24.2768 13.4207 23.989 12.9607 23.5277 12.8544C23.0664 12.7482 22.6063 13.0361 22.5001 13.4974C22.3938 13.9587 22.6817 14.4188 23.143 14.525Z" stroke="#D9D9D9" stroke-width="1.71429" stroke-linecap="round" stroke-linejoin="round"/>
</svg>
