<svg width="30" height="30" viewBox="0 0 30 30" fill="none" xmlns="http://www.w3.org/2000/svg">
<path d="M18.9912 12.0339C19.4016 13.1727 19.4884 14.403 19.2418 15.5881C18.9953 16.7732 18.4251 17.8667 17.5946 18.7473" stroke="#D9D9D9" stroke-width="1.71429" stroke-linecap="round" stroke-linejoin="round"/>
<path d="M18.0804 13.2978C18.5438 13.3942 18.9977 13.0966 19.0941 12.6332C19.1905 12.1697 18.893 11.7158 18.4295 11.6194C17.966 11.523 17.5122 11.8205 17.4158 12.284C17.3193 12.7475 17.6169 13.2013 18.0804 13.2978Z" stroke="#D9D9D9" stroke-width="1.71429" stroke-linecap="round" stroke-linejoin="round"/>
<path d="M24.043 13.085C24.4534 14.2237 24.5401 15.454 24.2936 16.6391C24.0471 17.8242 23.4769 18.9178 22.6464 19.7984" stroke="#D9D9D9" stroke-width="1.71429" stroke-linecap="round" stroke-linejoin="round"/>
<path d="M23.1321 14.3488C23.5956 14.4452 24.0494 14.1476 24.1459 13.6842C24.2423 13.2207 23.9447 12.7668 23.4813 12.6704C23.0178 12.574 22.5639 12.8716 22.4675 13.335C22.3711 13.7985 22.6686 14.2524 23.1321 14.3488Z" stroke="#D9D9D9" stroke-width="1.71429" stroke-linecap="round" stroke-linejoin="round"/>
</svg>
