<svg width="29" height="28" viewBox="0 0 29 28" fill="none" xmlns="http://www.w3.org/2000/svg">
<path d="M10.7041 17.0042C10.2706 15.874 10.1588 14.6457 10.3811 13.4559C10.6035 12.266 11.1513 11.161 11.9637 10.2637" stroke="#D9D9D9" stroke-width="1.71429" stroke-linecap="round" stroke-linejoin="round"/>
<path d="M11.589 15.7221C11.1237 15.6352 10.676 15.9419 10.589 16.4072C10.5021 16.8726 10.8088 17.3203 11.2741 17.4072C11.7395 17.4942 12.1872 17.1875 12.2742 16.7221C12.3611 16.2568 12.0544 15.8091 11.589 15.7221Z" stroke="#D9D9D9" stroke-width="1.71429" stroke-linecap="round" stroke-linejoin="round"/>
<path d="M5.63208 16.0564C5.19856 14.9262 5.08677 13.698 5.30912 12.5081C5.53148 11.3182 6.07929 10.2133 6.8917 9.31594" stroke="#D9D9D9" stroke-width="1.71429" stroke-linecap="round" stroke-linejoin="round"/>
<path d="M6.51678 14.7744C6.05145 14.6874 5.60373 14.9941 5.51677 15.4595C5.42981 15.9248 5.73655 16.3725 6.20188 16.4595C6.66721 16.5464 7.11493 16.2397 7.20189 15.7744C7.28885 15.3091 6.98211 14.8613 6.51678 14.7744Z" stroke="#D9D9D9" stroke-width="1.71429" stroke-linecap="round" stroke-linejoin="round"/>
</svg>
