<svg width="29" height="29" viewBox="0 0 29 29" fill="none" xmlns="http://www.w3.org/2000/svg">
<path d="M10.7041 17.9578C10.2706 16.8276 10.1588 15.5994 10.3811 14.4095C10.6035 13.2196 11.1513 12.1146 11.9637 11.2173" stroke="#D9D9D9" stroke-width="1.71429" stroke-linecap="round" stroke-linejoin="round"/>
<path d="M11.589 16.6757C11.1237 16.5888 10.676 16.8955 10.589 17.3608C10.5021 17.8262 10.8088 18.2739 11.2741 18.3609C11.7395 18.4478 12.1872 18.1411 12.2742 17.6758C12.3611 17.2104 12.0544 16.7627 11.589 16.6757Z" stroke="#D9D9D9" stroke-width="1.71429" stroke-linecap="round" stroke-linejoin="round"/>
<path d="M5.63208 17.01C5.19856 15.8798 5.08677 14.6516 5.30912 13.4617C5.53148 12.2719 6.07929 11.1669 6.8917 10.2696" stroke="#D9D9D9" stroke-width="1.71429" stroke-linecap="round" stroke-linejoin="round"/>
<path d="M6.51678 15.728C6.05145 15.641 5.60373 15.9478 5.51677 16.4131C5.42981 16.8784 5.73655 17.3261 6.20188 17.4131C6.66721 17.5001 7.11493 17.1933 7.20189 16.728C7.28885 16.2627 6.98211 15.8149 6.51678 15.728Z" stroke="#D9D9D9" stroke-width="1.71429" stroke-linecap="round" stroke-linejoin="round"/>
</svg>
