<svg width="30" height="30" viewBox="0 0 30 30" fill="none" xmlns="http://www.w3.org/2000/svg">
<path d="M19.4382 12.5095C19.8244 13.6567 19.8851 14.8885 19.6135 16.0682C19.3419 17.2478 18.7486 18.329 17.8996 19.1918" stroke="#D9D9D9" stroke-width="1.71429" stroke-linecap="round" stroke-linejoin="round"/>
<path d="M18.5009 13.7538C18.9622 13.86 19.4223 13.5721 19.5285 13.1108C19.6348 12.6495 19.3469 12.1894 18.8856 12.0832C18.4243 11.977 17.9642 12.2648 17.858 12.7262C17.7517 13.1875 18.0396 13.6476 18.5009 13.7538Z" stroke="#D9D9D9" stroke-width="1.71429" stroke-linecap="round" stroke-linejoin="round"/>
<path d="M24.4668 13.6672C24.853 14.8145 24.9136 16.0463 24.642 17.2259C24.3704 18.4055 23.7772 19.4867 22.9282 20.3495" stroke="#D9D9D9" stroke-width="1.71429" stroke-linecap="round" stroke-linejoin="round"/>
<path d="M23.5292 14.9115C23.9906 15.0177 24.4506 14.7298 24.5569 14.2685C24.6631 13.8072 24.3752 13.3471 23.9139 13.2409C23.4526 13.1347 22.9925 13.4226 22.8863 13.8839C22.7801 14.3452 23.0679 14.8053 23.5292 14.9115Z" stroke="#D9D9D9" stroke-width="1.71429" stroke-linecap="round" stroke-linejoin="round"/>
</svg>
