<svg width="28" height="27" viewBox="0 0 28 27" fill="none" xmlns="http://www.w3.org/2000/svg">
<path d="M10.2971 16.6501C9.79744 15.5476 9.61312 14.3282 9.76463 13.1272C9.91615 11.9263 10.3976 10.7908 11.1554 9.84693" stroke="#D9D9D9" stroke-width="1.71429" stroke-linecap="round" stroke-linejoin="round"/>
<path d="M11.1044 15.3179C10.6347 15.2586 10.206 15.5913 10.1467 16.061C10.0875 16.5307 10.4202 16.9594 10.8898 17.0187C11.3595 17.0779 11.7883 16.7452 11.8475 16.2756C11.9068 15.8059 11.5741 15.3771 11.1044 15.3179Z" stroke="#D9D9D9" stroke-width="1.71429" stroke-linecap="round" stroke-linejoin="round"/>
<path d="M5.17749 16.0044C4.67781 14.9019 4.49349 13.6824 4.64501 12.4815C4.79652 11.2805 5.27794 10.1451 6.0358 9.20118" stroke="#D9D9D9" stroke-width="1.71429" stroke-linecap="round" stroke-linejoin="round"/>
<path d="M5.98503 14.6719C5.51536 14.6126 5.08659 14.9453 5.02733 15.415C4.96808 15.8847 5.30078 16.3134 5.77045 16.3727C6.24011 16.4319 6.66888 16.0992 6.72814 15.6296C6.78739 15.1599 6.45469 14.7311 5.98503 14.6719Z" stroke="#D9D9D9" stroke-width="1.71429" stroke-linecap="round" stroke-linejoin="round"/>
</svg>
