<svg width="28" height="28" viewBox="0 0 28 28" fill="none" xmlns="http://www.w3.org/2000/svg">
<path d="M10.2971 17.6038C9.79744 16.5012 9.61312 15.2818 9.76463 14.0808C9.91615 12.8799 10.3976 11.7444 11.1554 10.8005" stroke="#D9D9D9" stroke-width="1.71429" stroke-linecap="round" stroke-linejoin="round"/>
<path d="M11.1044 16.2715C10.6347 16.2122 10.206 16.5449 10.1467 17.0146C10.0875 17.4843 10.4202 17.913 10.8898 17.9723C11.3595 18.0316 11.7883 17.6989 11.8475 17.2292C11.9068 16.7595 11.5741 16.3308 11.1044 16.2715Z" stroke="#D9D9D9" stroke-width="1.71429" stroke-linecap="round" stroke-linejoin="round"/>
<path d="M5.17749 16.958C4.67781 15.8555 4.49349 14.636 4.64501 13.4351C4.79652 12.2341 5.27794 11.0987 6.0358 10.1548" stroke="#D9D9D9" stroke-width="1.71429" stroke-linecap="round" stroke-linejoin="round"/>
<path d="M5.98503 15.6255C5.51536 15.5662 5.08659 15.899 5.02733 16.3686C4.96808 16.8383 5.30078 17.2671 5.77045 17.3263C6.24011 17.3856 6.66888 17.0529 6.72814 16.5832C6.78739 16.1135 6.45469 15.6848 5.98503 15.6255Z" stroke="#D9D9D9" stroke-width="1.71429" stroke-linecap="round" stroke-linejoin="round"/>
</svg>
