<svg width="28" height="28" viewBox="0 0 28 28" fill="none" xmlns="http://www.w3.org/2000/svg">
<path d="M9.88965 17.196C9.38997 16.0935 9.20565 14.8741 9.35716 13.6731C9.50868 12.4722 9.9901 11.3367 10.748 10.3928" stroke="#D9D9D9" stroke-width="1.71429" stroke-linecap="round" stroke-linejoin="round"/>
<path d="M10.6969 15.8638C10.2273 15.8045 9.7985 16.1372 9.73925 16.6069C9.68 17.0766 10.0127 17.5053 10.4824 17.5646C10.952 17.6238 11.3808 17.2911 11.4401 16.8215C11.4993 16.3518 11.1666 15.923 10.6969 15.8638Z" stroke="#D9D9D9" stroke-width="1.71429" stroke-linecap="round" stroke-linejoin="round"/>
<path d="M4.77002 16.5503C4.27034 15.4478 4.08602 14.2283 4.23753 13.0274C4.38905 11.8264 4.87047 10.691 5.62833 9.74708" stroke="#D9D9D9" stroke-width="1.71429" stroke-linecap="round" stroke-linejoin="round"/>
<path d="M5.57755 15.2178C5.10789 15.1585 4.67912 15.4912 4.61986 15.9609C4.56061 16.4306 4.89331 16.8593 5.36298 16.9186C5.83264 16.9778 6.26141 16.6451 6.32067 16.1755C6.37992 15.7058 6.04722 15.277 5.57755 15.2178Z" stroke="#D9D9D9" stroke-width="1.71429" stroke-linecap="round" stroke-linejoin="round"/>
</svg>
