<svg width="30" height="29" viewBox="0 0 30 29" fill="none" xmlns="http://www.w3.org/2000/svg">
<path d="M19.4385 11.5559C19.8247 12.7031 19.8853 13.9349 19.6137 15.1145C19.3421 16.2941 18.7489 17.3754 17.8999 18.2382" stroke="#D9D9D9" stroke-width="1.71429" stroke-linecap="round" stroke-linejoin="round"/>
<path d="M18.5012 12.8002C18.9625 12.9064 19.4226 12.6185 19.5288 12.1572C19.635 11.6959 19.3471 11.2358 18.8858 11.1296C18.4245 11.0234 17.9644 11.3112 17.8582 11.7725C17.752 12.2339 18.0399 12.6939 18.5012 12.8002Z" stroke="#D9D9D9" stroke-width="1.71429" stroke-linecap="round" stroke-linejoin="round"/>
<path d="M24.467 12.7136C24.8532 13.8608 24.9139 15.0926 24.6423 16.2723C24.3707 17.4519 23.7774 18.5331 22.9284 19.3959" stroke="#D9D9D9" stroke-width="1.71429" stroke-linecap="round" stroke-linejoin="round"/>
<path d="M23.5295 13.9579C23.9908 14.0641 24.4509 13.7762 24.5571 13.3149C24.6633 12.8536 24.3755 12.3935 23.9141 12.2873C23.4528 12.1811 22.9928 12.4689 22.8865 12.9303C22.7803 13.3916 23.0682 13.8517 23.5295 13.9579Z" stroke="#D9D9D9" stroke-width="1.71429" stroke-linecap="round" stroke-linejoin="round"/>
</svg>
