<svg width="25" height="25" viewBox="0 0 25 25" fill="none" xmlns="http://www.w3.org/2000/svg">
<path d="M19.6494 7.49902H16.6494V6.49902C16.6494 5.43816 16.228 4.42074 15.4778 3.6706C14.7277 2.92045 13.7103 2.49902 12.6494 2.49902C11.5885 2.49902 10.5711 2.92045 9.82099 3.6706C9.07084 4.42074 8.64941 5.43816 8.64941 6.49902V7.49902H5.64941C5.3842 7.49902 5.12984 7.60438 4.94231 7.79192C4.75477 7.97945 4.64941 8.23381 4.64941 8.49902V19.499C4.64941 20.2947 4.96548 21.0577 5.52809 21.6203C6.0907 22.183 6.85376 22.499 7.64941 22.499H17.6494C18.4451 22.499 19.2081 22.183 19.7707 21.6203C20.3333 21.0577 20.6494 20.2947 20.6494 19.499V8.49902C20.6494 8.23381 20.5441 7.97945 20.3565 7.79192C20.169 7.60438 19.9146 7.49902 19.6494 7.49902ZM10.6494 6.49902C10.6494 5.96859 10.8601 5.45988 11.2352 5.08481C11.6103 4.70974 12.119 4.49902 12.6494 4.49902C13.1798 4.49902 13.6886 4.70974 14.0636 5.08481C14.4387 5.45988 14.6494 5.96859 14.6494 6.49902V7.49902H10.6494V6.49902ZM18.6494 19.499C18.6494 19.7642 18.5441 20.0186 18.3565 20.2061C18.169 20.3937 17.9146 20.499 17.6494 20.499H7.64941C7.3842 20.499 7.12984 20.3937 6.94231 20.2061C6.75477 20.0186 6.64941 19.7642 6.64941 19.499V9.49902H8.64941V10.499C8.64941 10.7642 8.75477 11.0186 8.94231 11.2061C9.12984 11.3937 9.3842 11.499 9.64941 11.499C9.91463 11.499 10.169 11.3937 10.3565 11.2061C10.5441 11.0186 10.6494 10.7642 10.6494 10.499V9.49902H14.6494V10.499C14.6494 10.7642 14.7548 11.0186 14.9423 11.2061C15.1298 11.3937 15.3842 11.499 15.6494 11.499C15.9146 11.499 16.169 11.3937 16.3565 11.2061C16.5441 11.0186 16.6494 10.7642 16.6494 10.499V9.49902H18.6494V19.499Z" fill="white"/>
</svg>
