<svg width="25" height="25" viewBox="0 0 25 25" fill="none" xmlns="http://www.w3.org/2000/svg">
<path d="M19.3599 7.49951H16.3599V6.49951C16.3599 5.43865 15.9384 4.42123 15.1883 3.67108C14.4381 2.92094 13.4207 2.49951 12.3599 2.49951C11.299 2.49951 10.2816 2.92094 9.53144 3.67108C8.78129 4.42123 8.35986 5.43865 8.35986 6.49951V7.49951H5.35986C5.09465 7.49951 4.84029 7.60487 4.65276 7.79241C4.46522 7.97994 4.35986 8.2343 4.35986 8.49951V19.4995C4.35986 20.2952 4.67593 21.0582 5.23854 21.6208C5.80115 22.1834 6.56421 22.4995 7.35986 22.4995H17.3599C18.1555 22.4995 18.9186 22.1834 19.4812 21.6208C20.0438 21.0582 20.3599 20.2952 20.3599 19.4995V8.49951C20.3599 8.2343 20.2545 7.97994 20.067 7.79241C19.8794 7.60487 19.6251 7.49951 19.3599 7.49951ZM10.3599 6.49951C10.3599 5.96908 10.5706 5.46037 10.9457 5.0853C11.3207 4.71023 11.8294 4.49951 12.3599 4.49951C12.8903 4.49951 13.399 4.71023 13.7741 5.0853C14.1491 5.46037 14.3599 5.96908 14.3599 6.49951V7.49951H10.3599V6.49951ZM18.3599 19.4995C18.3599 19.7647 18.2545 20.0191 18.067 20.2066C17.8794 20.3942 17.6251 20.4995 17.3599 20.4995H7.35986C7.09465 20.4995 6.84029 20.3942 6.65276 20.2066C6.46522 20.0191 6.35986 19.7647 6.35986 19.4995V9.49951H8.35986V10.4995C8.35986 10.7647 8.46522 11.0191 8.65276 11.2066C8.84029 11.3942 9.09465 11.4995 9.35986 11.4995C9.62508 11.4995 9.87943 11.3942 10.067 11.2066C10.2545 11.0191 10.3599 10.7647 10.3599 10.4995V9.49951H14.3599V10.4995C14.3599 10.7647 14.4652 11.0191 14.6528 11.2066C14.8403 11.3942 15.0946 11.4995 15.3599 11.4995C15.6251 11.4995 15.8794 11.3942 16.067 11.2066C16.2545 11.0191 16.3599 10.7647 16.3599 10.4995V9.49951H18.3599V19.4995Z" fill="white"/>
</svg>
