<svg width="25" height="25" viewBox="0 0 25 25" fill="none" xmlns="http://www.w3.org/2000/svg">
<path d="M19.8176 7.95361H16.8176V6.95361C16.8176 5.89275 16.3962 4.87533 15.6461 4.12519C14.8959 3.37504 13.8785 2.95361 12.8176 2.95361C11.7568 2.95361 10.7393 3.37504 9.9892 4.12519C9.23905 4.87533 8.81763 5.89275 8.81763 6.95361V7.95361H5.81763C5.55241 7.95361 5.29806 8.05897 5.11052 8.24651C4.92298 8.43404 4.81763 8.6884 4.81763 8.95361V19.9536C4.81763 20.7493 5.1337 21.5123 5.69631 22.0749C6.25892 22.6375 7.02198 22.9536 7.81763 22.9536H17.8176C18.6133 22.9536 19.3763 22.6375 19.9389 22.0749C20.5016 21.5123 20.8176 20.7493 20.8176 19.9536V8.95361C20.8176 8.6884 20.7123 8.43404 20.5247 8.24651C20.3372 8.05897 20.0828 7.95361 19.8176 7.95361ZM10.8176 6.95361C10.8176 6.42318 11.0283 5.91447 11.4034 5.5394C11.7785 5.16433 12.2872 4.95361 12.8176 4.95361C13.3481 4.95361 13.8568 5.16433 14.2318 5.5394C14.6069 5.91447 14.8176 6.42318 14.8176 6.95361V7.95361H10.8176V6.95361ZM18.8176 19.9536C18.8176 20.2188 18.7123 20.4732 18.5247 20.6607C18.3372 20.8483 18.0828 20.9536 17.8176 20.9536H7.81763C7.55241 20.9536 7.29806 20.8483 7.11052 20.6607C6.92298 20.4732 6.81763 20.2188 6.81763 19.9536V9.95361H8.81763V10.9536C8.81763 11.2188 8.92298 11.4732 9.11052 11.6607C9.29806 11.8483 9.55241 11.9536 9.81763 11.9536C10.0828 11.9536 10.3372 11.8483 10.5247 11.6607C10.7123 11.4732 10.8176 11.2188 10.8176 10.9536V9.95361H14.8176V10.9536C14.8176 11.2188 14.923 11.4732 15.1105 11.6607C15.2981 11.8483 15.5524 11.9536 15.8176 11.9536C16.0828 11.9536 16.3372 11.8483 16.5247 11.6607C16.7123 11.4732 16.8176 11.2188 16.8176 10.9536V9.95361H18.8176V19.9536Z" fill="white"/>
</svg>
