<svg width="25" height="25" viewBox="0 0 25 25" fill="none" xmlns="http://www.w3.org/2000/svg">
<path d="M19.8315 7.49951H16.8315V6.49951C16.8315 5.43865 16.4101 4.42123 15.66 3.67108C14.9098 2.92094 13.8924 2.49951 12.8315 2.49951C11.7707 2.49951 10.7533 2.92094 10.0031 3.67108C9.25297 4.42123 8.83154 5.43865 8.83154 6.49951V7.49951H5.83154C5.56633 7.49951 5.31197 7.60487 5.12444 7.79241C4.9369 7.97994 4.83154 8.2343 4.83154 8.49951V19.4995C4.83154 20.2952 5.14761 21.0582 5.71022 21.6208C6.27283 22.1834 7.03589 22.4995 7.83154 22.4995H17.8315C18.6272 22.4995 19.3903 22.1834 19.9529 21.6208C20.5155 21.0582 20.8315 20.2952 20.8315 19.4995V8.49951C20.8315 8.2343 20.7262 7.97994 20.5387 7.79241C20.3511 7.60487 20.0968 7.49951 19.8315 7.49951ZM10.8315 6.49951C10.8315 5.96908 11.0423 5.46037 11.4173 5.0853C11.7924 4.71023 12.3011 4.49951 12.8315 4.49951C13.362 4.49951 13.8707 4.71023 14.2458 5.0853C14.6208 5.46037 14.8315 5.96908 14.8315 6.49951V7.49951H10.8315V6.49951ZM18.8315 19.4995C18.8315 19.7647 18.7262 20.0191 18.5387 20.2066C18.3511 20.3942 18.0968 20.4995 17.8315 20.4995H7.83154C7.56633 20.4995 7.31197 20.3942 7.12444 20.2066C6.9369 20.0191 6.83154 19.7647 6.83154 19.4995V9.49951H8.83154V10.4995C8.83154 10.7647 8.9369 11.0191 9.12444 11.2066C9.31197 11.3942 9.56633 11.4995 9.83154 11.4995C10.0968 11.4995 10.3511 11.3942 10.5386 11.2066C10.7262 11.0191 10.8315 10.7647 10.8315 10.4995V9.49951H14.8315V10.4995C14.8315 10.7647 14.9369 11.0191 15.1244 11.2066C15.312 11.3942 15.5663 11.4995 15.8315 11.4995C16.0968 11.4995 16.3511 11.3942 16.5386 11.2066C16.7262 11.0191 16.8315 10.7647 16.8315 10.4995V9.49951H18.8315V19.4995Z" fill="white"/>
</svg>
