<svg width="25" height="25" viewBox="0 0 25 25" fill="none" xmlns="http://www.w3.org/2000/svg">
<path d="M19.1208 7.49951H16.1208V6.49951C16.1208 5.43865 15.6994 4.42123 14.9493 3.67108C14.1991 2.92094 13.1817 2.49951 12.1208 2.49951C11.06 2.49951 10.0426 2.92094 9.29242 3.67108C8.54228 4.42123 8.12085 5.43865 8.12085 6.49951V7.49951H5.12085C4.85563 7.49951 4.60128 7.60487 4.41374 7.79241C4.22621 7.97994 4.12085 8.2343 4.12085 8.49951V19.4995C4.12085 20.2952 4.43692 21.0582 4.99953 21.6208C5.56214 22.1834 6.3252 22.4995 7.12085 22.4995H17.1208C17.9165 22.4995 18.6796 22.1834 19.2422 21.6208C19.8048 21.0582 20.1208 20.2952 20.1208 19.4995V8.49951C20.1208 8.2343 20.0155 7.97994 19.828 7.79241C19.6404 7.60487 19.3861 7.49951 19.1208 7.49951ZM10.1208 6.49951C10.1208 5.96908 10.3316 5.46037 10.7066 5.0853C11.0817 4.71023 11.5904 4.49951 12.1208 4.49951C12.6513 4.49951 13.16 4.71023 13.5351 5.0853C13.9101 5.46037 14.1208 5.96908 14.1208 6.49951V7.49951H10.1208V6.49951ZM18.1208 19.4995C18.1208 19.7647 18.0155 20.0191 17.828 20.2066C17.6404 20.3942 17.3861 20.4995 17.1208 20.4995H7.12085C6.85563 20.4995 6.60128 20.3942 6.41374 20.2066C6.22621 20.0191 6.12085 19.7647 6.12085 19.4995V9.49951H8.12085V10.4995C8.12085 10.7647 8.22621 11.0191 8.41374 11.2066C8.60128 11.3942 8.85563 11.4995 9.12085 11.4995C9.38607 11.4995 9.64042 11.3942 9.82796 11.2066C10.0155 11.0191 10.1208 10.7647 10.1208 10.4995V9.49951H14.1208V10.4995C14.1208 10.7647 14.2262 11.0191 14.4137 11.2066C14.6013 11.3942 14.8556 11.4995 15.1208 11.4995C15.3861 11.4995 15.6404 11.3942 15.828 11.2066C16.0155 11.0191 16.1208 10.7647 16.1208 10.4995V9.49951H18.1208V19.4995Z" fill="white"/>
</svg>
