<svg width="25" height="25" viewBox="0 0 25 25" fill="none" xmlns="http://www.w3.org/2000/svg">
<path d="M19.0728 7.49951H16.0728V6.49951C16.0728 5.43865 15.6513 4.42123 14.9012 3.67108C14.151 2.92094 13.1336 2.49951 12.0728 2.49951C11.0119 2.49951 9.99447 2.92094 9.24433 3.67108C8.49418 4.42123 8.07275 5.43865 8.07275 6.49951V7.49951H5.07275C4.80754 7.49951 4.55318 7.60487 4.36565 7.79241C4.17811 7.97994 4.07275 8.2343 4.07275 8.49951V19.4995C4.07275 20.2952 4.38882 21.0582 4.95143 21.6208C5.51404 22.1834 6.2771 22.4995 7.07275 22.4995H17.0728C17.8684 22.4995 18.6315 22.1834 19.1941 21.6208C19.7567 21.0582 20.0728 20.2952 20.0728 19.4995V8.49951C20.0728 8.2343 19.9674 7.97994 19.7799 7.79241C19.5923 7.60487 19.338 7.49951 19.0728 7.49951ZM10.0728 6.49951C10.0728 5.96908 10.2835 5.46037 10.6585 5.0853C11.0336 4.71023 11.5423 4.49951 12.0728 4.49951C12.6032 4.49951 13.1119 4.71023 13.487 5.0853C13.862 5.46037 14.0728 5.96908 14.0728 6.49951V7.49951H10.0728V6.49951ZM18.0728 19.4995C18.0728 19.7647 17.9674 20.0191 17.7799 20.2066C17.5923 20.3942 17.338 20.4995 17.0728 20.4995H7.07275C6.80754 20.4995 6.55318 20.3942 6.36565 20.2066C6.17811 20.0191 6.07275 19.7647 6.07275 19.4995V9.49951H8.07275V10.4995C8.07275 10.7647 8.17811 11.0191 8.36565 11.2066C8.55318 11.3942 8.80754 11.4995 9.07275 11.4995C9.33797 11.4995 9.59232 11.3942 9.77986 11.2066C9.9674 11.0191 10.0728 10.7647 10.0728 10.4995V9.49951H14.0728V10.4995C14.0728 10.7647 14.1781 11.0191 14.3656 11.2066C14.5532 11.3942 14.8075 11.4995 15.0728 11.4995C15.338 11.4995 15.5923 11.3942 15.7799 11.2066C15.9674 11.0191 16.0728 10.7647 16.0728 10.4995V9.49951H18.0728V19.4995Z" fill="white"/>
</svg>
