<svg width="25" height="25" viewBox="0 0 25 25" fill="none" xmlns="http://www.w3.org/2000/svg">
<path d="M19.9438 7.49951H16.9438V6.49951C16.9438 5.43865 16.5224 4.42123 15.7723 3.67108C15.0221 2.92094 14.0047 2.49951 12.9438 2.49951C11.883 2.49951 10.8656 2.92094 10.1154 3.67108C9.36527 4.42123 8.94385 5.43865 8.94385 6.49951V7.49951H5.94385C5.67863 7.49951 5.42428 7.60487 5.23674 7.79241C5.0492 7.97994 4.94385 8.2343 4.94385 8.49951V19.4995C4.94385 20.2952 5.25992 21.0582 5.82253 21.6208C6.38514 22.1834 7.1482 22.4995 7.94385 22.4995H17.9438C18.7395 22.4995 19.5026 22.1834 20.0652 21.6208C20.6278 21.0582 20.9438 20.2952 20.9438 19.4995V8.49951C20.9438 8.2343 20.8385 7.97994 20.651 7.79241C20.4634 7.60487 20.2091 7.49951 19.9438 7.49951ZM10.9438 6.49951C10.9438 5.96908 11.1546 5.46037 11.5296 5.0853C11.9047 4.71023 12.4134 4.49951 12.9438 4.49951C13.4743 4.49951 13.983 4.71023 14.3581 5.0853C14.7331 5.46037 14.9438 5.96908 14.9438 6.49951V7.49951H10.9438V6.49951ZM18.9438 19.4995C18.9438 19.7647 18.8385 20.0191 18.651 20.2066C18.4634 20.3942 18.2091 20.4995 17.9438 20.4995H7.94385C7.67863 20.4995 7.42428 20.3942 7.23674 20.2066C7.0492 20.0191 6.94385 19.7647 6.94385 19.4995V9.49951H8.94385V10.4995C8.94385 10.7647 9.0492 11.0191 9.23674 11.2066C9.42428 11.3942 9.67863 11.4995 9.94385 11.4995C10.2091 11.4995 10.4634 11.3942 10.651 11.2066C10.8385 11.0191 10.9438 10.7647 10.9438 10.4995V9.49951H14.9438V10.4995C14.9438 10.7647 15.0492 11.0191 15.2367 11.2066C15.4243 11.3942 15.6786 11.4995 15.9438 11.4995C16.2091 11.4995 16.4634 11.3942 16.651 11.2066C16.8385 11.0191 16.9438 10.7647 16.9438 10.4995V9.49951H18.9438V19.4995Z" fill="white"/>
</svg>
