<svg width="25" height="25" viewBox="0 0 25 25" fill="none" xmlns="http://www.w3.org/2000/svg">
<path d="M19.3782 7.49902H16.3782V6.49902C16.3782 5.43816 15.9567 4.42074 15.2066 3.6706C14.4565 2.92045 13.439 2.49902 12.3782 2.49902C11.3173 2.49902 10.2999 2.92045 9.54975 3.6706C8.7996 4.42074 8.37817 5.43816 8.37817 6.49902V7.49902H5.37817C5.11296 7.49902 4.8586 7.60438 4.67107 7.79192C4.48353 7.97945 4.37817 8.23381 4.37817 8.49902V19.499C4.37817 20.2947 4.69424 21.0577 5.25685 21.6203C5.81946 22.183 6.58252 22.499 7.37817 22.499H17.3782C18.1738 22.499 18.9369 22.183 19.4995 21.6203C20.0621 21.0577 20.3782 20.2947 20.3782 19.499V8.49902C20.3782 8.23381 20.2728 7.97945 20.0853 7.79192C19.8977 7.60438 19.6434 7.49902 19.3782 7.49902ZM10.3782 6.49902C10.3782 5.96859 10.5889 5.45988 10.964 5.08481C11.339 4.70974 11.8477 4.49902 12.3782 4.49902C12.9086 4.49902 13.4173 4.70974 13.7924 5.08481C14.1675 5.45988 14.3782 5.96859 14.3782 6.49902V7.49902H10.3782V6.49902ZM18.3782 19.499C18.3782 19.7642 18.2728 20.0186 18.0853 20.2061C17.8977 20.3937 17.6434 20.499 17.3782 20.499H7.37817C7.11296 20.499 6.8586 20.3937 6.67107 20.2061C6.48353 20.0186 6.37817 19.7642 6.37817 19.499V9.49902H8.37817V10.499C8.37817 10.7642 8.48353 11.0186 8.67107 11.2061C8.8586 11.3937 9.11296 11.499 9.37817 11.499C9.64339 11.499 9.89774 11.3937 10.0853 11.2061C10.2728 11.0186 10.3782 10.7642 10.3782 10.499V9.49902H14.3782V10.499C14.3782 10.7642 14.4835 11.0186 14.6711 11.2061C14.8586 11.3937 15.113 11.499 15.3782 11.499C15.6434 11.499 15.8977 11.3937 16.0853 11.2061C16.2728 11.0186 16.3782 10.7642 16.3782 10.499V9.49902H18.3782V19.499Z" fill="white"/>
</svg>
