<svg width="25" height="25" viewBox="0 0 25 25" fill="none" xmlns="http://www.w3.org/2000/svg">
<path d="M19.1211 7.49951H16.1211V6.49951C16.1211 5.43865 15.6997 4.42123 14.9495 3.67108C14.1994 2.92094 13.182 2.49951 12.1211 2.49951C11.0602 2.49951 10.0428 2.92094 9.29267 3.67108C8.54252 4.42123 8.12109 5.43865 8.12109 6.49951V7.49951H5.12109C4.85588 7.49951 4.60152 7.60487 4.41399 7.79241C4.22645 7.97994 4.12109 8.2343 4.12109 8.49951V19.4995C4.12109 20.2952 4.43716 21.0582 4.99977 21.6208C5.56238 22.1834 6.32544 22.4995 7.12109 22.4995H17.1211C17.9167 22.4995 18.6798 22.1834 19.2424 21.6208C19.805 21.0582 20.1211 20.2952 20.1211 19.4995V8.49951C20.1211 8.2343 20.0157 7.97994 19.8282 7.79241C19.6407 7.60487 19.3863 7.49951 19.1211 7.49951ZM10.1211 6.49951C10.1211 5.96908 10.3318 5.46037 10.7069 5.0853C11.082 4.71023 11.5907 4.49951 12.1211 4.49951C12.6515 4.49951 13.1602 4.71023 13.5353 5.0853C13.9104 5.46037 14.1211 5.96908 14.1211 6.49951V7.49951H10.1211V6.49951ZM18.1211 19.4995C18.1211 19.7647 18.0157 20.0191 17.8282 20.2066C17.6407 20.3942 17.3863 20.4995 17.1211 20.4995H7.12109C6.85588 20.4995 6.60152 20.3942 6.41399 20.2066C6.22645 20.0191 6.12109 19.7647 6.12109 19.4995V9.49951H8.12109V10.4995C8.12109 10.7647 8.22645 11.0191 8.41399 11.2066C8.60152 11.3942 8.85588 11.4995 9.12109 11.4995C9.38631 11.4995 9.64066 11.3942 9.8282 11.2066C10.0157 11.0191 10.1211 10.7647 10.1211 10.4995V9.49951H14.1211V10.4995C14.1211 10.7647 14.2265 11.0191 14.414 11.2066C14.6015 11.3942 14.8559 11.4995 15.1211 11.4995C15.3863 11.4995 15.6407 11.3942 15.8282 11.2066C16.0157 11.0191 16.1211 10.7647 16.1211 10.4995V9.49951H18.1211V19.4995Z" fill="white"/>
</svg>
