<svg width="25" height="25" viewBox="0 0 25 25" fill="none" xmlns="http://www.w3.org/2000/svg">
<path d="M19.8845 7.49902H16.8845V6.49902C16.8845 5.43816 16.4631 4.42074 15.7129 3.6706C14.9628 2.92045 13.9454 2.49902 12.8845 2.49902C11.8237 2.49902 10.8062 2.92045 10.0561 3.6706C9.30595 4.42074 8.88452 5.43816 8.88452 6.49902V7.49902H5.88452C5.61931 7.49902 5.36495 7.60438 5.17741 7.79192C4.98988 7.97945 4.88452 8.23381 4.88452 8.49902V19.499C4.88452 20.2947 5.20059 21.0577 5.7632 21.6203C6.32581 22.183 7.08887 22.499 7.88452 22.499H17.8845C18.6802 22.499 19.4432 22.183 20.0058 21.6203C20.5685 21.0577 20.8845 20.2947 20.8845 19.499V8.49902C20.8845 8.23381 20.7792 7.97945 20.5916 7.79192C20.4041 7.60438 20.1497 7.49902 19.8845 7.49902ZM10.8845 6.49902C10.8845 5.96859 11.0952 5.45988 11.4703 5.08481C11.8454 4.70974 12.3541 4.49902 12.8845 4.49902C13.415 4.49902 13.9237 4.70974 14.2987 5.08481C14.6738 5.45988 14.8845 5.96859 14.8845 6.49902V7.49902H10.8845V6.49902ZM18.8845 19.499C18.8845 19.7642 18.7792 20.0186 18.5916 20.2061C18.4041 20.3937 18.1497 20.499 17.8845 20.499H7.88452C7.6193 20.499 7.36495 20.3937 7.17741 20.2061C6.98988 20.0186 6.88452 19.7642 6.88452 19.499V9.49902H8.88452V10.499C8.88452 10.7642 8.98988 11.0186 9.17741 11.2061C9.36495 11.3937 9.61931 11.499 9.88452 11.499C10.1497 11.499 10.4041 11.3937 10.5916 11.2061C10.7792 11.0186 10.8845 10.7642 10.8845 10.499V9.49902H14.8845V10.499C14.8845 10.7642 14.9899 11.0186 15.1774 11.2061C15.365 11.3937 15.6193 11.499 15.8845 11.499C16.1497 11.499 16.4041 11.3937 16.5916 11.2061C16.7792 11.0186 16.8845 10.7642 16.8845 10.499V9.49902H18.8845V19.499Z" fill="white"/>
</svg>
