<svg width="25" height="25" viewBox="0 0 25 25" fill="none" xmlns="http://www.w3.org/2000/svg">
<path d="M19.8174 7.95361H16.8174V6.95361C16.8174 5.89275 16.396 4.87533 15.6458 4.12519C14.8957 3.37504 13.8782 2.95361 12.8174 2.95361C11.7565 2.95361 10.7391 3.37504 9.98896 4.12519C9.23881 4.87533 8.81738 5.89275 8.81738 6.95361V7.95361H5.81738C5.55217 7.95361 5.29781 8.05897 5.11028 8.24651C4.92274 8.43404 4.81738 8.6884 4.81738 8.95361V19.9536C4.81738 20.7493 5.13345 21.5123 5.69606 22.0749C6.25867 22.6375 7.02173 22.9536 7.81738 22.9536H17.8174C18.613 22.9536 19.3761 22.6375 19.9387 22.0749C20.5013 21.5123 20.8174 20.7493 20.8174 19.9536V8.95361C20.8174 8.6884 20.712 8.43404 20.5245 8.24651C20.337 8.05897 20.0826 7.95361 19.8174 7.95361ZM10.8174 6.95361C10.8174 6.42318 11.0281 5.91447 11.4032 5.5394C11.7782 5.16433 12.2869 4.95361 12.8174 4.95361C13.3478 4.95361 13.8565 5.16433 14.2316 5.5394C14.6067 5.91447 14.8174 6.42318 14.8174 6.95361V7.95361H10.8174V6.95361ZM18.8174 19.9536C18.8174 20.2188 18.712 20.4732 18.5245 20.6607C18.337 20.8483 18.0826 20.9536 17.8174 20.9536H7.81738C7.55217 20.9536 7.29781 20.8483 7.11028 20.6607C6.92274 20.4732 6.81738 20.2188 6.81738 19.9536V9.95361H8.81738V10.9536C8.81738 11.2188 8.92274 11.4732 9.11028 11.6607C9.29781 11.8483 9.55217 11.9536 9.81738 11.9536C10.0826 11.9536 10.337 11.8483 10.5245 11.6607C10.712 11.4732 10.8174 11.2188 10.8174 10.9536V9.95361H14.8174V10.9536C14.8174 11.2188 14.9227 11.4732 15.1103 11.6607C15.2978 11.8483 15.5522 11.9536 15.8174 11.9536C16.0826 11.9536 16.337 11.8483 16.5245 11.6607C16.712 11.4732 16.8174 11.2188 16.8174 10.9536V9.95361H18.8174V19.9536Z" fill="white"/>
</svg>
