<svg width="25" height="25" viewBox="0 0 25 25" fill="none" xmlns="http://www.w3.org/2000/svg">
<path d="M19.3601 7.49951H16.3601V6.49951C16.3601 5.43865 15.9387 4.42123 15.1885 3.67108C14.4384 2.92094 13.421 2.49951 12.3601 2.49951C11.2992 2.49951 10.2818 2.92094 9.53168 3.67108C8.78153 4.42123 8.36011 5.43865 8.36011 6.49951V7.49951H5.36011C5.09489 7.49951 4.84054 7.60487 4.653 7.79241C4.46546 7.97994 4.36011 8.2343 4.36011 8.49951V19.4995C4.36011 20.2952 4.67618 21.0582 5.23879 21.6208C5.8014 22.1834 6.56446 22.4995 7.36011 22.4995H17.3601C18.1558 22.4995 18.9188 22.1834 19.4814 21.6208C20.044 21.0582 20.3601 20.2952 20.3601 19.4995V8.49951C20.3601 8.2343 20.2548 7.97994 20.0672 7.79241C19.8797 7.60487 19.6253 7.49951 19.3601 7.49951ZM10.3601 6.49951C10.3601 5.96908 10.5708 5.46037 10.9459 5.0853C11.321 4.71023 11.8297 4.49951 12.3601 4.49951C12.8905 4.49951 13.3992 4.71023 13.7743 5.0853C14.1494 5.46037 14.3601 5.96908 14.3601 6.49951V7.49951H10.3601V6.49951ZM18.3601 19.4995C18.3601 19.7647 18.2548 20.0191 18.0672 20.2066C17.8797 20.3942 17.6253 20.4995 17.3601 20.4995H7.36011C7.09489 20.4995 6.84054 20.3942 6.653 20.2066C6.46546 20.0191 6.36011 19.7647 6.36011 19.4995V9.49951H8.36011V10.4995C8.36011 10.7647 8.46546 11.0191 8.653 11.2066C8.84054 11.3942 9.09489 11.4995 9.36011 11.4995C9.62532 11.4995 9.87968 11.3942 10.0672 11.2066C10.2548 11.0191 10.3601 10.7647 10.3601 10.4995V9.49951H14.3601V10.4995C14.3601 10.7647 14.4655 11.0191 14.653 11.2066C14.8405 11.3942 15.0949 11.4995 15.3601 11.4995C15.6253 11.4995 15.8797 11.3942 16.0672 11.2066C16.2548 11.0191 16.3601 10.7647 16.3601 10.4995V9.49951H18.3601V19.4995Z" fill="white"/>
</svg>
