<svg width="25" height="25" viewBox="0 0 25 25" fill="none" xmlns="http://www.w3.org/2000/svg">
<path d="M19.1138 7.49951H16.1138V6.49951C16.1138 5.43865 15.6923 4.42123 14.9422 3.67108C14.1921 2.92094 13.1746 2.49951 12.1138 2.49951C11.0529 2.49951 10.0355 2.92094 9.28534 3.67108C8.5352 4.42123 8.11377 5.43865 8.11377 6.49951V7.49951H5.11377C4.84855 7.49951 4.5942 7.60487 4.40666 7.79241C4.21913 7.97994 4.11377 8.2343 4.11377 8.49951V19.4995C4.11377 20.2952 4.42984 21.0582 4.99245 21.6208C5.55506 22.1834 6.31812 22.4995 7.11377 22.4995H17.1138C17.9094 22.4995 18.6725 22.1834 19.2351 21.6208C19.7977 21.0582 20.1138 20.2952 20.1138 19.4995V8.49951C20.1138 8.2343 20.0084 7.97994 19.8209 7.79241C19.6333 7.60487 19.379 7.49951 19.1138 7.49951ZM10.1138 6.49951C10.1138 5.96908 10.3245 5.46037 10.6996 5.0853C11.0746 4.71023 11.5833 4.49951 12.1138 4.49951C12.6442 4.49951 13.1529 4.71023 13.528 5.0853C13.9031 5.46037 14.1138 5.96908 14.1138 6.49951V7.49951H10.1138V6.49951ZM18.1138 19.4995C18.1138 19.7647 18.0084 20.0191 17.8209 20.2066C17.6333 20.3942 17.379 20.4995 17.1138 20.4995H7.11377C6.84855 20.4995 6.5942 20.3942 6.40666 20.2066C6.21913 20.0191 6.11377 19.7647 6.11377 19.4995V9.49951H8.11377V10.4995C8.11377 10.7647 8.21913 11.0191 8.40666 11.2066C8.5942 11.3942 8.84855 11.4995 9.11377 11.4995C9.37899 11.4995 9.63334 11.3942 9.82088 11.2066C10.0084 11.0191 10.1138 10.7647 10.1138 10.4995V9.49951H14.1138V10.4995C14.1138 10.7647 14.2191 11.0191 14.4067 11.2066C14.5942 11.3942 14.8486 11.4995 15.1138 11.4995C15.379 11.4995 15.6333 11.3942 15.8209 11.2066C16.0084 11.0191 16.1138 10.7647 16.1138 10.4995V9.49951H18.1138V19.4995Z" fill="white"/>
</svg>
