<svg width="25" height="25" viewBox="0 0 25 25" fill="none" xmlns="http://www.w3.org/2000/svg">
<path d="M19.0129 7.49951H16.0129V6.49951C16.0129 5.43865 15.5915 4.42123 14.8414 3.67108C14.0912 2.92094 13.0738 2.49951 12.0129 2.49951C10.9521 2.49951 9.93466 2.92094 9.18451 3.67108C8.43437 4.42123 8.01294 5.43865 8.01294 6.49951V7.49951H5.01294C4.74772 7.49951 4.49337 7.60487 4.30583 7.79241C4.1183 7.97994 4.01294 8.2343 4.01294 8.49951V19.4995C4.01294 20.2952 4.32901 21.0582 4.89162 21.6208C5.45423 22.1834 6.21729 22.4995 7.01294 22.4995H17.0129C17.8086 22.4995 18.5717 22.1834 19.1343 21.6208C19.6969 21.0582 20.0129 20.2952 20.0129 19.4995V8.49951C20.0129 8.2343 19.9076 7.97994 19.72 7.79241C19.5325 7.60487 19.2782 7.49951 19.0129 7.49951ZM10.0129 6.49951C10.0129 5.96908 10.2237 5.46037 10.5987 5.0853C10.9738 4.71023 11.4825 4.49951 12.0129 4.49951C12.5434 4.49951 13.0521 4.71023 13.4272 5.0853C13.8022 5.46037 14.0129 5.96908 14.0129 6.49951V7.49951H10.0129V6.49951ZM18.0129 19.4995C18.0129 19.7647 17.9076 20.0191 17.72 20.2066C17.5325 20.3942 17.2782 20.4995 17.0129 20.4995H7.01294C6.74772 20.4995 6.49337 20.3942 6.30583 20.2066C6.1183 20.0191 6.01294 19.7647 6.01294 19.4995V9.49951H8.01294V10.4995C8.01294 10.7647 8.1183 11.0191 8.30583 11.2066C8.49337 11.3942 8.74772 11.4995 9.01294 11.4995C9.27816 11.4995 9.53251 11.3942 9.72005 11.2066C9.90758 11.0191 10.0129 10.7647 10.0129 10.4995V9.49951H14.0129V10.4995C14.0129 10.7647 14.1183 11.0191 14.3058 11.2066C14.4934 11.3942 14.7477 11.4995 15.0129 11.4995C15.2782 11.4995 15.5325 11.3942 15.72 11.2066C15.9076 11.0191 16.0129 10.7647 16.0129 10.4995V9.49951H18.0129V19.4995Z" fill="white"/>
</svg>
