<svg width="25" height="25" viewBox="0 0 25 25" fill="none" xmlns="http://www.w3.org/2000/svg">
<path d="M19.9062 7.49902H16.9062V6.49902C16.9062 5.43816 16.4848 4.42074 15.7347 3.6706C14.9845 2.92045 13.9671 2.49902 12.9062 2.49902C11.8454 2.49902 10.828 2.92045 10.0778 3.6706C9.32768 4.42074 8.90625 5.43816 8.90625 6.49902V7.49902H5.90625C5.64103 7.49902 5.38668 7.60438 5.19914 7.79192C5.01161 7.97945 4.90625 8.23381 4.90625 8.49902V19.499C4.90625 20.2947 5.22232 21.0577 5.78493 21.6203C6.34754 22.183 7.1106 22.499 7.90625 22.499H17.9062C18.7019 22.499 19.465 22.183 20.0276 21.6203C20.5902 21.0577 20.9062 20.2947 20.9062 19.499V8.49902C20.9062 8.23381 20.8009 7.97945 20.6134 7.79192C20.4258 7.60438 20.1715 7.49902 19.9062 7.49902ZM10.9062 6.49902C10.9062 5.96859 11.117 5.45988 11.492 5.08481C11.8671 4.70974 12.3758 4.49902 12.9062 4.49902C13.4367 4.49902 13.9454 4.70974 14.3205 5.08481C14.6955 5.45988 14.9062 5.96859 14.9062 6.49902V7.49902H10.9062V6.49902ZM18.9062 19.499C18.9062 19.7642 18.8009 20.0186 18.6134 20.2061C18.4258 20.3937 18.1715 20.499 17.9062 20.499H7.90625C7.64103 20.499 7.38668 20.3937 7.19914 20.2061C7.01161 20.0186 6.90625 19.7642 6.90625 19.499V9.49902H8.90625V10.499C8.90625 10.7642 9.01161 11.0186 9.19914 11.2061C9.38668 11.3937 9.64103 11.499 9.90625 11.499C10.1715 11.499 10.4258 11.3937 10.6134 11.2061C10.8009 11.0186 10.9062 10.7642 10.9062 10.499V9.49902H14.9062V10.499C14.9062 10.7642 15.0116 11.0186 15.1991 11.2061C15.3867 11.3937 15.641 11.499 15.9062 11.499C16.1715 11.499 16.4258 11.3937 16.6134 11.2061C16.8009 11.0186 16.9062 10.7642 16.9062 10.499V9.49902H18.9062V19.499Z" fill="white"/>
</svg>
