<svg width="25" height="25" viewBox="0 0 25 25" fill="none" xmlns="http://www.w3.org/2000/svg">
<path d="M19.6416 7.49902H16.6416V6.49902C16.6416 5.43816 16.2202 4.42074 15.47 3.6706C14.7199 2.92045 13.7025 2.49902 12.6416 2.49902C11.5807 2.49902 10.5633 2.92045 9.81317 3.6706C9.06303 4.42074 8.6416 5.43816 8.6416 6.49902V7.49902H5.6416C5.37639 7.49902 5.12203 7.60438 4.93449 7.79192C4.74696 7.97945 4.6416 8.23381 4.6416 8.49902V19.499C4.6416 20.2947 4.95767 21.0577 5.52028 21.6203C6.08289 22.183 6.84595 22.499 7.6416 22.499H17.6416C18.4373 22.499 19.2003 22.183 19.7629 21.6203C20.3255 21.0577 20.6416 20.2947 20.6416 19.499V8.49902C20.6416 8.23381 20.5362 7.97945 20.3487 7.79192C20.1612 7.60438 19.9068 7.49902 19.6416 7.49902ZM10.6416 6.49902C10.6416 5.96859 10.8523 5.45988 11.2274 5.08481C11.6025 4.70974 12.1112 4.49902 12.6416 4.49902C13.172 4.49902 13.6807 4.70974 14.0558 5.08481C14.4309 5.45988 14.6416 5.96859 14.6416 6.49902V7.49902H10.6416V6.49902ZM18.6416 19.499C18.6416 19.7642 18.5362 20.0186 18.3487 20.2061C18.1612 20.3937 17.9068 20.499 17.6416 20.499H7.6416C7.37638 20.499 7.12203 20.3937 6.93449 20.2061C6.74696 20.0186 6.6416 19.7642 6.6416 19.499V9.49902H8.6416V10.499C8.6416 10.7642 8.74696 11.0186 8.93449 11.2061C9.12203 11.3937 9.37639 11.499 9.6416 11.499C9.90682 11.499 10.1612 11.3937 10.3487 11.2061C10.5362 11.0186 10.6416 10.7642 10.6416 10.499V9.49902H14.6416V10.499C14.6416 10.7642 14.747 11.0186 14.9345 11.2061C15.122 11.3937 15.3764 11.499 15.6416 11.499C15.9068 11.499 16.1612 11.3937 16.3487 11.2061C16.5362 11.0186 16.6416 10.7642 16.6416 10.499V9.49902H18.6416V19.499Z" fill="white"/>
</svg>
