<svg width="25" height="25" viewBox="0 0 25 25" fill="none" xmlns="http://www.w3.org/2000/svg">
<path d="M19.3777 7.49902H16.3777V6.49902C16.3777 5.43816 15.9563 4.42074 15.2061 3.6706C14.456 2.92045 13.4386 2.49902 12.3777 2.49902C11.3168 2.49902 10.2994 2.92045 9.54926 3.6706C8.79911 4.42074 8.37769 5.43816 8.37769 6.49902V7.49902H5.37769C5.11247 7.49902 4.85812 7.60438 4.67058 7.79192C4.48304 7.97945 4.37769 8.23381 4.37769 8.49902V19.499C4.37769 20.2947 4.69376 21.0577 5.25637 21.6203C5.81897 22.183 6.58204 22.499 7.37769 22.499H17.3777C18.1733 22.499 18.9364 22.183 19.499 21.6203C20.0616 21.0577 20.3777 20.2947 20.3777 19.499V8.49902C20.3777 8.23381 20.2723 7.97945 20.0848 7.79192C19.8973 7.60438 19.6429 7.49902 19.3777 7.49902ZM10.3777 6.49902C10.3777 5.96859 10.5884 5.45988 10.9635 5.08481C11.3385 4.70974 11.8473 4.49902 12.3777 4.49902C12.9081 4.49902 13.4168 4.70974 13.7919 5.08481C14.167 5.45988 14.3777 5.96859 14.3777 6.49902V7.49902H10.3777V6.49902ZM18.3777 19.499C18.3777 19.7642 18.2723 20.0186 18.0848 20.2061C17.8973 20.3937 17.6429 20.499 17.3777 20.499H7.37769C7.11247 20.499 6.85812 20.3937 6.67058 20.2061C6.48304 20.0186 6.37769 19.7642 6.37769 19.499V9.49902H8.37769V10.499C8.37769 10.7642 8.48304 11.0186 8.67058 11.2061C8.85812 11.3937 9.11247 11.499 9.37769 11.499C9.6429 11.499 9.89726 11.3937 10.0848 11.2061C10.2723 11.0186 10.3777 10.7642 10.3777 10.499V9.49902H14.3777V10.499C14.3777 10.7642 14.483 11.0186 14.6706 11.2061C14.8581 11.3937 15.1125 11.499 15.3777 11.499C15.6429 11.499 15.8973 11.3937 16.0848 11.2061C16.2723 11.0186 16.3777 10.7642 16.3777 10.499V9.49902H18.3777V19.499Z" fill="white"/>
</svg>
