<svg width="25" height="25" viewBox="0 0 25 25" fill="none" xmlns="http://www.w3.org/2000/svg">
<path d="M19.885 7.49902H16.885V6.49902C16.885 5.43816 16.4636 4.42074 15.7134 3.6706C14.9633 2.92045 13.9459 2.49902 12.885 2.49902C11.8241 2.49902 10.8067 2.92045 10.0566 3.6706C9.30644 4.42074 8.88501 5.43816 8.88501 6.49902V7.49902H5.88501C5.61979 7.49902 5.36544 7.60438 5.1779 7.79192C4.99037 7.97945 4.88501 8.23381 4.88501 8.49902V19.499C4.88501 20.2947 5.20108 21.0577 5.76369 21.6203C6.3263 22.183 7.08936 22.499 7.88501 22.499H17.885C18.6807 22.499 19.4437 22.183 20.0063 21.6203C20.5689 21.0577 20.885 20.2947 20.885 19.499V8.49902C20.885 8.23381 20.7797 7.97945 20.5921 7.79192C20.4046 7.60438 20.1502 7.49902 19.885 7.49902ZM10.885 6.49902C10.885 5.96859 11.0957 5.45988 11.4708 5.08481C11.8459 4.70974 12.3546 4.49902 12.885 4.49902C13.4154 4.49902 13.9242 4.70974 14.2992 5.08481C14.6743 5.45988 14.885 5.96859 14.885 6.49902V7.49902H10.885V6.49902ZM18.885 19.499C18.885 19.7642 18.7797 20.0186 18.5921 20.2061C18.4046 20.3937 18.1502 20.499 17.885 20.499H7.88501C7.61979 20.499 7.36544 20.3937 7.1779 20.2061C6.99037 20.0186 6.88501 19.7642 6.88501 19.499V9.49902H8.88501V10.499C8.88501 10.7642 8.99037 11.0186 9.1779 11.2061C9.36544 11.3937 9.61979 11.499 9.88501 11.499C10.1502 11.499 10.4046 11.3937 10.5921 11.2061C10.7797 11.0186 10.885 10.7642 10.885 10.499V9.49902H14.885V10.499C14.885 10.7642 14.9904 11.0186 15.1779 11.2061C15.3654 11.3937 15.6198 11.499 15.885 11.499C16.1502 11.499 16.4046 11.3937 16.5921 11.2061C16.7797 11.0186 16.885 10.7642 16.885 10.499V9.49902H18.885V19.499Z" fill="white"/>
</svg>
