<svg width="25" height="24" viewBox="0 0 25 24" fill="none" xmlns="http://www.w3.org/2000/svg">
<path d="M19.8174 7H16.8174V6C16.8174 4.93913 16.396 3.92172 15.6458 3.17157C14.8957 2.42143 13.8782 2 12.8174 2C11.7565 2 10.7391 2.42143 9.98896 3.17157C9.23881 3.92172 8.81738 4.93913 8.81738 6V7H5.81738C5.55217 7 5.29781 7.10536 5.11028 7.29289C4.92274 7.48043 4.81738 7.73478 4.81738 8V19C4.81738 19.7956 5.13345 20.5587 5.69606 21.1213C6.25867 21.6839 7.02173 22 7.81738 22H17.8174C18.613 22 19.3761 21.6839 19.9387 21.1213C20.5013 20.5587 20.8174 19.7956 20.8174 19V8C20.8174 7.73478 20.712 7.48043 20.5245 7.29289C20.337 7.10536 20.0826 7 19.8174 7ZM10.8174 6C10.8174 5.46957 11.0281 4.96086 11.4032 4.58579C11.7782 4.21071 12.2869 4 12.8174 4C13.3478 4 13.8565 4.21071 14.2316 4.58579C14.6067 4.96086 14.8174 5.46957 14.8174 6V7H10.8174V6ZM18.8174 19C18.8174 19.2652 18.712 19.5196 18.5245 19.7071C18.337 19.8946 18.0826 20 17.8174 20H7.81738C7.55217 20 7.29781 19.8946 7.11028 19.7071C6.92274 19.5196 6.81738 19.2652 6.81738 19V9H8.81738V10C8.81738 10.2652 8.92274 10.5196 9.11028 10.7071C9.29781 10.8946 9.55217 11 9.81738 11C10.0826 11 10.337 10.8946 10.5245 10.7071C10.712 10.5196 10.8174 10.2652 10.8174 10V9H14.8174V10C14.8174 10.2652 14.9227 10.5196 15.1103 10.7071C15.2978 10.8946 15.5522 11 15.8174 11C16.0826 11 16.337 10.8946 16.5245 10.7071C16.712 10.5196 16.8174 10.2652 16.8174 10V9H18.8174V19Z" fill="white"/>
</svg>
