<svg width="1528" height="828" viewBox="0 0 1528 828" fill="none" xmlns="http://www.w3.org/2000/svg">
<path fill-rule="evenodd" clip-rule="evenodd" d="M1304.43 0C1292.86 0 1282.33 6.64618 1277.35 17.0831L1249.74 74.9618C1249.25 75.9915 1248.63 76.9543 1247.89 77.8269C1245.35 80.8508 1241.59 82.5961 1237.64 82.5961H48C31.1984 82.5961 22.7976 82.5961 16.3803 85.8659C10.7354 88.7421 6.14601 93.3315 3.2698 98.9763C0 105.394 0 113.794 0 130.596V780C0 796.802 0 805.202 3.2698 811.62C6.14601 817.265 10.7354 821.854 16.3803 824.73C22.7976 828 31.1984 828 48 828H1480C1496.8 828 1505.2 828 1511.62 824.73C1517.26 821.854 1521.85 817.265 1524.73 811.62C1528 805.202 1528 796.802 1528 780V154.689V82.5961V30C1528 13.4315 1514.57 0 1498 0H1304.43Z" fill="url(#paint0_linear_376_12021)"/>
<defs>
<linearGradient id="paint0_linear_376_12021" x1="779" y1="245.525" x2="445.808" y2="926.267" gradientUnits="userSpaceOnUse">
<stop stop-color="#5CC4CD"/>
<stop offset="1" stop-color="#4E48E0"/>
</linearGradient>
</defs>
</svg>
