<svg width="14" height="13" viewBox="0 0 14 13" fill="none" xmlns="http://www.w3.org/2000/svg">
<path d="M6.85751 12.9994L5.88667 12.1328C4.75962 11.1217 3.82784 10.2494 3.09135 9.51611C2.35485 8.78278 1.769 8.12434 1.3338 7.54078C0.898603 6.95767 0.594632 6.42167 0.421891 5.93278C0.24915 5.44389 0.162556 4.94389 0.162109 4.43278C0.162109 3.38834 0.513618 2.51611 1.21663 1.81611C1.91965 1.11611 2.79563 0.766113 3.84458 0.766113C4.42485 0.766113 4.97722 0.888335 5.50169 1.13278C6.02616 1.37722 6.4781 1.72167 6.85751 2.16611C7.23691 1.72167 7.68885 1.37722 8.21332 1.13278C8.7378 0.888335 9.29017 0.766113 9.87044 0.766113C10.9194 0.766113 11.7954 1.11611 12.4984 1.81611C13.2014 2.51611 13.5529 3.38834 13.5529 4.43278C13.5529 4.94389 13.4663 5.44389 13.2931 5.93278C13.1199 6.42167 12.816 6.95767 12.3812 7.54078C11.946 8.12434 11.3602 8.78278 10.6237 9.51611C9.88717 10.2494 8.9554 11.1217 7.82834 12.1328L6.85751 12.9994ZM6.85751 11.1994C7.92877 10.2439 8.81033 9.42434 9.50219 8.74078C10.194 8.05722 10.7408 7.463 11.1426 6.95811C11.5443 6.45234 11.8233 6.00211 11.9795 5.60745C12.1357 5.21278 12.2138 4.82122 12.2138 4.43278C12.2138 3.76611 11.9906 3.21056 11.5443 2.76611C11.0979 2.32167 10.54 2.09945 9.87044 2.09945C9.34596 2.09945 8.86055 2.24656 8.41419 2.54078C7.96783 2.835 7.66095 3.21011 7.49357 3.66611H6.22144C6.05406 3.21056 5.74719 2.83545 5.30083 2.54078C4.85447 2.24611 4.36905 2.099 3.84458 2.09945C3.17504 2.09945 2.61709 2.32167 2.17073 2.76611C1.72437 3.21056 1.50119 3.76611 1.50119 4.43278C1.50119 4.82167 1.5793 5.21345 1.73553 5.60811C1.89175 6.00278 2.17073 6.45278 2.57245 6.95811C2.97418 7.46345 3.52097 8.05789 4.21282 8.74145C4.90468 9.425 5.78624 10.2443 6.85751 11.1994Z" fill="black"/>
</svg>
