<svg width="21" height="19" viewBox="0 0 21 19" fill="none" xmlns="http://www.w3.org/2000/svg">
<path d="M10.9487 18.9994L9.49873 17.6994C7.8154 16.1827 6.42373 14.8744 5.32373 13.7744C4.22373 12.6744 3.34873 11.6867 2.69873 10.8114C2.04873 9.93675 1.59473 9.13275 1.33673 8.39941C1.07873 7.66608 0.949397 6.91608 0.94873 6.14941C0.94873 4.58275 1.47373 3.27441 2.52373 2.22441C3.57373 1.17441 4.88206 0.649414 6.44873 0.649414C7.3154 0.649414 8.1404 0.832747 8.92373 1.19941C9.70706 1.56608 10.3821 2.08275 10.9487 2.74941C11.5154 2.08275 12.1904 1.56608 12.9737 1.19941C13.7571 0.832747 14.5821 0.649414 15.4487 0.649414C17.0154 0.649414 18.3237 1.17441 19.3737 2.22441C20.4237 3.27441 20.9487 4.58275 20.9487 6.14941C20.9487 6.91608 20.8194 7.66608 20.5607 8.39941C20.3021 9.13275 19.8481 9.93675 19.1987 10.8114C18.5487 11.6867 17.6737 12.6744 16.5737 13.7744C15.4737 14.8744 14.0821 16.1827 12.3987 17.6994L10.9487 18.9994ZM10.9487 16.2994C12.5487 14.8661 13.8654 13.6367 14.8987 12.6114C15.9321 11.5861 16.7487 10.6947 17.3487 9.93741C17.9487 9.17875 18.3654 8.50341 18.5987 7.91141C18.8321 7.31941 18.9487 6.73208 18.9487 6.14941C18.9487 5.14941 18.6154 4.31608 17.9487 3.64941C17.2821 2.98275 16.4487 2.64941 15.4487 2.64941C14.6654 2.64941 13.9404 2.87008 13.2737 3.31141C12.6071 3.75275 12.1487 4.31541 11.8987 4.99941H9.99873C9.74873 4.31608 9.2904 3.75341 8.62373 3.31141C7.95706 2.86941 7.23206 2.64875 6.44873 2.64941C5.44873 2.64941 4.6154 2.98275 3.94873 3.64941C3.28206 4.31608 2.94873 5.14941 2.94873 6.14941C2.94873 6.73275 3.0654 7.32041 3.29873 7.91241C3.53206 8.50441 3.94873 9.17941 4.54873 9.93741C5.14873 10.6954 5.9654 11.5871 6.99873 12.6124C8.03206 13.6377 9.34873 14.8667 10.9487 16.2994Z" fill="#636363"/>
</svg>
