<svg width="14" height="12" viewBox="0 0 14 12" fill="none" xmlns="http://www.w3.org/2000/svg">
<path d="M13.1016 5.21332H3.0659L7.45032 1.3542C7.80072 1.04579 7.80072 0.539678 7.45032 0.231265C7.3672 0.157955 7.26847 0.0997934 7.15979 0.0601098C7.0511 0.0204262 6.93458 0 6.81692 0C6.69925 0 6.58274 0.0204262 6.47405 0.0601098C6.36536 0.0997934 6.26663 0.157955 6.18351 0.231265L0.262746 5.44265C0.179456 5.51581 0.113378 5.60271 0.0682924 5.69838C0.0232071 5.79404 0 5.8966 0 6.00017C0 6.10374 0.0232071 6.20629 0.0682924 6.30196C0.113378 6.39762 0.179456 6.48452 0.262746 6.55768L6.18351 11.7691C6.26669 11.8423 6.36544 11.9004 6.47412 11.94C6.5828 11.9796 6.69928 12 6.81692 12C6.93455 12 7.05103 11.9796 7.15971 11.94C7.26839 11.9004 7.36714 11.8423 7.45032 11.7691C7.5335 11.6959 7.59948 11.6089 7.6445 11.5133C7.68952 11.4176 7.71269 11.3151 7.71269 11.2116C7.71269 11.108 7.68952 11.0055 7.6445 10.9098C7.59948 10.8142 7.5335 10.7273 7.45032 10.654L3.0659 6.79492H13.1016C13.5957 6.79492 14 6.43906 14 6.00412C14 5.56918 13.5957 5.21332 13.1016 5.21332Z" fill="black"/>
</svg>
