<svg width="14" height="12" viewBox="0 0 14 12" fill="none" xmlns="http://www.w3.org/2000/svg">
<path d="M0.898447 6.78668L10.9341 6.78668L6.54968 10.6458C6.19928 10.9542 6.19928 11.4603 6.54968 11.7687C6.6328 11.842 6.73153 11.9002 6.84021 11.9399C6.9489 11.9796 7.06542 12 7.18308 12C7.30075 12 7.41726 11.9796 7.52595 11.9399C7.63464 11.9002 7.73337 11.842 7.81649 11.7687L13.7373 6.55735C13.8205 6.48419 13.8866 6.39729 13.9317 6.30162C13.9768 6.20596 14 6.1034 14 5.99983C14 5.89626 13.9768 5.79371 13.9317 5.69804C13.8866 5.60238 13.8205 5.51548 13.7373 5.44232L7.81649 0.230929C7.73331 0.157715 7.63456 0.0996399 7.52588 0.0600166C7.4172 0.0203934 7.30072 0 7.18308 0C7.06545 0 6.94897 0.0203943 6.84029 0.0600166C6.73161 0.0996399 6.63286 0.157715 6.54968 0.230929C6.4665 0.304143 6.40052 0.391062 6.3555 0.486721C6.31048 0.582379 6.28731 0.684906 6.28731 0.788446C6.28731 0.891987 6.31048 0.994513 6.3555 1.09017C6.40052 1.18583 6.4665 1.27275 6.54968 1.34596L10.9341 5.20508L0.898447 5.20508C0.404301 5.20508 0 5.56094 0 5.99588C0 6.43082 0.404301 6.78668 0.898447 6.78668Z" fill="black"/>
</svg>
